{
.appVersion = "1009";
DisplayStrings = (
"HNHTIHLHEHDHFHOHHSHWHU\012CGSJ\012Hynnhnooongn\012HHQHOQOOHH\012ni.n:n;n,HNM\012BPR\012h(h[{ho-oh}])(p)\012JOZEFg\012HheAVH}\012HMHWH\012HXHKH",
"ABCDEFGHIJKLMNOPQRSTUVWXYZ\012Hnnopka \012nnknokonv\012HHZHOZOOH\012CGJS \012FIGHT\012OHVINA\012MUZEUM\012WHOM",
"nnrnoroon\012Hnnoherny\012HHCHOAOH \012A4HRGH2C 0DH\01240124204054J\012HOH1H0H2H4HH5Hi\U00EBae  /dotaccentcomb  /acutecomb   /caroncomb   /circumflexcomb   /dieresiscomb \U00E4\U00EB Hh/ecaron p\U00E1\U00EA \012FHEIllinois "
);
copyright = "Copyright ￂﾩ 2016 by William Montrose, Slￃﾡva Jevￄﾍinovￃﾡ. All rights reserved.";
date = "2016-08-04 16:37:45 +0000";
designer = "William Montrose, Slￃﾡva Jevￄﾍinovￃﾡ";
familyName = "Universal Text A";
features = (
{
code = "sub y by y.001;";
name = ss01;
}
);
fontMaster = (
{
alignmentZones = (
"{730, 15}",
"{670, 15}",
"{514, 15}",
"{-15, 15}",
"{-210, 15}"
);
ascender = 730;
capHeight = 670;
descender = -195;
id = "0A1AFE58-107D-4787-BDA0-D82FB635C3A6";
verticalStems = (
55
);
weight = Light;
weightValue = 55;
xHeight = 514;
},
{
alignmentZones = (
"{730, 15}",
"{670, 15}",
"{525, 15}",
"{-15, 15}",
"{-210, 15}"
);
ascender = 730;
capHeight = 670;
customParameters = (
{
name = paramArea;
value = "385";
},
{
name = paramDepth;
value = "14";
},
{
name = paramOver;
value = "3";
}
);
descender = -195;
guideLines = (
{
position = "{44, -210}";
}
);
id = "C76CAC8E-7AD6-478C-8F7E-02FEF6F1EA84";
userData = {
GSOffsetHorizontal = 19;
GSOffsetMakeStroke = 1;
GSOffsetVertical = 16;
};
verticalStems = (
140
);
weightValue = 140;
xHeight = 525;
},
{
alignmentZones = (
"{730, 15}",
"{670, 15}",
"{534, 15}",
"{-15, 15}",
"{-210, 15}"
);
ascender = 730;
capHeight = 670;
descender = -195;
id = "84435905-EDCB-4949-A8A3-0E53308A2F50";
verticalStems = (
205
);
weight = Bold;
weightValue = 205;
xHeight = 534;
}
);
glyphs = (
{
color = 7;
glyphname = A;
lastChange = "2017-07-18 14:28:26 +0000";
layers = (
{
background = {
paths = (
{
closed = 1;
nodes = (
"548 122 LINE",
"548 237 LINE",
"140 237 LINE",
"140 122 LINE"
);
},
{
closed = 1;
nodes = (
"449 670 LINE",
"242 670 LINE",
"5 0 LINE",
"160 0 LINE",
"342 559 LINE",
"349 559 LINE",
"531 0 LINE",
"686 0 LINE"
);
}
);
};
layerId = "C76CAC8E-7AD6-478C-8F7E-02FEF6F1EA84";
paths = (
{
closed = 1;
nodes = (
"589 141 LINE",
"589 256 LINE",
"148 256 LINE",
"148 141 LINE"
);
},
{
closed = 1;
nodes = (
"473 730 LINE",
"267 730 LINE",
"5 0 LINE",
"160 0 LINE",
"366 617 LINE",
"373 617 LINE",
"580 0 LINE",
"735 0 LINE"
);
}
);
width = 740;
},
{
background = {
paths = (
{
closed = 1;
nodes = (
"518 171 LINE",
"518 220 LINE",
"101 220 LINE",
"101 171 LINE"
);
},
{
closed = 1;
nodes = (
"341 670 LINE",
"269 670 LINE",
"-5 0 LINE",
"59 0 LINE",
"300 611 LINE",
"304 611 LINE",
"551 0 LINE",
"615 0 LINE"
);
}
);
};
layerId = "0A1AFE58-107D-4787-BDA0-D82FB635C3A6";
paths = (
{
closed = 1;
nodes = (
"498 171 LINE",
"498 220 LINE",
"111 220 LINE",
"111 171 LINE"
);
},
{
closed = 1;
nodes = (
"341 670 LINE",
"269 670 LINE",
"5 0 LINE",
"69 0 LINE",
"300 611 LINE",
"304 611 LINE",
"541 0 LINE",
"605 0 LINE"
);
}
);
width = 610;
},
{
background = {
paths = (
{
closed = 1;
nodes = (
"558 100 LINE",
"558 250 LINE",
"164 250 LINE",
"164 100 LINE"
);
},
{
closed = 1;
nodes = (
"517 670 LINE",
"206 670 LINE",
"5 0 LINE",
"229 0 LINE",
"358 529 LINE",
"365 529 LINE",
"494 0 LINE",
"718 0 LINE"
);
}
);
};
layerId = "84435905-EDCB-4949-A8A3-0E53308A2F50";
paths = (
{
closed = 1;
nodes = (
"604 116 LINE",
"604 266 LINE",
"172 266 LINE",
"172 116 LINE"
);
},
{
closed = 1;
nodes = (
"546 730 LINE",
"231 730 LINE",
"5 0 LINE",
"228 0 LINE",
"384 585 LINE",
"392 585 LINE",
"549 0 LINE",
"772 0 LINE"
);
}
);
width = 777;
userData = {
RMXScaler = {
height = 107;
width = 107;
};
};
}
);
unicode = 0041;
userData = {
RMXScaler = {
source = A;
};
};
},
{
color = 7;
glyphname = B;
lastChange = "2017-07-18 14:28:26 +0000";
layers = (
{
background = {
paths = (
{
closed = 1;
nodes = (
"224 0 LINE",
"224 670 LINE",
"79 670 LINE",
"79 0 LINE"
);
},
{
closed = 1;
nodes = (
"527 340 LINE",
"602 362 OFFCURVE",
"636 409 OFFCURVE",
"636 499 CURVE SMOOTH",
"636 603 OFFCURVE",
"585 670 OFFCURVE",
"420 670 CURVE SMOOTH",
"206 670 LINE",
"206 552 LINE",
"389 552 LINE SMOOTH",
"456 552 OFFCURVE",
"488 537 OFFCURVE",
"488 469 CURVE SMOOTH",
"488 408 OFFCURVE",
"456 388 OFFCURVE",
"389 388 CURVE SMOOTH",
"206 388 LINE",
"206 282 LINE",
"406 282 LINE SMOOTH",
"473 282 OFFCURVE",
"505 262 OFFCURVE",
"505 201 CURVE SMOOTH",
"505 133 OFFCURVE",
"473 118 OFFCURVE",
"406 118 CURVE SMOOTH",
"206 118 LINE",
"206 0 LINE",
"427 0 LINE SMOOTH",
"592 0 OFFCURVE",
"653 67 OFFCURVE",
"653 175 CURVE SMOOTH",
"653 270 OFFCURVE",
"617 316 OFFCURVE",
"527 334 CURVE"
);
}
);
};
layerId = "C76CAC8E-7AD6-478C-8F7E-02FEF6F1EA84";
paths = (
{
closed = 1;
nodes = (
"235 0 LINE",
"235 730 LINE",
"90 730 LINE",
"90 0 LINE"
);
},
{
closed = 1;
nodes = (
"568 370 LINE",
"650 393 OFFCURVE",
"688 445 OFFCURVE",
"688 544 CURVE SMOOTH",
"688 657 OFFCURVE",
"631 730 OFFCURVE",
"453 730 CURVE SMOOTH",
"217 730 LINE",
"217 612 LINE",
"425 612 LINE SMOOTH",
"503 612 OFFCURVE",
"540 591 OFFCURVE",
"540 514 CURVE SMOOTH",
"540 445 OFFCURVE",
"503 418 OFFCURVE",
"425 418 CURVE SMOOTH",
"217 418 LINE",
"217 312 LINE",
"440 312 LINE SMOOTH",
"520 312 OFFCURVE",
"559 287 OFFCURVE",
"559 216 CURVE SMOOTH",
"559 139 OFFCURVE",
"520 118 OFFCURVE",
"440 118 CURVE SMOOTH",
"217 118 LINE",
"217 0 LINE",
"459 0 LINE SMOOTH",
"638 0 OFFCURVE",
"707 73 OFFCURVE",
"707 191 CURVE SMOOTH",
"707 296 OFFCURVE",
"664 345 OFFCURVE",
"568 364 CURVE"
);
}
);
width = 760;
},
{
background = {
paths = (
{
closed = 1;
nodes = (
"169 0 LINE",
"169 670 LINE",
"110 670 LINE",
"110 0 LINE"
);
},
{
closed = 1;
nodes = (
"503 338 LINE",
"580 354 OFFCURVE",
"623 404 OFFCURVE",
"623 499 CURVE SMOOTH",
"623 603 OFFCURVE",
"563 670 OFFCURVE",
"406 670 CURVE SMOOTH",
"157 670 LINE",
"157 618 LINE",
"413 618 LINE SMOOTH",
"518 618 OFFCURVE",
"564 572 OFFCURVE",
"564 491 CURVE SMOOTH",
"564 408 OFFCURVE",
"518 359 OFFCURVE",
"413 359 CURVE SMOOTH",
"157 359 LINE",
"157 311 LINE",
"411 311 LINE SMOOTH",
"523 311 OFFCURVE",
"580 272 OFFCURVE",
"580 181 CURVE SMOOTH",
"580 90 OFFCURVE",
"523 52 OFFCURVE",
"411 52 CURVE SMOOTH",
"157 52 LINE",
"157 0 LINE",
"404 0 LINE SMOOTH",
"561 0 OFFCURVE",
"639 64 OFFCURVE",
"639 175 CURVE SMOOTH",
"639 282 OFFCURVE",
"580 321 OFFCURVE",
"503 334 CURVE"
);
}
);
};
layerId = "0A1AFE58-107D-4787-BDA0-D82FB635C3A6";
paths = (
{
closed = 1;
nodes = (
"169 0 LINE",
"169 670 LINE",
"110 670 LINE",
"110 0 LINE"
);
},
{
closed = 1;
nodes = (
"488 338 LINE",
"565 354 OFFCURVE",
"608 404 OFFCURVE",
"608 499 CURVE SMOOTH",
"608 603 OFFCURVE",
"548 670 OFFCURVE",
"391 670 CURVE SMOOTH",
"157 670 LINE",
"157 618 LINE",
"398 618 LINE SMOOTH",
"503 618 OFFCURVE",
"549 572 OFFCURVE",
"549 491 CURVE SMOOTH",
"549 408 OFFCURVE",
"503 359 OFFCURVE",
"398 359 CURVE SMOOTH",
"157 359 LINE",
"157 311 LINE",
"396 311 LINE SMOOTH",
"508 311 OFFCURVE",
"565 272 OFFCURVE",
"565 181 CURVE SMOOTH",
"565 90 OFFCURVE",
"508 52 OFFCURVE",
"396 52 CURVE SMOOTH",
"157 52 LINE",
"157 0 LINE",
"389 0 LINE SMOOTH",
"546 0 OFFCURVE",
"624 64 OFFCURVE",
"624 175 CURVE SMOOTH",
"624 282 OFFCURVE",
"565 321 OFFCURVE",
"488 334 CURVE"
);
}
);
width = 694;
},
{
background = {
paths = (
{
closed = 1;
nodes = (
"269 0 LINE",
"269 670 LINE",
"64 670 LINE",
"64 0 LINE"
);
},
{
closed = 1;
nodes = (
"549 340 LINE",
"623 362 OFFCURVE",
"656 409 OFFCURVE",
"656 499 CURVE SMOOTH",
"656 603 OFFCURVE",
"579 670 OFFCURVE",
"416 670 CURVE SMOOTH",
"251 670 LINE",
"251 513 LINE",
"380 513 LINE SMOOTH",
"426 513 OFFCURVE",
"448 502 OFFCURVE",
"448 452 CURVE SMOOTH",
"448 408 OFFCURVE",
"426 391 OFFCURVE",
"380 391 CURVE SMOOTH",
"251 391 LINE",
"251 279 LINE",
"396 279 LINE SMOOTH",
"443 279 OFFCURVE",
"465 262 OFFCURVE",
"465 218 CURVE SMOOTH",
"465 168 OFFCURVE",
"443 157 OFFCURVE",
"396 157 CURVE SMOOTH",
"251 157 LINE",
"251 0 LINE",
"432 0 LINE SMOOTH",
"596 0 OFFCURVE",
"673 67 OFFCURVE",
"673 175 CURVE SMOOTH",
"673 270 OFFCURVE",
"634 316 OFFCURVE",
"549 334 CURVE"
);
}
);
};
layerId = "84435905-EDCB-4949-A8A3-0E53308A2F50";
paths = (
{
closed = 1;
nodes = (
"283 0 LINE",
"283 730 LINE",
"73 730 LINE",
"73 0 LINE"
);
},
{
closed = 1;
nodes = (
"595 370 LINE",
"676 394 OFFCURVE",
"712 446 OFFCURVE",
"712 544 CURVE SMOOTH",
"712 657 OFFCURVE",
"634 730 OFFCURVE",
"456 730 CURVE SMOOTH",
"264 730 LINE",
"264 571 LINE",
"415 571 LINE SMOOTH",
"472 571 OFFCURVE",
"498 557 OFFCURVE",
"498 497 CURVE SMOOTH",
"498 445 OFFCURVE",
"472 424 OFFCURVE",
"415 424 CURVE SMOOTH",
"264 424 LINE",
"264 306 LINE",
"432 306 LINE SMOOTH",
"490 306 OFFCURVE",
"517 286 OFFCURVE",
"517 233 CURVE SMOOTH",
"517 173 OFFCURVE",
"490 159 OFFCURVE",
"432 159 CURVE SMOOTH",
"264 159 LINE",
"264 0 LINE",
"471 0 LINE SMOOTH",
"650 0 OFFCURVE",
"731 73 OFFCURVE",
"731 191 CURVE SMOOTH",
"731 295 OFFCURVE",
"688 345 OFFCURVE",
"595 364 CURVE"
);
}
);
width = 768;
userData = {
RMXScaler = {
height = 107;
width = 107;
};
};
}
);
leftMetricsKey = H;
unicode = 0042;
userData = {
RMXScaler = {
source = B;
};
};
},
{
color = 7;
glyphname = C;
lastChange = "2017-07-18 14:28:26 +0000";
layers = (
{
background = {
paths = (
{
closed = 1;
nodes = (
"566 -15 OFFCURVE",
"665 85 OFFCURVE",
"688 220 CURVE SMOOTH",
"690 232 LINE",
"537 232 LINE",
"534 221 LINE SMOOTH",
"519 164 OFFCURVE",
"478 110 OFFCURVE",
"377 110 CURVE SMOOTH",
"267 110 OFFCURVE",
"196 182 OFFCURVE",
"196 336 CURVE SMOOTH",
"196 490 OFFCURVE",
"266 560 OFFCURVE",
"372 560 CURVE SMOOTH",
"480 560 OFFCURVE",
"519 501 OFFCURVE",
"535 444 CURVE SMOOTH",
"537 437 LINE",
"690 437 LINE",
"688 450 LINE SMOOTH",
"666 595 OFFCURVE",
"559 685 OFFCURVE",
"372 685 CURVE SMOOTH",
"185 685 OFFCURVE",
"43 571 OFFCURVE",
"43 336 CURVE SMOOTH",
"43 100 OFFCURVE",
"185 -15 OFFCURVE",
"377 -15 CURVE SMOOTH"
);
}
);
};
layerId = "C76CAC8E-7AD6-478C-8F7E-02FEF6F1EA84";
paths = (
{
closed = 1;
nodes = (
"611 -16 OFFCURVE",
"721 90 OFFCURVE",
"744 236 CURVE SMOOTH",
"746 249 LINE",
"593 249 LINE",
"590 237 LINE SMOOTH",
"572 167 OFFCURVE",
"523 109 OFFCURVE",
"410 109 CURVE SMOOTH",
"289 109 OFFCURVE",
"203 188 OFFCURVE",
"203 366 CURVE SMOOTH",
"203 544 OFFCURVE",
"288 622 OFFCURVE",
"405 622 CURVE SMOOTH",
"524 622 OFFCURVE",
"574 557 OFFCURVE",
"591 488 CURVE SMOOTH",
"593 480 LINE",
"746 480 LINE",
"744 494 LINE SMOOTH",
"722 649 OFFCURVE",
"604 747 OFFCURVE",
"405 747 CURVE SMOOTH",
"207 747 OFFCURVE",
"50 624 OFFCURVE",
"50 366 CURVE SMOOTH",
"50 107 OFFCURVE",
"207 -16 OFFCURVE",
"410 -16 CURVE SMOOTH"
);
}
);
width = 796;
},
{
background = {
paths = (
{
closed = 1;
nodes = (
"535 -15 OFFCURVE",
"622 70 OFFCURVE",
"659 191 CURVE SMOOTH",
"663 204 LINE",
"602 204 LINE",
"598 193 LINE SMOOTH",
"560 89 OFFCURVE",
"501 36 OFFCURVE",
"373 36 CURVE SMOOTH",
"245 36 OFFCURVE",
"119 114 OFFCURVE",
"119 335 CURVE SMOOTH",
"119 556 OFFCURVE",
"245 634 OFFCURVE",
"370 634 CURVE SMOOTH",
"492 634 OFFCURVE",
"565 575 OFFCURVE",
"599 473 CURVE SMOOTH",
"602 464 LINE",
"663 464 LINE",
"661 473 LINE SMOOTH",
"634 594 OFFCURVE",
"531 685 OFFCURVE",
"371 685 CURVE SMOOTH",
"211 685 OFFCURVE",
"57 583 OFFCURVE",
"57 335 CURVE SMOOTH",
"57 86 OFFCURVE",
"211 -15 OFFCURVE",
"374 -15 CURVE SMOOTH"
);
}
);
};
layerId = "0A1AFE58-107D-4787-BDA0-D82FB635C3A6";
paths = (
{
closed = 1;
nodes = (
"527 -15 OFFCURVE",
"614 70 OFFCURVE",
"651 191 CURVE SMOOTH",
"655 204 LINE",
"594 204 LINE",
"590 193 LINE SMOOTH",
"552 89 OFFCURVE",
"493 36 OFFCURVE",
"373 36 CURVE SMOOTH",
"253 36 OFFCURVE",
"127 114 OFFCURVE",
"127 335 CURVE SMOOTH",
"127 556 OFFCURVE",
"253 634 OFFCURVE",
"370 634 CURVE SMOOTH",
"484 634 OFFCURVE",
"557 575 OFFCURVE",
"591 473 CURVE SMOOTH",
"594 464 LINE",
"655 464 LINE",
"653 473 LINE SMOOTH",
"626 594 OFFCURVE",
"523 685 OFFCURVE",
"371 685 CURVE SMOOTH",
"219 685 OFFCURVE",
"65 583 OFFCURVE",
"65 335 CURVE SMOOTH",
"65 86 OFFCURVE",
"219 -15 OFFCURVE",
"374 -15 CURVE SMOOTH"
);
}
);
width = 720;
},
{
background = {
paths = (
{
closed = 1;
nodes = (
"576 -15 OFFCURVE",
"670 81 OFFCURVE",
"679 233 CURVE SMOOTH",
"680 254 LINE",
"479 254 LINE",
"476 242 LINE SMOOTH",
"466 201 OFFCURVE",
"448 158 OFFCURVE",
"370 158 CURVE SMOOTH",
"289 158 OFFCURVE",
"253 220 OFFCURVE",
"253 332 CURVE SMOOTH",
"253 443 OFFCURVE",
"290 512 OFFCURVE",
"370 512 CURVE SMOOTH",
"449 512 OFFCURVE",
"466 469 OFFCURVE",
"476 428 CURVE SMOOTH",
"479 416 LINE",
"680 416 LINE",
"679 437 LINE SMOOTH",
"671 581 OFFCURVE",
"575 685 OFFCURVE",
"370 685 CURVE SMOOTH",
"151 685 OFFCURVE",
"35 556 OFFCURVE",
"35 332 CURVE SMOOTH",
"35 116 OFFCURVE",
"151 -15 OFFCURVE",
"370 -15 CURVE SMOOTH"
);
}
);
};
layerId = "84435905-EDCB-4949-A8A3-0E53308A2F50";
paths = (
{
closed = 1;
nodes = (
"623 -16 OFFCURVE",
"731 89 OFFCURVE",
"740 250 CURVE SMOOTH",
"741 271 LINE",
"534 271 LINE",
"531 258 LINE SMOOTH",
"519 208 OFFCURVE",
"493 157 OFFCURVE",
"404 157 CURVE SMOOTH",
"308 157 OFFCURVE",
"263 218 OFFCURVE",
"263 363 CURVE SMOOTH",
"263 506 OFFCURVE",
"309 574 OFFCURVE",
"403 574 CURVE SMOOTH",
"494 574 OFFCURVE",
"518 521 OFFCURVE",
"531 471 CURVE SMOOTH",
"534 459 LINE",
"741 459 LINE",
"740 480 LINE SMOOTH",
"732 637 OFFCURVE",
"621 747 OFFCURVE",
"403 747 CURVE SMOOTH",
"173 747 OFFCURVE",
"40 610 OFFCURVE",
"40 363 CURVE SMOOTH",
"40 122 OFFCURVE",
"173 -16 OFFCURVE",
"404 -16 CURVE SMOOTH"
);
}
);
width = 781;
userData = {
RMXScaler = {
height = 107;
width = 107;
};
};
}
);
leftMetricsKey = O;
rightMetricsKey = O;
unicode = 0043;
userData = {
RMXScaler = {
source = C;
};
};
},
{
color = 7;
glyphname = D;
lastChange = "2017-07-18 14:28:26 +0000";
layers = (
{
background = {
paths = (
{
closed = 1;
nodes = (
"227 0 LINE",
"227 670 LINE",
"79 670 LINE",
"79 0 LINE"
);
},
{
closed = 1;
nodes = (
"194 125 LINE",
"194 0 LINE",
"341 0 LINE SMOOTH",
"558 0 OFFCURVE",
"678 111 OFFCURVE",
"678 335 CURVE SMOOTH",
"678 561 OFFCURVE",
"557 670 OFFCURVE",
"351 670 CURVE SMOOTH",
"194 670 LINE",
"194 545 LINE",
"338 545 LINE SMOOTH",
"452 545 OFFCURVE",
"525 497 OFFCURVE",
"525 335 CURVE SMOOTH",
"525 173 OFFCURVE",
"452 125 OFFCURVE",
"338 125 CURVE SMOOTH"
);
}
);
};
layerId = "C76CAC8E-7AD6-478C-8F7E-02FEF6F1EA84";
paths = (
{
closed = 1;
nodes = (
"238 0 LINE",
"238 730 LINE",
"90 730 LINE",
"90 0 LINE"
);
},
{
closed = 1;
nodes = (
"202 125 LINE",
"202 0 LINE",
"362 0 LINE SMOOTH",
"600 0 OFFCURVE",
"732 119 OFFCURVE",
"732 365 CURVE SMOOTH",
"732 613 OFFCURVE",
"599 730 OFFCURVE",
"373 730 CURVE SMOOTH",
"202 730 LINE",
"202 605 LINE",
"362 605 LINE SMOOTH",
"493 605 OFFCURVE",
"579 550 OFFCURVE",
"579 365 CURVE SMOOTH",
"579 180 OFFCURVE",
"493 125 OFFCURVE",
"362 125 CURVE SMOOTH"
);
}
);
width = 782;
},
{
background = {
paths = (
{
closed = 1;
nodes = (
"170 0 LINE",
"170 670 LINE",
"110 670 LINE",
"110 0 LINE"
);
},
{
closed = 1;
nodes = (
"137 51 LINE",
"137 0 LINE",
"296 0 LINE SMOOTH",
"524 0 OFFCURVE",
"651 100 OFFCURVE",
"651 335 CURVE SMOOTH",
"651 572 OFFCURVE",
"523 670 OFFCURVE",
"306 670 CURVE SMOOTH",
"137 670 LINE",
"137 619 LINE",
"313 619 LINE SMOOTH",
"477 619 OFFCURVE",
"589 554 OFFCURVE",
"589 335 CURVE SMOOTH",
"589 116 OFFCURVE",
"477 51 OFFCURVE",
"313 51 CURVE SMOOTH"
);
}
);
};
layerId = "0A1AFE58-107D-4787-BDA0-D82FB635C3A6";
paths = (
{
closed = 1;
nodes = (
"170 0 LINE",
"170 670 LINE",
"110 670 LINE",
"110 0 LINE"
);
},
{
closed = 1;
nodes = (
"137 51 LINE",
"137 0 LINE",
"281 0 LINE SMOOTH",
"509 0 OFFCURVE",
"636 100 OFFCURVE",
"636 335 CURVE SMOOTH",
"636 572 OFFCURVE",
"508 670 OFFCURVE",
"291 670 CURVE SMOOTH",
"137 670 LINE",
"137 619 LINE",
"298 619 LINE SMOOTH",
"462 619 OFFCURVE",
"574 554 OFFCURVE",
"574 335 CURVE SMOOTH",
"574 116 OFFCURVE",
"462 51 OFFCURVE",
"298 51 CURVE SMOOTH"
);
}
);
width = 701;
},
{
background = {
paths = (
{
closed = 1;
nodes = (
"278 0 LINE",
"278 670 LINE",
"64 670 LINE",
"64 0 LINE"
);
},
{
closed = 1;
nodes = (
"246 168 LINE",
"246 0 LINE",
"374 0 LINE SMOOTH",
"586 0 OFFCURVE",
"710 111 OFFCURVE",
"710 335 CURVE SMOOTH",
"710 561 OFFCURVE",
"585 670 OFFCURVE",
"384 670 CURVE SMOOTH",
"246 670 LINE",
"246 502 LINE",
"356 502 LINE SMOOTH",
"449 502 OFFCURVE",
"492 454 OFFCURVE",
"492 335 CURVE SMOOTH",
"492 216 OFFCURVE",
"449 168 OFFCURVE",
"356 168 CURVE SMOOTH"
);
}
);
};
layerId = "84435905-EDCB-4949-A8A3-0E53308A2F50";
paths = (
{
closed = 1;
nodes = (
"291 0 LINE",
"291 730 LINE",
"73 730 LINE",
"73 0 LINE"
);
},
{
closed = 1;
nodes = (
"251 168 LINE",
"251 0 LINE",
"394 0 LINE SMOOTH",
"626 0 OFFCURVE",
"761 121 OFFCURVE",
"761 365 CURVE SMOOTH",
"761 612 OFFCURVE",
"625 730 OFFCURVE",
"405 730 CURVE SMOOTH",
"251 730 LINE",
"251 562 LINE",
"378 562 LINE SMOOTH",
"486 562 OFFCURVE",
"538 509 OFFCURVE",
"538 365 CURVE SMOOTH",
"538 221 OFFCURVE",
"486 168 OFFCURVE",
"378 168 CURVE SMOOTH"
);
}
);
width = 801;
userData = {
RMXScaler = {
height = 107;
width = 107;
};
};
}
);
leftMetricsKey = H;
rightMetricsKey = O;
unicode = 0044;
userData = {
RMXScaler = {
source = D;
};
};
},
{
color = 4;
glyphname = E;
lastChange = "2017-07-18 14:40:35 +0000";
layers = (
{
background = {
paths = (
{
closed = 1;
nodes = (
"222 0 LINE",
"222 670 LINE",
"79 670 LINE",
"79 0 LINE"
);
},
{
closed = 1;
nodes = (
"594 0 LINE",
"594 125 LINE",
"174 125 LINE",
"174 0 LINE"
);
},
{
closed = 1;
nodes = (
"594 545 LINE",
"594 670 LINE",
"174 670 LINE",
"174 545 LINE"
);
},
{
closed = 1;
nodes = (
"534 275 LINE",
"534 390 LINE",
"174 390 LINE",
"174 275 LINE"
);
}
);
};
layerId = "C76CAC8E-7AD6-478C-8F7E-02FEF6F1EA84";
paths = (
{
closed = 1;
nodes = (
"233 0 LINE",
"233 730 LINE",
"90 730 LINE",
"90 0 LINE"
);
},
{
closed = 1;
nodes = (
"641 0 LINE",
"641 125 LINE",
"186 125 LINE",
"186 0 LINE"
);
},
{
closed = 1;
nodes = (
"641 605 LINE",
"641 730 LINE",
"186 730 LINE",
"186 605 LINE"
);
},
{
closed = 1;
nodes = (
"576 306 LINE",
"576 421 LINE",
"186 421 LINE",
"186 306 LINE"
);
}
);
width = 696;
},
{
background = {
paths = (
{
closed = 1;
nodes = (
"158 0 LINE",
"158 670 LINE",
"99 670 LINE",
"99 0 LINE"
);
},
{
closed = 1;
nodes = (
"547 0 LINE",
"547 54 LINE",
"144 54 LINE",
"144 0 LINE"
);
},
{
closed = 1;
nodes = (
"547 616 LINE",
"547 670 LINE",
"144 670 LINE",
"144 616 LINE"
);
},
{
closed = 1;
nodes = (
"484 317 LINE",
"484 367 LINE",
"144 367 LINE",
"144 317 LINE"
);
}
);
};
layerId = "0A1AFE58-107D-4787-BDA0-D82FB635C3A6";
paths = (
{
closed = 1;
nodes = (
"169 0 LINE",
"169 729 LINE",
"110 729 LINE",
"110 0 LINE"
);
},
{
closed = 1;
nodes = (
"592 0 LINE",
"592 55 LINE",
"156 55 LINE",
"156 0 LINE"
);
},
{
closed = 1;
nodes = (
"592 674 LINE",
"592 729 LINE",
"156 729 LINE",
"156 674 LINE"
);
},
{
closed = 1;
nodes = (
"524 346 LINE",
"524 397 LINE",
"156 397 LINE",
"156 346 LINE"
);
}
);
width = 669;
userData = {
RMXScaler = {
height = 109;
width = 109;
};
};
},
{
background = {
paths = (
{
closed = 1;
nodes = (
"278 0 LINE",
"278 670 LINE",
"64 670 LINE",
"64 0 LINE"
);
},
{
closed = 1;
nodes = (
"611 0 LINE",
"611 168 LINE",
"179 168 LINE",
"179 0 LINE"
);
},
{
closed = 1;
nodes = (
"611 502 LINE",
"611 670 LINE",
"179 670 LINE",
"179 502 LINE"
);
},
{
closed = 1;
nodes = (
"552 262 LINE",
"552 407 LINE",
"179 407 LINE",
"179 262 LINE"
);
}
);
};
layerId = "84435905-EDCB-4949-A8A3-0E53308A2F50";
paths = (
{
closed = 1;
nodes = (
"287 0 LINE",
"287 730 LINE",
"73 730 LINE",
"73 0 LINE"
);
},
{
closed = 1;
nodes = (
"659 0 LINE",
"659 170 LINE",
"192 170 LINE",
"192 0 LINE"
);
},
{
closed = 1;
nodes = (
"659 560 LINE",
"659 730 LINE",
"192 730 LINE",
"192 560 LINE"
);
},
{
closed = 1;
nodes = (
"595 290 LINE",
"595 439 LINE",
"192 439 LINE",
"192 290 LINE"
);
}
);
width = 709;
}
);
leftMetricsKey = "=H";
unicode = 0045;
userData = {
RMXScaler = {
source = E;
};
};
},
{
color = 7;
glyphname = F;
lastChange = "2017-07-18 14:28:26 +0000";
layers = (
{
background = {
paths = (
{
closed = 1;
nodes = (
"222 0 LINE",
"222 670 LINE",
"79 670 LINE",
"79 0 LINE"
);
},
{
closed = 1;
nodes = (
"569 545 LINE",
"569 670 LINE",
"174 670 LINE",
"174 545 LINE"
);
},
{
closed = 1;
nodes = (
"509 253 LINE",
"509 370 LINE",
"174 370 LINE",
"174 253 LINE"
);
}
);
};
layerId = "C76CAC8E-7AD6-478C-8F7E-02FEF6F1EA84";
paths = (
{
closed = 1;
nodes = (
"236 0 LINE",
"236 730 LINE",
"90 730 LINE",
"90 0 LINE"
);
},
{
closed = 1;
nodes = (
"616 605 LINE",
"616 730 LINE",
"189 730 LINE",
"189 605 LINE"
);
},
{
closed = 1;
nodes = (
"550 284 LINE",
"550 401 LINE",
"189 401 LINE",
"189 284 LINE"
);
}
);
width = 631;
},
{
background = {
paths = (
{
closed = 1;
nodes = (
"169 0 LINE",
"169 670 LINE",
"110 670 LINE",
"110 0 LINE"
);
},
{
closed = 1;
nodes = (
"555 616 LINE",
"555 670 LINE",
"155 670 LINE",
"155 616 LINE"
);
},
{
closed = 1;
nodes = (
"492 309 LINE",
"492 359 LINE",
"155 359 LINE",
"155 309 LINE"
);
}
);
};
layerId = "0A1AFE58-107D-4787-BDA0-D82FB635C3A6";
paths = (
{
closed = 1;
nodes = (
"169 0 LINE",
"169 670 LINE",
"110 670 LINE",
"110 0 LINE"
);
},
{
closed = 1;
nodes = (
"545 616 LINE",
"545 670 LINE",
"155 670 LINE",
"155 616 LINE"
);
},
{
closed = 1;
nodes = (
"482 309 LINE",
"482 359 LINE",
"155 359 LINE",
"155 309 LINE"
);
}
);
width = 565;
},
{
background = {
paths = (
{
closed = 1;
nodes = (
"273 0 LINE",
"273 670 LINE",
"64 670 LINE",
"64 0 LINE"
);
},
{
closed = 1;
nodes = (
"596 497 LINE",
"596 670 LINE",
"179 670 LINE",
"179 497 LINE"
);
},
{
closed = 1;
nodes = (
"537 229 LINE",
"537 379 LINE",
"179 379 LINE",
"179 229 LINE"
);
}
);
};
layerId = "84435905-EDCB-4949-A8A3-0E53308A2F50";
paths = (
{
closed = 1;
nodes = (
"291 0 LINE",
"291 730 LINE",
"73 730 LINE",
"73 0 LINE"
);
},
{
closed = 1;
nodes = (
"641 557 LINE",
"641 730 LINE",
"193 730 LINE",
"193 557 LINE"
);
},
{
closed = 1;
nodes = (
"576 257 LINE",
"576 411 LINE",
"193 411 LINE",
"193 257 LINE"
);
}
);
width = 661;
userData = {
RMXScaler = {
height = 107;
width = 107;
};
};
}
);
leftMetricsKey = H;
unicode = 0046;
userData = {
RMXScaler = {
source = F;
};
};
},
{
color = 7;
glyphname = G;
lastChange = "2017-07-18 14:28:26 +0000";
layers = (
{
background = {
paths = (
{
closed = 1;
nodes = (
"455 -15 OFFCURVE",
"524 37 OFFCURVE",
"557 101 CURVE",
"592 101 LINE",
"592 252 LINE",
"559 252 LINE",
"539 174 OFFCURVE",
"483 107 OFFCURVE",
"379 107 CURVE SMOOTH",
"262 107 OFFCURVE",
"195 182 OFFCURVE",
"195 336 CURVE SMOOTH",
"195 490 OFFCURVE",
"266 560 OFFCURVE",
"379 560 CURVE SMOOTH",
"467 560 OFFCURVE",
"516 520 OFFCURVE",
"535 468 CURVE SMOOTH",
"539 457 LINE",
"692 457 LINE",
"688 476 LINE SMOOTH",
"664 589 OFFCURVE",
"566 685 OFFCURVE",
"379 685 CURVE SMOOTH",
"185 685 OFFCURVE",
"43 571 OFFCURVE",
"43 336 CURVE SMOOTH",
"43 100 OFFCURVE",
"180 -15 OFFCURVE",
"344 -15 CURVE SMOOTH"
);
},
{
closed = 1;
nodes = (
"697 242 LINE",
"697 354 LINE",
"403 354 LINE",
"403 242 LINE"
);
},
{
closed = 1;
nodes = (
"697 0 LINE",
"697 270 LINE",
"559 270 LINE",
"559 128 LINE",
"579 0 LINE"
);
}
);
};
layerId = "C76CAC8E-7AD6-478C-8F7E-02FEF6F1EA84";
paths = (
{
closed = 1;
nodes = (
"504 -16 OFFCURVE",
"579 46 OFFCURVE",
"614 115 CURVE",
"652 115 LINE",
"652 276 LINE",
"617 276 LINE",
"594 183 OFFCURVE",
"529 106 OFFCURVE",
"411 106 CURVE SMOOTH",
"284 106 OFFCURVE",
"202 188 OFFCURVE",
"202 366 CURVE SMOOTH",
"202 544 OFFCURVE",
"288 622 OFFCURVE",
"411 622 CURVE SMOOTH",
"511 622 OFFCURVE",
"568 576 OFFCURVE",
"591 512 CURVE SMOOTH",
"595 501 LINE",
"748 501 LINE",
"744 520 LINE SMOOTH",
"718 645 OFFCURVE",
"610 747 OFFCURVE",
"412 747 CURVE SMOOTH",
"207 747 OFFCURVE",
"50 624 OFFCURVE",
"50 366 CURVE SMOOTH",
"50 107 OFFCURVE",
"202 -16 OFFCURVE",
"378 -16 CURVE SMOOTH"
);
},
{
closed = 1;
nodes = (
"755 268 LINE",
"755 380 LINE",
"442 380 LINE",
"442 268 LINE"
);
},
{
closed = 1;
nodes = (
"755 0 LINE",
"755 296 LINE",
"617 296 LINE",
"617 140 LINE",
"637 0 LINE"
);
}
);
width = 825;
},
{
background = {
paths = (
{
closed = 1;
nodes = (
"509 -15 OFFCURVE",
"587 76 OFFCURVE",
"614 131 CURVE",
"646 131 LINE",
"646 258 LINE",
"618 258 LINE",
"592 129 OFFCURVE",
"509 35 OFFCURVE",
"367 35 CURVE SMOOTH",
"245 35 OFFCURVE",
"119 115 OFFCURVE",
"119 335 CURVE SMOOTH",
"119 556 OFFCURVE",
"245 634 OFFCURVE",
"368 634 CURVE SMOOTH",
"489 634 OFFCURVE",
"566 581 OFFCURVE",
"599 482 CURVE SMOOTH",
"602 473 LINE",
"663 473 LINE",
"660 485 LINE SMOOTH",
"628 612 OFFCURVE",
"525 685 OFFCURVE",
"370 685 CURVE SMOOTH",
"211 685 OFFCURVE",
"57 583 OFFCURVE",
"57 335 CURVE SMOOTH",
"57 86 OFFCURVE",
"211 -15 OFFCURVE",
"367 -15 CURVE SMOOTH"
);
},
{
closed = 1;
nodes = (
"671 273 LINE",
"671 320 LINE",
"420 320 LINE",
"420 273 LINE"
);
},
{
closed = 1;
nodes = (
"671 0 LINE",
"671 284 LINE",
"618 284 LINE",
"618 131 LINE",
"626 0 LINE"
);
}
);
};
layerId = "0A1AFE58-107D-4787-BDA0-D82FB635C3A6";
paths = (
{
closed = 1;
nodes = (
"508 -15 OFFCURVE",
"579 76 OFFCURVE",
"606 131 CURVE",
"638 131 LINE",
"638 258 LINE",
"610 258 LINE",
"584 129 OFFCURVE",
"501 35 OFFCURVE",
"367 35 CURVE SMOOTH",
"253 35 OFFCURVE",
"127 115 OFFCURVE",
"127 335 CURVE SMOOTH",
"127 556 OFFCURVE",
"253 634 OFFCURVE",
"368 634 CURVE SMOOTH",
"481 634 OFFCURVE",
"558 581 OFFCURVE",
"591 482 CURVE SMOOTH",
"594 473 LINE",
"655 473 LINE",
"652 485 LINE SMOOTH",
"620 612 OFFCURVE",
"517 685 OFFCURVE",
"370 685 CURVE SMOOTH",
"219 685 OFFCURVE",
"65 583 OFFCURVE",
"65 335 CURVE SMOOTH",
"65 86 OFFCURVE",
"219 -15 OFFCURVE",
"367 -15 CURVE SMOOTH"
);
},
{
closed = 1;
nodes = (
"663 273 LINE",
"663 320 LINE",
"420 320 LINE",
"420 273 LINE"
);
},
{
closed = 1;
nodes = (
"663 0 LINE",
"663 284 LINE",
"610 284 LINE",
"610 131 LINE",
"618 0 LINE"
);
}
);
width = 743;
},
{
background = {
paths = (
{
closed = 1;
nodes = (
"444 -15 OFFCURVE",
"499 37 OFFCURVE",
"522 94 CURVE",
"563 94 LINE",
"563 256 LINE",
"520 256 LINE",
"509 190 OFFCURVE",
"466 149 OFFCURVE",
"388 149 CURVE SMOOTH",
"288 149 OFFCURVE",
"253 211 OFFCURVE",
"253 332 CURVE SMOOTH",
"253 443 OFFCURVE",
"290 512 OFFCURVE",
"379 512 CURVE SMOOTH",
"456 512 OFFCURVE",
"479 484 OFFCURVE",
"494 452 CURVE SMOOTH",
"497 445 LINE",
"697 445 LINE",
"695 462 LINE SMOOTH",
"680 584 OFFCURVE",
"593 685 OFFCURVE",
"379 685 CURVE SMOOTH",
"151 685 OFFCURVE",
"35 556 OFFCURVE",
"35 332 CURVE SMOOTH",
"35 116 OFFCURVE",
"142 -15 OFFCURVE",
"340 -15 CURVE SMOOTH"
);
},
{
closed = 1;
nodes = (
"707 238 LINE",
"707 371 LINE",
"390 371 LINE",
"390 238 LINE"
);
},
{
closed = 1;
nodes = (
"707 0 LINE",
"707 270 LINE",
"520 270 LINE",
"520 127 LINE",
"553 0 LINE"
);
}
);
};
layerId = "84435905-EDCB-4949-A8A3-0E53308A2F50";
paths = (
{
closed = 1;
nodes = (
"485 -16 OFFCURVE",
"548 42 OFFCURVE",
"576 105 CURVE",
"621 105 LINE",
"621 278 LINE",
"575 278 LINE",
"560 202 OFFCURVE",
"509 149 OFFCURVE",
"419 149 CURVE SMOOTH",
"307 149 OFFCURVE",
"263 221 OFFCURVE",
"263 363 CURVE SMOOTH",
"263 506 OFFCURVE",
"309 574 OFFCURVE",
"412 574 CURVE SMOOTH",
"497 574 OFFCURVE",
"531 539 OFFCURVE",
"547 497 CURVE SMOOTH",
"550 489 LINE",
"756 489 LINE",
"754 507 LINE SMOOTH",
"738 638 OFFCURVE",
"638 747 OFFCURVE",
"412 747 CURVE SMOOTH",
"173 747 OFFCURVE",
"40 610 OFFCURVE",
"40 363 CURVE SMOOTH",
"40 122 OFFCURVE",
"164 -16 OFFCURVE",
"371 -16 CURVE SMOOTH"
);
},
{
closed = 1;
nodes = (
"766 261 LINE",
"766 399 LINE",
"428 399 LINE",
"428 261 LINE"
);
},
{
closed = 1;
nodes = (
"766 0 LINE",
"766 295 LINE",
"575 295 LINE",
"575 139 LINE",
"609 0 LINE"
);
}
);
width = 831;
userData = {
RMXScaler = {
height = 107;
width = 107;
};
};
}
);
leftMetricsKey = O;
unicode = 0047;
userData = {
RMXScaler = {
source = G;
};
};
},
{
color = 4;
glyphname = H;
lastChange = "2017-07-18 14:40:35 +0000";
layers = (
{
background = {
paths = (
{
closed = 1;
nodes = (
"672 0 LINE",
"672 670 LINE",
"524 670 LINE",
"524 0 LINE"
);
},
{
closed = 1;
nodes = (
"227 0 LINE",
"227 670 LINE",
"79 670 LINE",
"79 0 LINE"
);
},
{
closed = 1;
nodes = (
"607 272 LINE",
"607 397 LINE",
"137 397 LINE",
"137 272 LINE"
);
}
);
};
layerId = "C76CAC8E-7AD6-478C-8F7E-02FEF6F1EA84";
paths = (
{
closed = 1;
nodes = (
"725 0 LINE",
"725 730 LINE",
"577 730 LINE",
"577 0 LINE"
);
},
{
closed = 1;
nodes = (
"238 0 LINE",
"238 730 LINE",
"90 730 LINE",
"90 0 LINE"
);
},
{
closed = 1;
nodes = (
"660 304 LINE",
"660 429 LINE",
"150 429 LINE",
"150 304 LINE"
);
}
);
width = 815;
},
{
background = {
paths = (
{
closed = 1;
nodes = (
"620 0 LINE",
"620 670 LINE",
"560 670 LINE",
"560 0 LINE"
);
},
{
closed = 1;
nodes = (
"159 0 LINE",
"159 670 LINE",
"99 670 LINE",
"99 0 LINE"
);
},
{
closed = 1;
nodes = (
"588 317 LINE",
"588 369 LINE",
"135 369 LINE",
"135 317 LINE"
);
}
);
};
layerId = "0A1AFE58-107D-4787-BDA0-D82FB635C3A6";
paths = (
{
closed = 1;
nodes = (
"671 0 LINE",
"671 729 LINE",
"611 729 LINE",
"611 0 LINE"
);
},
{
closed = 1;
nodes = (
"170 0 LINE",
"170 729 LINE",
"110 729 LINE",
"110 0 LINE"
);
},
{
closed = 1;
nodes = (
"638 346 LINE",
"638 399 LINE",
"148 399 LINE",
"148 346 LINE"
);
}
);
width = 781;
userData = {
RMXScaler = {
height = 109;
width = 109;
};
};
},
{
background = {
paths = (
{
closed = 1;
nodes = (
"703 0 LINE",
"703 670 LINE",
"483 670 LINE",
"483 0 LINE"
);
},
{
closed = 1;
nodes = (
"283 0 LINE",
"283 670 LINE",
"64 670 LINE",
"64 0 LINE"
);
},
{
closed = 1;
nodes = (
"588 250 LINE",
"588 419 LINE",
"202 419 LINE",
"202 250 LINE"
);
}
);
};
layerId = "84435905-EDCB-4949-A8A3-0E53308A2F50";
paths = (
{
closed = 1;
nodes = (
"756 0 LINE",
"756 730 LINE",
"536 730 LINE",
"536 0 LINE"
);
},
{
closed = 1;
nodes = (
"293 0 LINE",
"293 730 LINE",
"73 730 LINE",
"73 0 LINE"
);
},
{
closed = 1;
nodes = (
"644 280 LINE",
"644 450 LINE",
"203 450 LINE",
"203 280 LINE"
);
}
);
width = 829;
}
);
unicode = 0048;
userData = {
RMXScaler = {
source = H;
};
};
},
{
color = 4;
glyphname = I;
lastChange = "2017-07-18 14:40:35 +0000";
layers = (
{
layerId = "C76CAC8E-7AD6-478C-8F7E-02FEF6F1EA84";
paths = (
{
closed = 1;
nodes = (
"238 0 LINE",
"238 730 LINE",
"90 730 LINE",
"90 0 LINE"
);
}
);
width = 328;
},
{
background = {
paths = (
{
closed = 1;
nodes = (
"170 0 LINE",
"170 670 LINE",
"110 670 LINE",
"110 0 LINE"
);
}
);
};
layerId = "0A1AFE58-107D-4787-BDA0-D82FB635C3A6";
paths = (
{
closed = 1;
nodes = (
"170 0 LINE",
"170 730 LINE",
"110 730 LINE",
"110 0 LINE"
);
}
);
width = 280;
},
{
background = {
paths = (
{
closed = 1;
nodes = (
"292 0 LINE",
"292 670 LINE",
"73 670 LINE",
"73 0 LINE"
);
}
);
};
layerId = "84435905-EDCB-4949-A8A3-0E53308A2F50";
paths = (
{
closed = 1;
nodes = (
"292 0 LINE",
"292 730 LINE",
"73 730 LINE",
"73 0 LINE"
);
}
);
width = 365;
}
);
leftMetricsKey = "=H";
rightMetricsKey = "=H";
unicode = 0049;
userData = {
RMXScaler = {
source = I;
};
};
},
{
color = 7;
glyphname = J;
lastChange = "2017-07-18 14:28:26 +0000";
layers = (
{
background = {
paths = (
{
closed = 1;
nodes = (
"202 110 OFFCURVE",
"173 146 OFFCURVE",
"162 223 CURVE SMOOTH",
"161 230 LINE",
"13 230 LINE",
"14 215 LINE SMOOTH",
"24 65 OFFCURVE",
"113 -15 OFFCURVE",
"274 -15 CURVE SMOOTH",
"447 -15 OFFCURVE",
"539 61 OFFCURVE",
"539 261 CURVE SMOOTH",
"539 670 LINE",
"391 670 LINE",
"391 259 LINE SMOOTH",
"391 154 OFFCURVE",
"360 110 OFFCURVE",
"279 110 CURVE SMOOTH"
);
}
);
};
layerId = "C76CAC8E-7AD6-478C-8F7E-02FEF6F1EA84";
paths = (
{
closed = 1;
nodes = (
"212 109 OFFCURVE",
"174 152 OFFCURVE",
"165 237 CURVE SMOOTH",
"164 246 LINE",
"15 246 LINE",
"16 229 LINE SMOOTH",
"25 71 OFFCURVE",
"123 -16 OFFCURVE",
"295 -16 CURVE SMOOTH",
"479 -16 OFFCURVE",
"578 68 OFFCURVE",
"578 286 CURVE SMOOTH",
"578 730 LINE",
"430 730 LINE",
"430 284 LINE SMOOTH",
"430 158 OFFCURVE",
"391 109 OFFCURVE",
"299 109 CURVE SMOOTH"
);
}
);
width = 658;
},
{
background = {
paths = (
{
closed = 1;
nodes = (
"141 36 OFFCURVE",
"93 95 OFFCURVE",
"78 179 CURVE SMOOTH",
"75 196 LINE",
"14 196 LINE",
"17 179 LINE SMOOTH",
"37 65 OFFCURVE",
"105 -15 OFFCURVE",
"247 -15 CURVE SMOOTH",
"395 -15 OFFCURVE",
"485 70 OFFCURVE",
"485 270 CURVE SMOOTH",
"485 670 LINE",
"425 670 LINE",
"425 268 LINE SMOOTH",
"425 90 OFFCURVE",
"358 36 OFFCURVE",
"246 36 CURVE SMOOTH"
);
}
);
};
layerId = "0A1AFE58-107D-4787-BDA0-D82FB635C3A6";
paths = (
{
closed = 1;
nodes = (
"146 36 OFFCURVE",
"99 95 OFFCURVE",
"84 179 CURVE SMOOTH",
"81 196 LINE",
"20 196 LINE",
"23 179 LINE SMOOTH",
"43 65 OFFCURVE",
"110 -15 OFFCURVE",
"247 -15 CURVE SMOOTH",
"390 -15 OFFCURVE",
"480 70 OFFCURVE",
"480 270 CURVE SMOOTH",
"480 670 LINE",
"420 670 LINE",
"420 268 LINE SMOOTH",
"420 90 OFFCURVE",
"353 36 OFFCURVE",
"246 36 CURVE SMOOTH"
);
}
);
width = 580;
},
{
background = {
paths = (
{
closed = 1;
nodes = (
"233 158 OFFCURVE",
"218 191 OFFCURVE",
"212 253 CURVE SMOOTH",
"211 265 LINE",
"3 265 LINE",
"4 239 LINE SMOOTH",
"10 72 OFFCURVE",
"86 -15 OFFCURVE",
"298 -15 CURVE SMOOTH",
"474 -15 OFFCURVE",
"579 70 OFFCURVE",
"579 270 CURVE SMOOTH",
"579 670 LINE",
"365 670 LINE",
"365 268 LINE SMOOTH",
"365 193 OFFCURVE",
"348 158 OFFCURVE",
"289 158 CURVE SMOOTH"
);
}
);
};
layerId = "84435905-EDCB-4949-A8A3-0E53308A2F50";
paths = (
{
closed = 1;
nodes = (
"243 157 OFFCURVE",
"224 195 OFFCURVE",
"218 267 CURVE SMOOTH",
"217 279 LINE",
"5 279 LINE",
"6 254 LINE SMOOTH",
"13 77 OFFCURVE",
"99 -16 OFFCURVE",
"317 -16 CURVE SMOOTH",
"507 -16 OFFCURVE",
"619 74 OFFCURVE",
"619 292 CURVE SMOOTH",
"619 730 LINE",
"399 730 LINE",
"399 290 LINE SMOOTH",
"399 198 OFFCURVE",
"376 157 OFFCURVE",
"310 157 CURVE SMOOTH"
);
}
);
width = 684;
userData = {
RMXScaler = {
height = 107;
width = 107;
};
};
}
);
rightMetricsKey = U;
unicode = 004A;
userData = {
RMXScaler = {
source = J;
};
};
},
{
color = 7;
glyphname = K;
lastChange = "2017-07-18 14:28:26 +0000";
layers = (
{
background = {
paths = (
{
closed = 1;
nodes = (
"280 272 LINE",
"662 670 LINE",
"487 670 LINE",
"233 393 LINE",
"210 393 LINE",
"210 272 LINE"
);
},
{
closed = 1;
nodes = (
"227 0 LINE",
"227 670 LINE",
"79 670 LINE",
"79 0 LINE"
);
},
{
closed = 1;
nodes = (
"667 0 LINE",
"353 380 LINE",
"239 314 LINE",
"494 0 LINE"
);
}
);
};
layerId = "C76CAC8E-7AD6-478C-8F7E-02FEF6F1EA84";
paths = (
{
closed = 1;
nodes = (
"293 303 LINE",
"710 730 LINE",
"535 730 LINE",
"244 423 LINE",
"219 423 LINE",
"219 303 LINE"
);
},
{
closed = 1;
nodes = (
"238 0 LINE",
"238 730 LINE",
"90 730 LINE",
"90 0 LINE"
);
},
{
closed = 1;
nodes = (
"716 0 LINE",
"364 413 LINE",
"251 345 LINE",
"543 0 LINE"
);
}
);
width = 721;
},
{
background = {
paths = (
{
closed = 1;
nodes = (
"204 317 LINE",
"604 670 LINE",
"526 670 LINE",
"173 358 LINE",
"149 358 LINE",
"149 317 LINE"
);
},
{
closed = 1;
nodes = (
"170 0 LINE",
"170 670 LINE",
"110 670 LINE",
"110 0 LINE"
);
},
{
closed = 1;
nodes = (
"614 0 LINE",
"216 371 LINE",
"177 331 LINE",
"535 0 LINE"
);
}
);
};
layerId = "0A1AFE58-107D-4787-BDA0-D82FB635C3A6";
paths = (
{
closed = 1;
nodes = (
"204 317 LINE",
"589 670 LINE",
"515 670 LINE",
"173 358 LINE",
"149 358 LINE",
"149 317 LINE"
);
},
{
closed = 1;
nodes = (
"170 0 LINE",
"170 670 LINE",
"110 670 LINE",
"110 0 LINE"
);
},
{
closed = 1;
nodes = (
"599 0 LINE",
"216 371 LINE",
"177 331 LINE",
"524 0 LINE"
);
}
);
width = 609;
},
{
background = {
paths = (
{
closed = 1;
nodes = (
"403 250 LINE",
"710 670 LINE",
"476 670 LINE",
"284 400 LINE",
"244 400 LINE",
"244 250 LINE"
);
},
{
closed = 1;
nodes = (
"277 0 LINE",
"277 670 LINE",
"63 670 LINE",
"63 0 LINE"
);
},
{
closed = 1;
nodes = (
"715 0 LINE",
"479 405 LINE",
"302 301 LINE",
"476 0 LINE"
);
}
);
};
layerId = "84435905-EDCB-4949-A8A3-0E53308A2F50";
paths = (
{
closed = 1;
nodes = (
"411 279 LINE",
"758 730 LINE",
"525 730 LINE",
"301 433 LINE",
"259 433 LINE",
"259 279 LINE"
);
},
{
closed = 1;
nodes = (
"292 0 LINE",
"292 730 LINE",
"73 730 LINE",
"73 0 LINE"
);
},
{
closed = 1;
nodes = (
"764 0 LINE",
"490 435 LINE",
"316 332 LINE",
"529 0 LINE"
);
}
);
width = 769;
userData = {
RMXScaler = {
height = 107;
width = 107;
};
};
}
);
leftMetricsKey = H;
unicode = 004B;
userData = {
RMXScaler = {
source = K;
};
};
},
{
color = 7;
glyphname = L;
lastChange = "2017-07-18 14:28:26 +0000";
layers = (
{
background = {
paths = (
{
closed = 1;
nodes = (
"227 0 LINE",
"227 670 LINE",
"79 670 LINE",
"79 0 LINE"
);
},
{
closed = 1;
nodes = (
"532 0 LINE",
"532 125 LINE",
"174 125 LINE",
"174 0 LINE"
);
}
);
};
layerId = "C76CAC8E-7AD6-478C-8F7E-02FEF6F1EA84";
paths = (
{
closed = 1;
nodes = (
"238 0 LINE",
"238 730 LINE",
"90 730 LINE",
"90 0 LINE"
);
},
{
closed = 1;
nodes = (
"574 0 LINE",
"574 125 LINE",
"188 125 LINE",
"188 0 LINE"
);
}
);
width = 594;
},
{
background = {
paths = (
{
closed = 1;
nodes = (
"170 0 LINE",
"170 670 LINE",
"110 670 LINE",
"110 0 LINE"
);
},
{
closed = 1;
nodes = (
"510 0 LINE",
"510 54 LINE",
"165 54 LINE",
"165 0 LINE"
);
}
);
};
layerId = "0A1AFE58-107D-4787-BDA0-D82FB635C3A6";
paths = (
{
closed = 1;
nodes = (
"170 0 LINE",
"170 670 LINE",
"110 670 LINE",
"110 0 LINE"
);
},
{
closed = 1;
nodes = (
"495 0 LINE",
"495 54 LINE",
"165 54 LINE",
"165 0 LINE"
);
}
);
width = 515;
},
{
background = {
paths = (
{
closed = 1;
nodes = (
"278 0 LINE",
"278 670 LINE",
"64 670 LINE",
"64 0 LINE"
);
},
{
closed = 1;
nodes = (
"552 0 LINE",
"552 173 LINE",
"179 173 LINE",
"179 0 LINE"
);
}
);
};
layerId = "84435905-EDCB-4949-A8A3-0E53308A2F50";
paths = (
{
closed = 1;
nodes = (
"293 0 LINE",
"293 730 LINE",
"73 730 LINE",
"73 0 LINE"
);
},
{
closed = 1;
nodes = (
"594 0 LINE",
"594 175 LINE",
"192 175 LINE",
"192 0 LINE"
);
}
);
width = 609;
userData = {
RMXScaler = {
height = 107;
width = 107;
};
};
}
);
leftMetricsKey = "=H";
unicode = 004C;
userData = {
RMXScaler = {
source = L;
};
};
},
{
color = 7;
glyphname = M;
lastChange = "2017-07-18 14:28:26 +0000";
layers = (
{
background = {
paths = (
{
closed = 1;
nodes = (
"632 670 LINE",
"468 175 LINE",
"460 175 LINE",
"296 670 LINE",
"79 670 LINE",
"79 0 LINE",
"215 0 LINE",
"215 539 LINE",
"200 516 LINE",
"222 516 LINE",
"397 0 LINE",
"531 0 LINE",
"706 516 LINE",
"728 516 LINE",
"713 539 LINE",
"713 0 LINE",
"849 0 LINE",
"849 670 LINE"
);
}
);
};
layerId = "C76CAC8E-7AD6-478C-8F7E-02FEF6F1EA84";
paths = (
{
closed = 1;
nodes = (
"695 730 LINE",
"506 175 LINE",
"498 175 LINE",
"308 730 LINE",
"90 730 LINE",
"90 0 LINE",
"226 0 LINE",
"226 599 LINE",
"211 576 LINE",
"234 576 LINE",
"434 0 LINE",
"569 0 LINE",
"770 576 LINE",
"793 576 LINE",
"777 600 LINE",
"777 0 LINE",
"913 0 LINE",
"913 730 LINE"
);
}
);
width = 1003;
},
{
background = {
paths = (
{
closed = 1;
nodes = (
"691 670 LINE",
"446 68 LINE",
"440 68 LINE",
"193 670 LINE",
"99 670 LINE",
"99 0 LINE",
"154 0 LINE",
"154 614 LINE",
"144 606 LINE",
"161 606 LINE",
"411 0 LINE",
"473 0 LINE",
"723 606 LINE",
"742 606 LINE",
"730 625 LINE",
"730 0 LINE",
"785 0 LINE",
"785 670 LINE"
);
}
);
};
layerId = "0A1AFE58-107D-4787-BDA0-D82FB635C3A6";
paths = (
{
closed = 1;
nodes = (
"680 670 LINE",
"446 68 LINE",
"440 68 LINE",
"204 670 LINE",
"110 670 LINE",
"110 0 LINE",
"165 0 LINE",
"165 614 LINE",
"155 606 LINE",
"172 606 LINE",
"411 0 LINE",
"473 0 LINE",
"712 606 LINE",
"731 606 LINE",
"719 625 LINE",
"719 0 LINE",
"774 0 LINE",
"774 670 LINE"
);
}
);
width = 884;
},
{
background = {
paths = (
{
closed = 1;
nodes = (
"619 670 LINE",
"490 235 LINE",
"482 235 LINE",
"353 670 LINE",
"64 670 LINE",
"64 0 LINE",
"250 0 LINE",
"250 487 LINE",
"232 461 LINE",
"257 461 LINE",
"402 0 LINE",
"569 0 LINE",
"715 461 LINE",
"740 461 LINE",
"722 478 LINE",
"722 0 LINE",
"908 0 LINE",
"908 670 LINE"
);
}
);
};
layerId = "84435905-EDCB-4949-A8A3-0E53308A2F50";
paths = (
{
closed = 1;
nodes = (
"673 730 LINE",
"527 247 LINE",
"518 247 LINE",
"371 730 LINE",
"73 730 LINE",
"73 0 LINE",
"265 0 LINE",
"265 546 LINE",
"247 519 LINE",
"273 519 LINE",
"436 0 LINE",
"608 0 LINE",
"772 519 LINE",
"798 519 LINE",
"779 538 LINE",
"779 0 LINE",
"971 0 LINE",
"971 730 LINE"
);
}
);
width = 1044;
userData = {
RMXScaler = {
height = 107;
width = 107;
};
};
}
);
leftMetricsKey = H;
rightMetricsKey = H;
unicode = 004D;
userData = {
RMXScaler = {
source = M;
};
};
},
{
color = 7;
glyphname = N;
lastChange = "2017-07-18 14:28:26 +0000";
layers = (
{
background = {
paths = (
{
closed = 1;
nodes = (
"539 219 LINE",
"227 670 LINE",
"79 670 LINE",
"79 0 LINE",
"215 0 LINE",
"215 469 LINE",
"202 451 LINE",
"221 451 LINE",
"534 0 LINE",
"682 0 LINE",
"682 670 LINE",
"546 670 LINE",
"546 190 LINE",
"568 219 LINE"
);
}
);
};
layerId = "C76CAC8E-7AD6-478C-8F7E-02FEF6F1EA84";
paths = (
{
closed = 1;
nodes = (
"593 221 LINE",
"236 730 LINE",
"90 730 LINE",
"90 0 LINE",
"226 0 LINE",
"226 529 LINE",
"213 509 LINE",
"232 509 LINE",
"589 0 LINE",
"736 0 LINE",
"736 730 LINE",
"600 730 LINE",
"600 190 LINE",
"623 221 LINE"
);
}
);
width = 826;
},
{
background = {
paths = (
{
closed = 1;
nodes = (
"593 102 LINE",
"158 670 LINE",
"110 670 LINE",
"110 0 LINE",
"164 0 LINE",
"164 587 LINE",
"156 568 LINE",
"168 568 LINE",
"603 0 LINE",
"651 0 LINE",
"651 670 LINE",
"597 670 LINE",
"597 75 LINE",
"617 102 LINE"
);
}
);
};
layerId = "0A1AFE58-107D-4787-BDA0-D82FB635C3A6";
paths = (
{
closed = 1;
nodes = (
"578 102 LINE",
"158 670 LINE",
"110 670 LINE",
"110 0 LINE",
"164 0 LINE",
"164 587 LINE",
"156 568 LINE",
"168 568 LINE",
"588 0 LINE",
"636 0 LINE",
"636 670 LINE",
"582 670 LINE",
"582 75 LINE",
"602 102 LINE"
);
}
);
width = 746;
},
{
background = {
paths = (
{
closed = 1;
nodes = (
"519 273 LINE",
"287 670 LINE",
"64 670 LINE",
"64 0 LINE",
"259 0 LINE",
"259 424 LINE",
"236 398 LINE",
"265 398 LINE",
"498 0 LINE",
"721 0 LINE",
"721 670 LINE",
"526 670 LINE",
"526 251 LINE",
"547 273 LINE"
);
}
);
};
layerId = "84435905-EDCB-4949-A8A3-0E53308A2F50";
paths = (
{
closed = 1;
nodes = (
"568 281 LINE",
"301 730 LINE",
"73 730 LINE",
"73 0 LINE",
"271 0 LINE",
"271 477 LINE",
"249 450 LINE",
"278 450 LINE",
"545 0 LINE",
"773 0 LINE",
"773 730 LINE",
"575 730 LINE",
"575 255 LINE",
"598 281 LINE"
);
}
);
width = 846;
userData = {
RMXScaler = {
height = 107;
width = 107;
};
};
}
);
leftMetricsKey = "=H";
rightMetricsKey = "=H";
unicode = 004E;
userData = {
RMXScaler = {
source = N;
};
};
},
{
color = 7;
glyphname = O;
lastChange = "2017-07-18 14:28:26 +0000";
layers = (
{
background = {
paths = (
{
closed = 1;
nodes = (
"599 -15 OFFCURVE",
"723 109 OFFCURVE",
"723 335 CURVE SMOOTH",
"723 561 OFFCURVE",
"599 685 OFFCURVE",
"383 685 CURVE SMOOTH",
"167 685 OFFCURVE",
"43 561 OFFCURVE",
"43 335 CURVE SMOOTH",
"43 109 OFFCURVE",
"167 -15 OFFCURVE",
"383 -15 CURVE SMOOTH"
);
},
{
closed = 1;
nodes = (
"253 110 OFFCURVE",
"196 194 OFFCURVE",
"196 335 CURVE SMOOTH",
"196 476 OFFCURVE",
"253 560 OFFCURVE",
"383 560 CURVE SMOOTH",
"513 560 OFFCURVE",
"570 476 OFFCURVE",
"570 335 CURVE SMOOTH",
"570 194 OFFCURVE",
"513 110 OFFCURVE",
"383 110 CURVE SMOOTH"
);
}
);
};
layerId = "C76CAC8E-7AD6-478C-8F7E-02FEF6F1EA84";
paths = (
{
closed = 1;
nodes = (
"646 -16 OFFCURVE",
"782 119 OFFCURVE",
"782 365 CURVE SMOOTH",
"782 612 OFFCURVE",
"646 747 OFFCURVE",
"416 747 CURVE SMOOTH",
"186 747 OFFCURVE",
"50 612 OFFCURVE",
"50 365 CURVE SMOOTH",
"50 119 OFFCURVE",
"186 -16 OFFCURVE",
"416 -16 CURVE SMOOTH"
);
},
{
closed = 1;
nodes = (
"270 109 OFFCURVE",
"203 204 OFFCURVE",
"203 365 CURVE SMOOTH",
"203 526 OFFCURVE",
"270 622 OFFCURVE",
"416 622 CURVE SMOOTH",
"562 622 OFFCURVE",
"629 526 OFFCURVE",
"629 365 CURVE SMOOTH",
"629 204 OFFCURVE",
"562 109 OFFCURVE",
"416 109 CURVE SMOOTH"
);
}
);
width = 832;
},
{
background = {
paths = (
{
closed = 1;
nodes = (
"563 -15 OFFCURVE",
"692 109 OFFCURVE",
"692 335 CURVE SMOOTH",
"692 562 OFFCURVE",
"563 685 OFFCURVE",
"375 685 CURVE SMOOTH",
"186 685 OFFCURVE",
"57 562 OFFCURVE",
"57 335 CURVE SMOOTH",
"57 109 OFFCURVE",
"186 -15 OFFCURVE",
"375 -15 CURVE SMOOTH"
);
},
{
closed = 1;
nodes = (
"210 36 OFFCURVE",
"119 146 OFFCURVE",
"119 335 CURVE SMOOTH",
"119 524 OFFCURVE",
"210 634 OFFCURVE",
"375 634 CURVE SMOOTH",
"539 634 OFFCURVE",
"630 524 OFFCURVE",
"630 335 CURVE SMOOTH",
"630 146 OFFCURVE",
"539 36 OFFCURVE",
"375 36 CURVE SMOOTH"
);
}
);
};
layerId = "0A1AFE58-107D-4787-BDA0-D82FB635C3A6";
paths = (
{
closed = 1;
nodes = (
"556 -15 OFFCURVE",
"685 109 OFFCURVE",
"685 335 CURVE SMOOTH",
"685 562 OFFCURVE",
"556 685 OFFCURVE",
"375 685 CURVE SMOOTH",
"193 685 OFFCURVE",
"65 562 OFFCURVE",
"65 335 CURVE SMOOTH",
"65 109 OFFCURVE",
"193 -15 OFFCURVE",
"375 -15 CURVE SMOOTH"
);
},
{
closed = 1;
nodes = (
"217 36 OFFCURVE",
"127 146 OFFCURVE",
"127 335 CURVE SMOOTH",
"127 524 OFFCURVE",
"217 634 OFFCURVE",
"375 634 CURVE SMOOTH",
"532 634 OFFCURVE",
"623 524 OFFCURVE",
"623 335 CURVE SMOOTH",
"623 146 OFFCURVE",
"532 36 OFFCURVE",
"375 36 CURVE SMOOTH"
);
}
);
width = 750;
},
{
background = {
paths = (
{
closed = 1;
nodes = (
"613 -15 OFFCURVE",
"730 109 OFFCURVE",
"730 335 CURVE SMOOTH",
"730 562 OFFCURVE",
"613 685 OFFCURVE",
"382 685 CURVE SMOOTH",
"152 685 OFFCURVE",
"35 562 OFFCURVE",
"35 335 CURVE SMOOTH",
"35 109 OFFCURVE",
"152 -15 OFFCURVE",
"382 -15 CURVE SMOOTH"
);
},
{
closed = 1;
nodes = (
"289 158 OFFCURVE",
"253 222 OFFCURVE",
"253 335 CURVE SMOOTH",
"253 448 OFFCURVE",
"289 512 OFFCURVE",
"382 512 CURVE SMOOTH",
"477 512 OFFCURVE",
"512 448 OFFCURVE",
"512 335 CURVE SMOOTH",
"512 222 OFFCURVE",
"477 158 OFFCURVE",
"382 158 CURVE SMOOTH"
);
}
);
};
layerId = "84435905-EDCB-4949-A8A3-0E53308A2F50";
paths = (
{
closed = 1;
nodes = (
"662 -16 OFFCURVE",
"792 119 OFFCURVE",
"792 365 CURVE SMOOTH",
"792 612 OFFCURVE",
"662 747 OFFCURVE",
"415 747 CURVE SMOOTH",
"169 747 OFFCURVE",
"40 612 OFFCURVE",
"40 365 CURVE SMOOTH",
"40 119 OFFCURVE",
"169 -16 OFFCURVE",
"415 -16 CURVE SMOOTH"
);
},
{
closed = 1;
nodes = (
"304 157 OFFCURVE",
"263 234 OFFCURVE",
"263 365 CURVE SMOOTH",
"263 497 OFFCURVE",
"304 574 OFFCURVE",
"415 574 CURVE SMOOTH",
"528 574 OFFCURVE",
"569 497 OFFCURVE",
"569 365 CURVE SMOOTH",
"569 234 OFFCURVE",
"528 157 OFFCURVE",
"415 157 CURVE SMOOTH"
);
}
);
width = 832;
userData = {
RMXScaler = {
height = 107;
width = 107;
};
};
}
);
unicode = 004F;
userData = {
RMXScaler = {
source = O;
};
};
},
{
color = 7;
glyphname = P;
lastChange = "2017-07-18 14:28:26 +0000";
layers = (
{
background = {
paths = (
{
closed = 1;
nodes = (
"227 0 LINE",
"227 670 LINE",
"79 670 LINE",
"79 0 LINE"
);
},
{
closed = 1;
nodes = (
"209 354 LINE",
"209 234 LINE",
"392 234 LINE SMOOTH",
"570 234 OFFCURVE",
"639 318 OFFCURVE",
"639 452 CURVE SMOOTH",
"639 587 OFFCURVE",
"570 670 OFFCURVE",
"392 670 CURVE SMOOTH",
"209 670 LINE",
"209 545 LINE",
"357 545 LINE SMOOTH",
"454 545 OFFCURVE",
"496 527 OFFCURVE",
"496 452 CURVE SMOOTH",
"496 377 OFFCURVE",
"454 354 OFFCURVE",
"357 354 CURVE SMOOTH"
);
}
);
};
layerId = "C76CAC8E-7AD6-478C-8F7E-02FEF6F1EA84";
paths = (
{
closed = 1;
nodes = (
"238 0 LINE",
"238 730 LINE",
"90 730 LINE",
"90 0 LINE"
);
},
{
closed = 1;
nodes = (
"219 382 LINE",
"219 262 LINE",
"420 262 LINE SMOOTH",
"615 262 OFFCURVE",
"689 352 OFFCURVE",
"689 496 CURVE SMOOTH",
"689 643 OFFCURVE",
"613 730 OFFCURVE",
"423 730 CURVE SMOOTH",
"219 730 LINE",
"219 605 LINE",
"388 605 LINE SMOOTH",
"500 605 OFFCURVE",
"546 582 OFFCURVE",
"546 496 CURVE SMOOTH",
"546 410 OFFCURVE",
"500 382 OFFCURVE",
"386 382 CURVE SMOOTH"
);
}
);
width = 729;
},
{
background = {
paths = (
{
closed = 1;
nodes = (
"170 0 LINE",
"170 670 LINE",
"110 670 LINE",
"110 0 LINE"
);
},
{
closed = 1;
nodes = (
"151 332 LINE",
"151 282 LINE",
"360 282 LINE SMOOTH",
"548 282 OFFCURVE",
"610 352 OFFCURVE",
"610 475 CURVE SMOOTH",
"610 610 OFFCURVE",
"533 670 OFFCURVE",
"383 670 CURVE SMOOTH",
"151 670 LINE",
"151 619 LINE",
"369 619 LINE SMOOTH",
"507 619 OFFCURVE",
"553 578 OFFCURVE",
"553 475 CURVE SMOOTH",
"553 372 OFFCURVE",
"507 332 OFFCURVE",
"357 332 CURVE SMOOTH"
);
}
);
};
layerId = "0A1AFE58-107D-4787-BDA0-D82FB635C3A6";
paths = (
{
closed = 1;
nodes = (
"170 0 LINE",
"170 670 LINE",
"110 670 LINE",
"110 0 LINE"
);
},
{
closed = 1;
nodes = (
"151 332 LINE",
"151 282 LINE",
"345 282 LINE SMOOTH",
"533 282 OFFCURVE",
"595 352 OFFCURVE",
"595 475 CURVE SMOOTH",
"595 610 OFFCURVE",
"518 670 OFFCURVE",
"368 670 CURVE SMOOTH",
"151 670 LINE",
"151 619 LINE",
"354 619 LINE SMOOTH",
"492 619 OFFCURVE",
"538 578 OFFCURVE",
"538 475 CURVE SMOOTH",
"538 372 OFFCURVE",
"492 332 OFFCURVE",
"342 332 CURVE SMOOTH"
);
}
);
width = 625;
},
{
background = {
paths = (
{
closed = 1;
nodes = (
"278 0 LINE",
"278 670 LINE",
"64 670 LINE",
"64 0 LINE"
);
},
{
closed = 1;
nodes = (
"260 358 LINE",
"260 204 LINE",
"414 204 LINE SMOOTH",
"595 204 OFFCURVE",
"674 292 OFFCURVE",
"674 435 CURVE SMOOTH",
"674 587 OFFCURVE",
"595 670 OFFCURVE",
"423 670 CURVE SMOOTH",
"260 670 LINE",
"260 510 LINE",
"388 510 LINE SMOOTH",
"446 510 OFFCURVE",
"469 488 OFFCURVE",
"469 435 CURVE SMOOTH",
"469 381 OFFCURVE",
"446 358 OFFCURVE",
"388 358 CURVE SMOOTH"
);
}
);
};
layerId = "84435905-EDCB-4949-A8A3-0E53308A2F50";
paths = (
{
closed = 1;
nodes = (
"293 0 LINE",
"293 730 LINE",
"73 730 LINE",
"73 0 LINE"
);
},
{
closed = 1;
nodes = (
"273 391 LINE",
"273 231 LINE",
"447 231 LINE SMOOTH",
"644 231 OFFCURVE",
"728 326 OFFCURVE",
"728 479 CURVE SMOOTH",
"728 640 OFFCURVE",
"644 730 OFFCURVE",
"456 730 CURVE SMOOTH",
"273 730 LINE",
"273 570 LINE",
"416 570 LINE SMOOTH",
"490 570 OFFCURVE",
"519 546 OFFCURVE",
"519 482 CURVE SMOOTH",
"519 417 OFFCURVE",
"490 391 OFFCURVE",
"415 391 CURVE SMOOTH"
);
}
);
width = 768;
userData = {
RMXScaler = {
height = 107;
width = 107;
};
};
}
);
leftMetricsKey = H;
unicode = 0050;
userData = {
RMXScaler = {
source = P;
};
};
},
{
color = 7;
glyphname = Q;
lastChange = "2017-07-18 14:28:26 +0000";
layers = (
{
background = {
paths = (
{
closed = 1;
nodes = (
"704 -90 LINE",
"566 92 LINE",
"540 92 LINE",
"440 225 LINE",
"304 225 LINE",
"451 18 LINE",
"476 18 LINE",
"558 -90 LINE"
);
},
{
closed = 1;
nodes = (
"599 -15 OFFCURVE",
"723 109 OFFCURVE",
"723 335 CURVE SMOOTH",
"723 561 OFFCURVE",
"599 685 OFFCURVE",
"383 685 CURVE SMOOTH",
"167 685 OFFCURVE",
"43 561 OFFCURVE",
"43 335 CURVE SMOOTH",
"43 109 OFFCURVE",
"167 -15 OFFCURVE",
"383 -15 CURVE SMOOTH"
);
},
{
closed = 1;
nodes = (
"253 110 OFFCURVE",
"196 194 OFFCURVE",
"196 335 CURVE SMOOTH",
"196 476 OFFCURVE",
"253 560 OFFCURVE",
"383 560 CURVE SMOOTH",
"513 560 OFFCURVE",
"570 476 OFFCURVE",
"570 335 CURVE SMOOTH",
"570 194 OFFCURVE",
"513 110 OFFCURVE",
"383 110 CURVE SMOOTH"
);
}
);
};
layerId = "C76CAC8E-7AD6-478C-8F7E-02FEF6F1EA84";
paths = (
{
closed = 1;
nodes = (
"759 -100 LINE",
"612 93 LINE",
"587 93 LINE",
"472 242 LINE",
"334 242 LINE",
"497 19 LINE",
"521 19 LINE",
"613 -100 LINE"
);
},
{
closed = 1;
nodes = (
"646 -16 OFFCURVE",
"782 119 OFFCURVE",
"782 365 CURVE SMOOTH",
"782 612 OFFCURVE",
"646 747 OFFCURVE",
"416 747 CURVE SMOOTH",
"186 747 OFFCURVE",
"50 612 OFFCURVE",
"50 365 CURVE SMOOTH",
"50 119 OFFCURVE",
"186 -16 OFFCURVE",
"416 -16 CURVE SMOOTH"
);
},
{
closed = 1;
nodes = (
"270 109 OFFCURVE",
"203 204 OFFCURVE",
"203 365 CURVE SMOOTH",
"203 526 OFFCURVE",
"270 622 OFFCURVE",
"416 622 CURVE SMOOTH",
"562 622 OFFCURVE",
"629 526 OFFCURVE",
"629 365 CURVE SMOOTH",
"629 204 OFFCURVE",
"562 109 OFFCURVE",
"416 109 CURVE SMOOTH"
);
}
);
width = 832;
},
{
background = {
paths = (
{
closed = 1;
nodes = (
"657 -101 LINE",
"535 42 LINE",
"530 42 LINE",
"393 202 LINE",
"324 202 LINE",
"486 15 LINE",
"490 15 LINE",
"592 -101 LINE"
);
},
{
closed = 1;
nodes = (
"564 -15 OFFCURVE",
"693 109 OFFCURVE",
"693 335 CURVE SMOOTH",
"693 562 OFFCURVE",
"564 685 OFFCURVE",
"376 685 CURVE SMOOTH",
"187 685 OFFCURVE",
"58 562 OFFCURVE",
"58 335 CURVE SMOOTH",
"58 109 OFFCURVE",
"187 -15 OFFCURVE",
"376 -15 CURVE SMOOTH"
);
},
{
closed = 1;
nodes = (
"212 36 OFFCURVE",
"121 147 OFFCURVE",
"121 335 CURVE SMOOTH",
"121 524 OFFCURVE",
"212 634 OFFCURVE",
"376 634 CURVE SMOOTH",
"540 634 OFFCURVE",
"630 524 OFFCURVE",
"630 335 CURVE SMOOTH",
"630 147 OFFCURVE",
"540 36 OFFCURVE",
"376 36 CURVE SMOOTH"
);
}
);
};
layerId = "0A1AFE58-107D-4787-BDA0-D82FB635C3A6";
paths = (
{
closed = 1;
nodes = (
"657 -101 LINE",
"535 42 LINE",
"530 42 LINE",
"393 202 LINE",
"324 202 LINE",
"486 15 LINE",
"490 15 LINE",
"592 -101 LINE"
);
},
{
closed = 1;
nodes = (
"556 -15 OFFCURVE",
"685 109 OFFCURVE",
"685 335 CURVE SMOOTH",
"685 562 OFFCURVE",
"556 685 OFFCURVE",
"375 685 CURVE SMOOTH",
"193 685 OFFCURVE",
"65 562 OFFCURVE",
"65 335 CURVE SMOOTH",
"65 109 OFFCURVE",
"193 -15 OFFCURVE",
"375 -15 CURVE SMOOTH"
);
},
{
closed = 1;
nodes = (
"217 36 OFFCURVE",
"127 146 OFFCURVE",
"127 335 CURVE SMOOTH",
"127 524 OFFCURVE",
"217 634 OFFCURVE",
"375 634 CURVE SMOOTH",
"532 634 OFFCURVE",
"623 524 OFFCURVE",
"623 335 CURVE SMOOTH",
"623 146 OFFCURVE",
"532 36 OFFCURVE",
"375 36 CURVE SMOOTH"
);
}
);
width = 750;
},
{
background = {
paths = (
{
closed = 1;
nodes = (
"721 -81 LINE",
"589 109 LINE",
"534 109 LINE",
"457 242 LINE",
"302 242 LINE",
"428 35 LINE",
"448 35 LINE",
"532 -81 LINE"
);
},
{
closed = 1;
nodes = (
"613 -15 OFFCURVE",
"730 109 OFFCURVE",
"730 335 CURVE SMOOTH",
"730 562 OFFCURVE",
"613 685 OFFCURVE",
"382 685 CURVE SMOOTH",
"152 685 OFFCURVE",
"35 562 OFFCURVE",
"35 335 CURVE SMOOTH",
"35 109 OFFCURVE",
"152 -15 OFFCURVE",
"382 -15 CURVE SMOOTH"
);
},
{
closed = 1;
nodes = (
"284 153 OFFCURVE",
"249 213 OFFCURVE",
"249 335 CURVE SMOOTH",
"249 448 OFFCURVE",
"284 512 OFFCURVE",
"382 512 CURVE SMOOTH",
"481 512 OFFCURVE",
"517 448 OFFCURVE",
"517 335 CURVE SMOOTH",
"517 213 OFFCURVE",
"481 153 OFFCURVE",
"382 153 CURVE SMOOTH"
);
}
);
};
layerId = "84435905-EDCB-4949-A8A3-0E53308A2F50";
paths = (
{
closed = 1;
nodes = (
"769 -91 LINE",
"625 113 LINE",
"588 113 LINE",
"487 267 LINE",
"325 267 LINE",
"472 34 LINE",
"495 34 LINE",
"586 -91 LINE"
);
},
{
closed = 1;
nodes = (
"662 -16 OFFCURVE",
"790 119 OFFCURVE",
"790 365 CURVE SMOOTH",
"790 612 OFFCURVE",
"662 747 OFFCURVE",
"415 747 CURVE SMOOTH",
"169 747 OFFCURVE",
"40 612 OFFCURVE",
"40 365 CURVE SMOOTH",
"40 119 OFFCURVE",
"169 -16 OFFCURVE",
"415 -16 CURVE SMOOTH"
);
},
{
closed = 1;
nodes = (
"298 154 OFFCURVE",
"258 226 OFFCURVE",
"258 365 CURVE SMOOTH",
"258 497 OFFCURVE",
"298 574 OFFCURVE",
"415 574 CURVE SMOOTH",
"534 574 OFFCURVE",
"572 497 OFFCURVE",
"572 365 CURVE SMOOTH",
"572 226 OFFCURVE",
"534 154 OFFCURVE",
"415 154 CURVE SMOOTH"
);
}
);
width = 830;
userData = {
RMXScaler = {
height = 107;
width = 107;
};
};
}
);
leftMetricsKey = O;
rightMetricsKey = O;
unicode = 0051;
userData = {
RMXScaler = {
source = Q;
};
};
},
{
color = 7;
glyphname = R;
lastChange = "2017-07-18 14:28:26 +0000";
layers = (
{
background = {
paths = (
{
closed = 1;
nodes = (
"227 0 LINE",
"227 670 LINE",
"79 670 LINE",
"79 0 LINE"
);
},
{
closed = 1;
nodes = (
"209 364 LINE",
"209 249 LINE",
"374 249 LINE SMOOTH",
"562 249 OFFCURVE",
"644 328 OFFCURVE",
"644 457 CURVE SMOOTH",
"644 587 OFFCURVE",
"575 670 OFFCURVE",
"397 670 CURVE SMOOTH",
"209 670 LINE",
"209 545 LINE",
"362 545 LINE SMOOTH",
"459 545 OFFCURVE",
"501 527 OFFCURVE",
"501 457 CURVE SMOOTH",
"501 387 OFFCURVE",
"459 364 OFFCURVE",
"362 364 CURVE SMOOTH"
);
},
{
closed = 1;
nodes = (
"644 0 LINE",
"439 313 LINE",
"290 313 LINE",
"484 0 LINE"
);
}
);
};
layerId = "C76CAC8E-7AD6-478C-8F7E-02FEF6F1EA84";
paths = (
{
closed = 1;
nodes = (
"238 0 LINE",
"238 730 LINE",
"90 730 LINE",
"90 0 LINE"
);
},
{
closed = 1;
nodes = (
"219 393 LINE",
"219 278 LINE",
"404 278 LINE SMOOTH",
"610 278 OFFCURVE",
"695 366 OFFCURVE",
"695 502 CURVE SMOOTH",
"695 643 OFFCURVE",
"618 730 OFFCURVE",
"428 730 CURVE SMOOTH",
"219 730 LINE",
"219 605 LINE",
"393 605 LINE SMOOTH",
"505 605 OFFCURVE",
"552 582 OFFCURVE",
"552 502 CURVE SMOOTH",
"552 423 OFFCURVE",
"505 393 OFFCURVE",
"392 393 CURVE SMOOTH"
);
},
{
closed = 1;
nodes = (
"693 0 LINE",
"462 340 LINE",
"312 340 LINE",
"533 0 LINE"
);
}
);
width = 745;
},
{
background = {
paths = (
{
closed = 1;
nodes = (
"169 0 LINE",
"169 670 LINE",
"110 670 LINE",
"110 0 LINE"
);
},
{
closed = 1;
nodes = (
"151 342 LINE",
"151 294 LINE",
"367 294 LINE SMOOTH",
"564 294 OFFCURVE",
"615 384 OFFCURVE",
"615 480 CURVE SMOOTH",
"615 610 OFFCURVE",
"538 670 OFFCURVE",
"388 670 CURVE SMOOTH",
"151 670 LINE",
"151 619 LINE",
"374 619 LINE SMOOTH",
"512 619 OFFCURVE",
"558 578 OFFCURVE",
"558 480 CURVE SMOOTH",
"558 393 OFFCURVE",
"512 342 OFFCURVE",
"362 342 CURVE SMOOTH"
);
},
{
closed = 1;
nodes = (
"603 0 LINE",
"350 308 LINE",
"284 308 LINE",
"533 0 LINE"
);
}
);
};
layerId = "0A1AFE58-107D-4787-BDA0-D82FB635C3A6";
paths = (
{
closed = 1;
nodes = (
"169 0 LINE",
"169 670 LINE",
"110 670 LINE",
"110 0 LINE"
);
},
{
closed = 1;
nodes = (
"151 342 LINE",
"151 294 LINE",
"352 294 LINE SMOOTH",
"549 294 OFFCURVE",
"600 384 OFFCURVE",
"600 480 CURVE SMOOTH",
"600 610 OFFCURVE",
"523 670 OFFCURVE",
"373 670 CURVE SMOOTH",
"151 670 LINE",
"151 619 LINE",
"359 619 LINE SMOOTH",
"497 619 OFFCURVE",
"543 578 OFFCURVE",
"543 480 CURVE SMOOTH",
"543 393 OFFCURVE",
"497 342 OFFCURVE",
"347 342 CURVE SMOOTH"
);
},
{
closed = 1;
nodes = (
"588 0 LINE",
"335 308 LINE",
"269 308 LINE",
"518 0 LINE"
);
}
);
width = 660;
},
{
background = {
paths = (
{
closed = 1;
nodes = (
"278 0 LINE",
"278 670 LINE",
"64 670 LINE",
"64 0 LINE"
);
},
{
closed = 1;
nodes = (
"260 373 LINE",
"260 232 LINE",
"412 232 LINE SMOOTH",
"595 232 OFFCURVE",
"675 306 OFFCURVE",
"675 448 CURVE SMOOTH",
"675 591 OFFCURVE",
"596 670 OFFCURVE",
"423 670 CURVE SMOOTH",
"260 670 LINE",
"260 515 LINE",
"389 515 LINE SMOOTH",
"447 515 OFFCURVE",
"469 492 OFFCURVE",
"469 444 CURVE SMOOTH",
"469 396 OFFCURVE",
"447 373 OFFCURVE",
"389 373 CURVE SMOOTH"
);
},
{
closed = 1;
nodes = (
"684 0 LINE",
"506 300 LINE",
"280 300 LINE",
"446 0 LINE"
);
}
);
};
layerId = "84435905-EDCB-4949-A8A3-0E53308A2F50";
paths = (
{
closed = 1;
nodes = (
"292 0 LINE",
"292 730 LINE",
"73 730 LINE",
"73 0 LINE"
);
},
{
closed = 1;
nodes = (
"272 403 LINE",
"272 258 LINE",
"442 258 LINE SMOOTH",
"643 258 OFFCURVE",
"730 341 OFFCURVE",
"730 491 CURVE SMOOTH",
"730 644 OFFCURVE",
"646 730 OFFCURVE",
"457 730 CURVE SMOOTH",
"272 730 LINE",
"272 570 LINE",
"418 570 LINE SMOOTH",
"492 570 OFFCURVE",
"521 545 OFFCURVE",
"521 487 CURVE SMOOTH",
"521 429 OFFCURVE",
"492 403 OFFCURVE",
"417 403 CURVE SMOOTH"
);
},
{
closed = 1;
nodes = (
"747 0 LINE",
"535 330 LINE",
"310 330 LINE",
"514 0 LINE"
);
}
);
width = 772;
userData = {
RMXScaler = {
height = 107;
width = 107;
};
};
}
);
leftMetricsKey = H;
unicode = 0052;
userData = {
RMXScaler = {
source = R;
};
};
},
{
color = 7;
glyphname = S;
lastChange = "2017-07-18 14:28:26 +0000";
layers = (
{
background = {
paths = (
{
closed = 1;
nodes = (
"509 -15 OFFCURVE",
"622 47 OFFCURVE",
"622 186 CURVE SMOOTH",
"622 306 OFFCURVE",
"556 353 OFFCURVE",
"404 385 CURVE SMOOTH",
"327 401 LINE SMOOTH",
"239 419 OFFCURVE",
"206 440 OFFCURVE",
"206 491 CURVE SMOOTH",
"206 538 OFFCURVE",
"238 567 OFFCURVE",
"327 567 CURVE SMOOTH",
"423 567 OFFCURVE",
"457 526 OFFCURVE",
"466 476 CURVE SMOOTH",
"468 465 LINE",
"614 465 LINE",
"612 487 LINE SMOOTH",
"602 596 OFFCURVE",
"523 685 OFFCURVE",
"338 685 CURVE SMOOTH",
"161 685 OFFCURVE",
"61 619 OFFCURVE",
"61 491 CURVE SMOOTH",
"61 370 OFFCURVE",
"132 311 OFFCURVE",
"276 283 CURVE SMOOTH",
"352 268 LINE SMOOTH",
"449 249 OFFCURVE",
"477 229 OFFCURVE",
"477 180 CURVE SMOOTH",
"477 133 OFFCURVE",
"443 103 OFFCURVE",
"350 103 CURVE SMOOTH",
"263 103 OFFCURVE",
"213 122 OFFCURVE",
"202 178 CURVE SMOOTH",
"200 188 LINE",
"51 188 LINE",
"52 171 LINE SMOOTH",
"60 41 OFFCURVE",
"168 -15 OFFCURVE",
"337 -15 CURVE SMOOTH"
);
}
);
};
layerId = "C76CAC8E-7AD6-478C-8F7E-02FEF6F1EA84";
paths = (
{
closed = 1;
nodes = (
"547 -16 OFFCURVE",
"671 48 OFFCURVE",
"671 199 CURVE SMOOTH",
"671 330 OFFCURVE",
"595 382 OFFCURVE",
"436 415 CURVE SMOOTH",
"354 432 LINE SMOOTH",
"258 452 OFFCURVE",
"216 478 OFFCURVE",
"216 538 CURVE SMOOTH",
"216 595 OFFCURVE",
"258 629 OFFCURVE",
"356 629 CURVE SMOOTH",
"464 629 OFFCURVE",
"505 581 OFFCURVE",
"516 522 CURVE SMOOTH",
"518 511 LINE",
"664 511 LINE",
"662 533 LINE SMOOTH",
"651 652 OFFCURVE",
"563 747 OFFCURVE",
"367 747 CURVE SMOOTH",
"179 747 OFFCURVE",
"71 675 OFFCURVE",
"71 538 CURVE SMOOTH",
"71 405 OFFCURVE",
"154 343 OFFCURVE",
"305 313 CURVE SMOOTH",
"386 297 LINE SMOOTH",
"491 276 OFFCURVE",
"526 251 OFFCURVE",
"526 193 CURVE SMOOTH",
"526 136 OFFCURVE",
"484 102 OFFCURVE",
"379 102 CURVE SMOOTH",
"281 102 OFFCURVE",
"223 126 OFFCURVE",
"211 190 CURVE SMOOTH",
"209 201 LINE",
"60 201 LINE",
"61 183 LINE SMOOTH",
"69 44 OFFCURVE",
"187 -16 OFFCURVE",
"367 -16 CURVE SMOOTH"
);
}
);
width = 731;
},
{
background = {
paths = (
{
closed = 1;
nodes = (
"467 -14 OFFCURVE",
"586 25 OFFCURVE",
"586 162 CURVE SMOOTH",
"586 283 OFFCURVE",
"489 329 OFFCURVE",
"380 354 CURVE SMOOTH",
"314 369 LINE SMOOTH",
"219 391 OFFCURVE",
"151 428 OFFCURVE",
"151 513 CURVE SMOOTH",
"151 598 OFFCURVE",
"224 636 OFFCURVE",
"331 636 CURVE SMOOTH",
"454 636 OFFCURVE",
"506 578 OFFCURVE",
"526 498 CURVE SMOOTH",
"528 490 LINE",
"589 490 LINE",
"587 499 LINE SMOOTH",
"563 608 OFFCURVE",
"483 685 OFFCURVE",
"329 685 CURVE SMOOTH",
"184 685 OFFCURVE",
"93 622 OFFCURVE",
"93 507 CURVE SMOOTH",
"93 381 OFFCURVE",
"196 338 OFFCURVE",
"307 313 CURVE SMOOTH",
"375 298 LINE SMOOTH",
"467 278 OFFCURVE",
"529 237 OFFCURVE",
"529 157 CURVE SMOOTH",
"529 71 OFFCURVE",
"457 35 OFFCURVE",
"335 35 CURVE SMOOTH",
"222 35 OFFCURVE",
"160 77 OFFCURVE",
"138 154 CURVE SMOOTH",
"136 161 LINE",
"75 161 LINE",
"77 151 LINE SMOOTH",
"99 43 OFFCURVE",
"192 -14 OFFCURVE",
"337 -14 CURVE SMOOTH"
);
}
);
};
layerId = "0A1AFE58-107D-4787-BDA0-D82FB635C3A6";
paths = (
{
closed = 1;
nodes = (
"462 -14 OFFCURVE",
"581 25 OFFCURVE",
"581 162 CURVE SMOOTH",
"581 283 OFFCURVE",
"484 330 OFFCURVE",
"380 354 CURVE SMOOTH",
"314 369 LINE SMOOTH",
"224 389 OFFCURVE",
"156 428 OFFCURVE",
"156 513 CURVE SMOOTH",
"156 598 OFFCURVE",
"229 636 OFFCURVE",
"331 636 CURVE SMOOTH",
"449 636 OFFCURVE",
"501 578 OFFCURVE",
"521 498 CURVE SMOOTH",
"523 490 LINE",
"584 490 LINE",
"582 499 LINE SMOOTH",
"558 608 OFFCURVE",
"478 685 OFFCURVE",
"329 685 CURVE SMOOTH",
"189 685 OFFCURVE",
"98 622 OFFCURVE",
"98 507 CURVE SMOOTH",
"98 381 OFFCURVE",
"201 336 OFFCURVE",
"307 313 CURVE SMOOTH",
"375 298 LINE SMOOTH",
"462 279 OFFCURVE",
"524 237 OFFCURVE",
"524 157 CURVE SMOOTH",
"524 71 OFFCURVE",
"452 35 OFFCURVE",
"335 35 CURVE SMOOTH",
"227 35 OFFCURVE",
"165 77 OFFCURVE",
"143 154 CURVE SMOOTH",
"141 161 LINE",
"80 161 LINE",
"82 151 LINE SMOOTH",
"104 43 OFFCURVE",
"197 -14 OFFCURVE",
"337 -14 CURVE SMOOTH"
);
}
);
width = 664;
},
{
background = {
paths = (
{
closed = 1;
nodes = (
"570 -16 OFFCURVE",
"667 55 OFFCURVE",
"667 196 CURVE SMOOTH",
"667 315 OFFCURVE",
"614 377 OFFCURVE",
"457 403 CURVE SMOOTH",
"364 418 LINE SMOOTH",
"279 432 OFFCURVE",
"268 444 OFFCURVE",
"268 478 CURVE SMOOTH",
"268 504 OFFCURVE",
"284 526 OFFCURVE",
"359 526 CURVE SMOOTH",
"430 526 OFFCURVE",
"449 502 OFFCURVE",
"453 471 CURVE SMOOTH",
"455 463 LINE",
"665 463 LINE",
"663 480 LINE SMOOTH",
"645 624 OFFCURVE",
"558 685 OFFCURVE",
"354 685 CURVE SMOOTH",
"143 685 OFFCURVE",
"53 614 OFFCURVE",
"53 472 CURVE SMOOTH",
"53 363 OFFCURVE",
"114 288 OFFCURVE",
"269 264 CURVE SMOOTH",
"352 251 LINE SMOOTH",
"439 237 OFFCURVE",
"452 225 OFFCURVE",
"452 190 CURVE SMOOTH",
"452 156 OFFCURVE",
"425 143 OFFCURVE",
"354 143 CURVE SMOOTH",
"280 143 OFFCURVE",
"259 166 OFFCURVE",
"256 198 CURVE SMOOTH",
"255 209 LINE",
"44 209 LINE",
"45 193 LINE SMOOTH",
"55 37 OFFCURVE",
"168 -16 OFFCURVE",
"357 -16 CURVE SMOOTH"
);
}
);
};
layerId = "84435905-EDCB-4949-A8A3-0E53308A2F50";
paths = (
{
closed = 1;
nodes = (
"604 -17 OFFCURVE",
"714 57 OFFCURVE",
"714 210 CURVE SMOOTH",
"714 340 OFFCURVE",
"652 406 OFFCURVE",
"483 434 CURVE SMOOTH",
"386 450 LINE SMOOTH",
"295 465 OFFCURVE",
"277 483 OFFCURVE",
"277 525 CURVE SMOOTH",
"277 562 OFFCURVE",
"300 589 OFFCURVE",
"383 589 CURVE SMOOTH",
"464 589 OFFCURVE",
"486 557 OFFCURVE",
"495 515 CURVE SMOOTH",
"497 506 LINE",
"710 506 LINE",
"708 525 LINE SMOOTH",
"692 674 OFFCURVE",
"597 747 OFFCURVE",
"381 747 CURVE SMOOTH",
"160 747 OFFCURVE",
"60 673 OFFCURVE",
"60 522 CURVE SMOOTH",
"60 400 OFFCURVE",
"130 319 OFFCURVE",
"295 293 CURVE SMOOTH",
"384 279 LINE SMOOTH",
"478 264 OFFCURVE",
"497 246 OFFCURVE",
"497 204 CURVE SMOOTH",
"497 160 OFFCURVE",
"464 141 OFFCURVE",
"383 141 CURVE SMOOTH",
"301 141 OFFCURVE",
"270 166 OFFCURVE",
"266 210 CURVE SMOOTH",
"265 222 LINE",
"50 222 LINE",
"51 204 LINE SMOOTH",
"60 41 OFFCURVE",
"183 -17 OFFCURVE",
"383 -17 CURVE SMOOTH"
);
}
);
width = 764;
userData = {
RMXScaler = {
height = 107;
width = 107;
};
};
}
);
unicode = 0053;
userData = {
RMXScaler = {
source = S;
};
};
},
{
color = 7;
glyphname = T;
lastChange = "2017-07-18 14:28:26 +0000";
layers = (
{
background = {
paths = (
{
closed = 1;
nodes = (
"358 0 LINE",
"358 620 LINE",
"210 620 LINE",
"210 0 LINE"
);
},
{
closed = 1;
nodes = (
"563 545 LINE",
"563 670 LINE",
"5 670 LINE",
"5 545 LINE"
);
}
);
};
layerId = "C76CAC8E-7AD6-478C-8F7E-02FEF6F1EA84";
paths = (
{
closed = 1;
nodes = (
"378 0 LINE",
"378 677 LINE",
"230 677 LINE",
"230 0 LINE"
);
},
{
closed = 1;
nodes = (
"603 605 LINE",
"603 730 LINE",
"5 730 LINE",
"5 605 LINE"
);
}
);
width = 608;
},
{
background = {
paths = (
{
closed = 1;
nodes = (
"282 0 LINE",
"282 631 LINE",
"222 631 LINE",
"222 0 LINE"
);
},
{
closed = 1;
nodes = (
"507 616 LINE",
"507 670 LINE",
"-3 670 LINE",
"-3 616 LINE"
);
}
);
};
layerId = "0A1AFE58-107D-4787-BDA0-D82FB635C3A6";
paths = (
{
closed = 1;
nodes = (
"282 0 LINE",
"282 631 LINE",
"222 631 LINE",
"222 0 LINE"
);
},
{
closed = 1;
nodes = (
"499 616 LINE",
"499 670 LINE",
"5 670 LINE",
"5 616 LINE"
);
}
);
width = 504;
},
{
background = {
paths = (
{
closed = 1;
nodes = (
"411 0 LINE",
"411 620 LINE",
"197 620 LINE",
"197 0 LINE"
);
},
{
closed = 1;
nodes = (
"602 497 LINE",
"602 670 LINE",
"6 670 LINE",
"6 497 LINE"
);
}
);
};
layerId = "84435905-EDCB-4949-A8A3-0E53308A2F50";
paths = (
{
closed = 1;
nodes = (
"437 0 LINE",
"437 676 LINE",
"217 676 LINE",
"217 0 LINE"
);
},
{
closed = 1;
nodes = (
"649 555 LINE",
"649 730 LINE",
"5 730 LINE",
"5 555 LINE"
);
}
);
width = 654;
userData = {
RMXScaler = {
height = 107;
width = 107;
};
};
}
);
unicode = 0054;
userData = {
RMXScaler = {
source = T;
};
};
},
{
color = 7;
glyphname = U;
lastChange = "2017-07-18 14:28:26 +0000";
layers = (
{
background = {
paths = (
{
closed = 1;
nodes = (
"70 670 LINE",
"70 295 LINE SMOOTH",
"70 79 OFFCURVE",
"166 -15 OFFCURVE",
"364 -15 CURVE SMOOTH",
"562 -15 OFFCURVE",
"658 79 OFFCURVE",
"658 295 CURVE SMOOTH",
"658 670 LINE",
"510 670 LINE",
"510 305 LINE SMOOTH",
"510 164 OFFCURVE",
"469 110 OFFCURVE",
"364 110 CURVE SMOOTH",
"259 110 OFFCURVE",
"218 164 OFFCURVE",
"218 305 CURVE SMOOTH",
"218 670 LINE"
);
}
);
};
layerId = "C76CAC8E-7AD6-478C-8F7E-02FEF6F1EA84";
paths = (
{
closed = 1;
nodes = (
"80 730 LINE",
"80 318 LINE SMOOTH",
"80 84 OFFCURVE",
"185 -16 OFFCURVE",
"395 -16 CURVE SMOOTH",
"605 -16 OFFCURVE",
"710 84 OFFCURVE",
"710 318 CURVE SMOOTH",
"710 730 LINE",
"562 730 LINE",
"562 329 LINE SMOOTH",
"562 167 OFFCURVE",
"512 109 OFFCURVE",
"395 109 CURVE SMOOTH",
"278 109 OFFCURVE",
"228 167 OFFCURVE",
"228 329 CURVE SMOOTH",
"228 730 LINE"
);
}
);
width = 790;
},
{
background = {
paths = (
{
closed = 1;
nodes = (
"92 670 LINE",
"92 272 LINE SMOOTH",
"92 68 OFFCURVE",
"192 -15 OFFCURVE",
"357 -15 CURVE SMOOTH",
"523 -15 OFFCURVE",
"622 68 OFFCURVE",
"622 272 CURVE SMOOTH",
"622 670 LINE",
"562 670 LINE",
"562 282 LINE SMOOTH",
"562 88 OFFCURVE",
"488 36 OFFCURVE",
"357 36 CURVE SMOOTH",
"226 36 OFFCURVE",
"152 88 OFFCURVE",
"152 282 CURVE SMOOTH",
"152 670 LINE"
);
}
);
};
layerId = "0A1AFE58-107D-4787-BDA0-D82FB635C3A6";
paths = (
{
closed = 1;
nodes = (
"100 670 LINE",
"100 272 LINE SMOOTH",
"100 68 OFFCURVE",
"200 -15 OFFCURVE",
"357 -15 CURVE SMOOTH",
"515 -15 OFFCURVE",
"614 68 OFFCURVE",
"614 272 CURVE SMOOTH",
"614 670 LINE",
"554 670 LINE",
"554 282 LINE SMOOTH",
"554 88 OFFCURVE",
"480 36 OFFCURVE",
"357 36 CURVE SMOOTH",
"234 36 OFFCURVE",
"160 88 OFFCURVE",
"160 282 CURVE SMOOTH",
"160 670 LINE"
);
}
);
width = 714;
},
{
background = {
paths = (
{
closed = 1;
nodes = (
"57 670 LINE",
"57 304 LINE SMOOTH",
"57 79 OFFCURVE",
"150 -15 OFFCURVE",
"371 -15 CURVE SMOOTH",
"593 -15 OFFCURVE",
"686 79 OFFCURVE",
"686 304 CURVE SMOOTH",
"686 670 LINE",
"472 670 LINE",
"472 314 LINE SMOOTH",
"472 209 OFFCURVE",
"456 162 OFFCURVE",
"371 162 CURVE SMOOTH",
"287 162 OFFCURVE",
"271 209 OFFCURVE",
"271 314 CURVE SMOOTH",
"271 670 LINE"
);
}
);
};
layerId = "84435905-EDCB-4949-A8A3-0E53308A2F50";
paths = (
{
closed = 1;
nodes = (
"65 730 LINE",
"65 328 LINE SMOOTH",
"65 86 OFFCURVE",
"167 -16 OFFCURVE",
"401 -16 CURVE SMOOTH",
"636 -16 OFFCURVE",
"737 86 OFFCURVE",
"737 328 CURVE SMOOTH",
"737 730 LINE",
"517 730 LINE",
"517 334 LINE SMOOTH",
"517 209 OFFCURVE",
"495 157 OFFCURVE",
"401 157 CURVE SMOOTH",
"308 157 OFFCURVE",
"285 209 OFFCURVE",
"285 334 CURVE SMOOTH",
"285 730 LINE"
);
}
);
width = 802;
userData = {
RMXScaler = {
height = 107;
width = 107;
};
};
}
);
unicode = 0055;
userData = {
RMXScaler = {
source = U;
};
};
},
{
color = 7;
glyphname = V;
lastChange = "2017-07-18 14:28:26 +0000";
layers = (
{
background = {
paths = (
{
closed = 1;
nodes = (
"332 120 LINE",
"325 120 LINE",
"163 670 LINE",
"5 670 LINE",
"225 0 LINE",
"432 0 LINE",
"652 670 LINE",
"494 670 LINE"
);
}
);
};
layerId = "C76CAC8E-7AD6-478C-8F7E-02FEF6F1EA84";
paths = (
{
closed = 1;
nodes = (
"357 123 LINE",
"349 123 LINE",
"163 730 LINE",
"5 730 LINE",
"250 0 LINE",
"455 0 LINE",
"700 730 LINE",
"542 730 LINE"
);
}
);
width = 705;
},
{
background = {
paths = (
{
closed = 1;
nodes = (
"299 67 LINE",
"291 67 LINE",
"62 670 LINE",
"-3 670 LINE",
"260 0 LINE",
"330 0 LINE",
"593 670 LINE",
"529 670 LINE"
);
}
);
};
layerId = "0A1AFE58-107D-4787-BDA0-D82FB635C3A6";
paths = (
{
closed = 1;
nodes = (
"299 67 LINE",
"291 67 LINE",
"70 670 LINE",
"5 670 LINE",
"260 0 LINE",
"330 0 LINE",
"585 670 LINE",
"521 670 LINE"
);
}
);
width = 590;
},
{
background = {
paths = (
{
closed = 1;
nodes = (
"357 163 LINE",
"346 163 LINE",
"235 670 LINE",
"10 670 LINE",
"196 0 LINE",
"507 0 LINE",
"693 670 LINE",
"469 670 LINE"
);
}
);
};
layerId = "84435905-EDCB-4949-A8A3-0E53308A2F50";
paths = (
{
closed = 1;
nodes = (
"382 183 LINE",
"371 183 LINE",
"235 730 LINE",
"5 730 LINE",
"221 0 LINE",
"531 0 LINE",
"747 730 LINE",
"518 730 LINE"
);
}
);
width = 752;
userData = {
RMXScaler = {
height = 107;
width = 107;
};
};
}
);
unicode = 0056;
userData = {
RMXScaler = {
source = V;
};
};
},
{
color = 7;
glyphname = W;
lastChange = "2017-07-18 14:28:26 +0000";
layers = (
{
background = {
paths = (
{
closed = 1;
nodes = (
"709 125 LINE",
"701 125 LINE",
"571 670 LINE",
"412 670 LINE",
"282 125 LINE",
"274 125 LINE",
"166 670 LINE",
"8 670 LINE",
"165 0 LINE",
"377 0 LINE",
"488 495 LINE",
"495 495 LINE",
"606 0 LINE",
"818 0 LINE",
"975 670 LINE",
"817 670 LINE"
);
}
);
};
layerId = "C76CAC8E-7AD6-478C-8F7E-02FEF6F1EA84";
paths = (
{
closed = 1;
nodes = (
"768 127 LINE",
"760 127 LINE",
"612 730 LINE",
"451 730 LINE",
"303 127 LINE",
"294 127 LINE",
"168 730 LINE",
"10 730 LINE",
"186 0 LINE",
"397 0 LINE",
"528 556 LINE",
"535 556 LINE",
"665 0 LINE",
"876 0 LINE",
"1052 730 LINE",
"894 730 LINE"
);
}
);
width = 1062;
},
{
background = {
paths = (
{
closed = 1;
nodes = (
"687 65 LINE",
"682 65 LINE",
"505 670 LINE",
"426 670 LINE",
"249 65 LINE",
"244 65 LINE",
"76 670 LINE",
"12 670 LINE",
"208 0 LINE",
"285 0 LINE",
"463 609 LINE",
"468 609 LINE",
"646 0 LINE",
"723 0 LINE",
"919 670 LINE",
"855 670 LINE"
);
}
);
};
layerId = "0A1AFE58-107D-4787-BDA0-D82FB635C3A6";
paths = (
{
closed = 1;
nodes = (
"683 65 LINE",
"678 65 LINE",
"505 670 LINE",
"426 670 LINE",
"253 65 LINE",
"248 65 LINE",
"84 670 LINE",
"20 670 LINE",
"212 0 LINE",
"289 0 LINE",
"463 609 LINE",
"468 609 LINE",
"642 0 LINE",
"719 0 LINE",
"911 670 LINE",
"847 670 LINE"
);
}
);
width = 931;
},
{
background = {
paths = (
{
closed = 1;
nodes = (
"743 173 LINE",
"734 173 LINE",
"645 670 LINE",
"414 670 LINE",
"327 173 LINE",
"318 173 LINE",
"229 670 LINE",
"4 670 LINE",
"164 0 LINE",
"448 0 LINE",
"526 450 LINE",
"533 450 LINE",
"611 0 LINE",
"896 0 LINE",
"1055 670 LINE",
"831 670 LINE"
);
}
);
};
layerId = "84435905-EDCB-4949-A8A3-0E53308A2F50";
paths = (
{
closed = 1;
nodes = (
"802 183 LINE",
"793 183 LINE",
"682 730 LINE",
"451 730 LINE",
"342 183 LINE",
"332 183 LINE",
"231 730 LINE",
"5 730 LINE",
"180 0 LINE",
"468 0 LINE",
"563 505 LINE",
"570 505 LINE",
"665 0 LINE",
"953 0 LINE",
"1128 730 LINE",
"902 730 LINE"
);
}
);
width = 1133;
userData = {
RMXScaler = {
height = 107;
width = 107;
};
};
}
);
unicode = 0057;
userData = {
RMXScaler = {
source = W;
};
};
},
{
color = 7;
glyphname = X;
lastChange = "2017-07-18 14:28:26 +0000";
layers = (
{
background = {
paths = (
{
closed = 1;
nodes = (
"165 0 LINE",
"336 295 LINE",
"406 295 LINE",
"638 670 LINE",
"478 670 LINE",
"307 375 LINE",
"237 375 LINE",
"5 0 LINE"
);
},
{
closed = 1;
nodes = (
"638 0 LINE",
"390 412 LINE",
"320 412 LINE",
"165 670 LINE",
"5 670 LINE",
"253 258 LINE",
"323 258 LINE",
"478 0 LINE"
);
}
);
};
layerId = "C76CAC8E-7AD6-478C-8F7E-02FEF6F1EA84";
paths = (
{
closed = 1;
nodes = (
"170 0 LINE",
"365 326 LINE",
"434 326 LINE",
"689 730 LINE",
"529 730 LINE",
"334 405 LINE",
"265 405 LINE",
"10 0 LINE"
);
},
{
closed = 1;
nodes = (
"689 0 LINE",
"417 443 LINE",
"348 443 LINE",
"170 730 LINE",
"10 730 LINE",
"281 288 LINE",
"351 288 LINE",
"529 0 LINE"
);
}
);
width = 699;
},
{
background = {
paths = (
{
closed = 1;
nodes = (
"94 0 LINE",
"326 322 LINE",
"346 322 LINE",
"601 670 LINE",
"534 670 LINE",
"301 350 LINE",
"281 350 LINE",
"27 0 LINE"
);
},
{
closed = 1;
nodes = (
"601 0 LINE",
"338 368 LINE",
"312 368 LINE",
"95 670 LINE",
"27 670 LINE",
"290 304 LINE",
"316 304 LINE",
"533 0 LINE"
);
}
);
};
layerId = "0A1AFE58-107D-4787-BDA0-D82FB635C3A6";
paths = (
{
closed = 1;
nodes = (
"102 0 LINE",
"326 322 LINE",
"346 322 LINE",
"593 670 LINE",
"526 670 LINE",
"301 350 LINE",
"281 350 LINE",
"35 0 LINE"
);
},
{
closed = 1;
nodes = (
"593 0 LINE",
"338 368 LINE",
"312 368 LINE",
"103 670 LINE",
"35 670 LINE",
"290 304 LINE",
"316 304 LINE",
"525 0 LINE"
);
}
);
width = 628;
},
{
background = {
paths = (
{
closed = 1;
nodes = (
"232 0 LINE",
"383 314 LINE",
"488 314 LINE",
"681 670 LINE",
"452 670 LINE",
"311 372 LINE",
"207 372 LINE",
"4 0 LINE"
);
},
{
closed = 1;
nodes = (
"683 0 LINE",
"444 447 LINE",
"339 447 LINE",
"235 670 LINE",
"6 670 LINE",
"243 225 LINE",
"347 225 LINE",
"454 0 LINE"
);
}
);
};
layerId = "84435905-EDCB-4949-A8A3-0E53308A2F50";
paths = (
{
closed = 1;
nodes = (
"230 0 LINE",
"405 339 LINE",
"510 339 LINE",
"730 730 LINE",
"504 730 LINE",
"337 405 LINE",
"234 405 LINE",
"5 0 LINE"
);
},
{
closed = 1;
nodes = (
"732 0 LINE",
"477 477 LINE",
"364 477 LINE",
"232 730 LINE",
"7 730 LINE",
"259 255 LINE",
"372 255 LINE",
"506 0 LINE"
);
}
);
width = 737;
userData = {
RMXScaler = {
height = 107;
width = 107;
};
};
}
);
unicode = 0058;
userData = {
RMXScaler = {
source = X;
};
};
},
{
color = 7;
glyphname = Y;
lastChange = "2017-07-18 14:28:26 +0000";
layers = (
{
background = {
paths = (
{
closed = 1;
nodes = (
"417 0 LINE",
"417 283 LINE",
"411 230 LINE",
"681 670 LINE",
"518 670 LINE",
"347 383 LINE",
"341 383 LINE",
"168 670 LINE",
"5 670 LINE",
"275 230 LINE",
"269 283 LINE",
"269 0 LINE"
);
}
);
};
layerId = "C76CAC8E-7AD6-478C-8F7E-02FEF6F1EA84";
paths = (
{
closed = 1;
nodes = (
"441 0 LINE",
"441 310 LINE",
"434 252 LINE",
"729 730 LINE",
"566 730 LINE",
"371 406 LINE",
"365 406 LINE",
"168 730 LINE",
"5 730 LINE",
"300 252 LINE",
"293 310 LINE",
"293 0 LINE"
);
}
);
width = 734;
},
{
background = {
paths = (
{
closed = 1;
nodes = (
"330 0 LINE",
"330 291 LINE",
"323 241 LINE",
"601 670 LINE",
"535 670 LINE",
"303 307 LINE",
"300 307 LINE",
"66 670 LINE",
"0 670 LINE",
"277 241 LINE",
"271 291 LINE",
"271 0 LINE"
);
}
);
};
layerId = "0A1AFE58-107D-4787-BDA0-D82FB635C3A6";
paths = (
{
closed = 1;
nodes = (
"330 0 LINE",
"330 291 LINE",
"323 241 LINE",
"596 670 LINE",
"530 670 LINE",
"303 307 LINE",
"300 307 LINE",
"71 670 LINE",
"5 670 LINE",
"277 241 LINE",
"271 291 LINE",
"271 0 LINE"
);
}
);
width = 601;
},
{
background = {
paths = (
{
closed = 1;
nodes = (
"468 0 LINE",
"468 283 LINE",
"462 230 LINE",
"717 670 LINE",
"492 670 LINE",
"364 436 LINE",
"357 436 LINE",
"230 670 LINE",
"5 670 LINE",
"259 230 LINE",
"253 283 LINE",
"253 0 LINE"
);
}
);
};
layerId = "84435905-EDCB-4949-A8A3-0E53308A2F50";
paths = (
{
closed = 1;
nodes = (
"496 0 LINE",
"496 309 LINE",
"490 251 LINE",
"768 730 LINE",
"538 730 LINE",
"391 464 LINE",
"383 464 LINE",
"235 730 LINE",
"5 730 LINE",
"284 251 LINE",
"277 309 LINE",
"277 0 LINE"
);
}
);
width = 773;
userData = {
RMXScaler = {
height = 107;
width = 107;
};
};
}
);
unicode = 0059;
userData = {
RMXScaler = {
source = Y;
};
};
},
{
color = 7;
glyphname = Z;
lastChange = "2017-07-18 14:28:26 +0000";
layers = (
{
background = {
paths = (
{
closed = 1;
nodes = (
"226 131 LINE",
"575 550 LINE",
"575 670 LINE",
"59 670 LINE",
"59 545 LINE",
"408 545 LINE",
"397 560 LINE",
"397 538 LINE",
"49 120 LINE",
"49 0 LINE",
"575 0 LINE",
"575 125 LINE",
"216 125 LINE",
"226 112 LINE"
);
}
);
};
layerId = "C76CAC8E-7AD6-478C-8F7E-02FEF6F1EA84";
paths = (
{
closed = 1;
nodes = (
"233 131 LINE",
"618 610 LINE",
"618 730 LINE",
"66 730 LINE",
"66 605 LINE",
"451 605 LINE",
"440 622 LINE",
"440 598 LINE",
"55 120 LINE",
"55 0 LINE",
"618 0 LINE",
"618 125 LINE",
"223 125 LINE",
"233 111 LINE"
);
}
);
width = 673;
},
{
background = {
paths = (
{
closed = 1;
nodes = (
"133 56 LINE",
"533 621 LINE",
"533 670 LINE",
"70 670 LINE",
"70 616 LINE",
"469 616 LINE",
"460 635 LINE",
"460 614 LINE",
"60 49 LINE",
"60 0 LINE",
"533 0 LINE",
"533 54 LINE",
"129 54 LINE",
"133 45 LINE"
);
}
);
};
layerId = "0A1AFE58-107D-4787-BDA0-D82FB635C3A6";
paths = (
{
closed = 1;
nodes = (
"133 56 LINE",
"518 621 LINE",
"518 670 LINE",
"70 670 LINE",
"70 616 LINE",
"454 616 LINE",
"445 635 LINE",
"445 614 LINE",
"60 49 LINE",
"60 0 LINE",
"518 0 LINE",
"518 54 LINE",
"129 54 LINE",
"133 45 LINE"
);
}
);
width = 578;
},
{
background = {
paths = (
{
closed = 1;
nodes = (
"326 180 LINE",
"629 502 LINE",
"629 670 LINE",
"62 670 LINE",
"62 497 LINE",
"367 497 LINE",
"354 510 LINE",
"354 489 LINE",
"52 168 LINE",
"52 0 LINE",
"629 0 LINE",
"629 173 LINE",
"312 173 LINE",
"326 156 LINE"
);
}
);
};
layerId = "84435905-EDCB-4949-A8A3-0E53308A2F50";
paths = (
{
closed = 1;
nodes = (
"328 182 LINE",
"669 561 LINE",
"669 730 LINE",
"66 730 LINE",
"66 555 LINE",
"409 555 LINE",
"396 569 LINE",
"396 546 LINE",
"55 169 LINE",
"55 0 LINE",
"669 0 LINE",
"669 175 LINE",
"313 175 LINE",
"328 157 LINE"
);
}
);
width = 724;
userData = {
RMXScaler = {
height = 107;
width = 107;
};
};
}
);
unicode = 005A;
userData = {
RMXScaler = {
source = Z;
};
};
},
{
color = 9;
glyphname = a;
lastChange = "2017-07-17 19:45:53 +0000";
layers = (
{
anchors = (
{
name = top;
position = "{310, 525}";
}
);
background = {
paths = (
{
closed = 1;
nodes = (
"314 -15 OFFCURVE",
"378 20 OFFCURVE",
"407 82 CURVE",
"398 75 LINE",
"425 75 LINE",
"405 84 LINE",
"421 0 LINE",
"542 0 LINE",
"542 344 LINE SMOOTH",
"542 471 OFFCURVE",
"477 540 OFFCURVE",
"313 540 CURVE SMOOTH",
"165 540 OFFCURVE",
"87 484 OFFCURVE",
"72 388 CURVE SMOOTH",
"68 362 LINE",
"213 362 LINE",
"217 377 LINE SMOOTH",
"226 410 OFFCURVE",
"249 430 OFFCURVE",
"310 430 CURVE SMOOTH",
"378 430 OFFCURVE",
"405 403 OFFCURVE",
"405 342 CURVE SMOOTH",
"405 218 LINE SMOOTH",
"405 122 OFFCURVE",
"333 90 OFFCURVE",
"268 90 CURVE SMOOTH",
"209 90 OFFCURVE",
"184 106 OFFCURVE",
"184 145 CURVE SMOOTH",
"184 178 OFFCURVE",
"202 199 OFFCURVE",
"265 211 CURVE SMOOTH",
"414 239 LINE SMOOTH",
"454 247 OFFCURVE",
"491 270 OFFCURVE",
"494 309 CURVE",
"494 370 LINE",
"467 370 LINE",
"465 345 OFFCURVE",
"451 331 OFFCURVE",
"414 325 CURVE SMOOTH",
"230 294 LINE SMOOTH",
"94 271 OFFCURVE",
"44 221 OFFCURVE",
"44 134 CURVE SMOOTH",
"44 32 OFFCURVE",
"107 -15 OFFCURVE",
"228 -15 CURVE SMOOTH"
);
}
);
};
layerId = "C76CAC8E-7AD6-478C-8F7E-02FEF6F1EA84";
paths = (
{
closed = 1;
nodes = (
"328 -13 OFFCURVE",
"377 17 OFFCURVE",
"393 79 CURVE",
"384 72 LINE",
"411 72 LINE",
"399 81 LINE",
"414 0 LINE",
"528 0 LINE",
"528 374 LINE SMOOTH",
"528 481 OFFCURVE",
"451 540 OFFCURVE",
"311 540 CURVE SMOOTH",
"166 540 OFFCURVE",
"83 484 OFFCURVE",
"71 388 CURVE SMOOTH",
"69 372 LINE",
"211 372 LINE",
"213 383 LINE SMOOTH",
"219 415 OFFCURVE",
"250 430 OFFCURVE",
"308 430 CURVE SMOOTH",
"372 430 OFFCURVE",
"394 403 OFFCURVE",
"394 362 CURVE SMOOTH",
"394 178 LINE SMOOTH",
"394 122 OFFCURVE",
"364 89 OFFCURVE",
"277 89 CURVE SMOOTH",
"210 89 OFFCURVE",
"190 114 OFFCURVE",
"190 153 CURVE SMOOTH",
"190 186 OFFCURVE",
"210 209 OFFCURVE",
"255 214 CURVE SMOOTH",
"399 232 LINE SMOOTH",
"439 237 OFFCURVE",
"476 263 OFFCURVE",
"479 302 CURVE",
"479 363 LINE",
"452 363 LINE",
"450 338 OFFCURVE",
"436 323 OFFCURVE",
"399 318 CURVE SMOOTH",
"230 297 LINE SMOOTH",
"101 281 OFFCURVE",
"50 224 OFFCURVE",
"50 137 CURVE SMOOTH",
"50 45 OFFCURVE",
"115 -13 OFFCURVE",
"242 -13 CURVE SMOOTH"
);
}
);
width = 603;
},
{
anchors = (
{
name = top;
position = "{303, 514}";
}
);
background = {
paths = (
{
closed = 1;
nodes = (
"339 -15 OFFCURVE",
"399 35 OFFCURVE",
"420 88 CURVE",
"405 82 LINE",
"427 82 LINE",
"418 101 LINE",
"425 0 LINE",
"468 0 LINE",
"468 369 LINE SMOOTH",
"468 475 OFFCURVE",
"408 529 OFFCURVE",
"284 529 CURVE SMOOTH",
"170 529 OFFCURVE",
"107 474 OFFCURVE",
"98 380 CURVE SMOOTH",
"97 370 LINE",
"152 370 LINE",
"153 378 LINE SMOOTH",
"161 444 OFFCURVE",
"193 483 OFFCURVE",
"284 483 CURVE SMOOTH",
"371 483 OFFCURVE",
"416 445 OFFCURVE",
"416 370 CURVE SMOOTH",
"416 182 LINE SMOOTH",
"416 101 OFFCURVE",
"345 30 OFFCURVE",
"244 30 CURVE SMOOTH",
"167 30 OFFCURVE",
"129 67 OFFCURVE",
"129 128 CURVE SMOOTH",
"129 185 OFFCURVE",
"161 223 OFFCURVE",
"238 234 CURVE SMOOTH",
"399 257 LINE SMOOTH",
"440 263 OFFCURVE",
"455 265 OFFCURVE",
"458 306 CURVE",
"458 349 LINE",
"452 349 LINE",
"450 318 OFFCURVE",
"436 303 OFFCURVE",
"396 298 CURVE SMOOTH",
"239 277 LINE SMOOTH",
"124 262 OFFCURVE",
"74 209 OFFCURVE",
"74 122 CURVE SMOOTH",
"74 33 OFFCURVE",
"136 -15 OFFCURVE",
"246 -15 CURVE SMOOTH"
);
}
);
};
layerId = "0A1AFE58-107D-4787-BDA0-D82FB635C3A6";
paths = (
{
closed = 1;
nodes = (
"349 -15 OFFCURVE",
"425 38 OFFCURVE",
"446 91 CURVE",
"435 85 LINE",
"457 85 LINE",
"448 101 LINE",
"454 0 LINE",
"498 0 LINE",
"498 359 LINE SMOOTH",
"498 475 OFFCURVE",
"434 529 OFFCURVE",
"304 529 CURVE SMOOTH",
"174 529 OFFCURVE",
"112 474 OFFCURVE",
"102 380 CURVE SMOOTH",
"101 370 LINE",
"156 370 LINE",
"157 378 LINE SMOOTH",
"166 444 OFFCURVE",
"198 483 OFFCURVE",
"303 483 CURVE SMOOTH",
"396 483 OFFCURVE",
"446 445 OFFCURVE",
"446 360 CURVE SMOOTH",
"446 182 LINE SMOOTH",
"446 101 OFFCURVE",
"355 30 OFFCURVE",
"254 30 CURVE SMOOTH",
"172 30 OFFCURVE",
"133 67 OFFCURVE",
"133 128 CURVE SMOOTH",
"133 185 OFFCURVE",
"166 222 OFFCURVE",
"257 234 CURVE SMOOTH",
"426 257 LINE SMOOTH",
"470 263 OFFCURVE",
"485 265 OFFCURVE",
"488 306 CURVE",
"488 349 LINE",
"482 349 LINE",
"479 318 OFFCURVE",
"465 303 OFFCURVE",
"425 298 CURVE SMOOTH",
"258 277 LINE SMOOTH",
"129 261 OFFCURVE",
"78 209 OFFCURVE",
"78 122 CURVE SMOOTH",
"78 33 OFFCURVE",
"140 -15 OFFCURVE",
"256 -15 CURVE SMOOTH"
);
}
);
width = 588;
},
{
anchors = (
{
name = top;
position = "{341, 534}";
}
);
layerId = "84435905-EDCB-4949-A8A3-0E53308A2F50";
paths = (
{
closed = 1;
nodes = (
"325 -13 OFFCURVE",
"377 15 OFFCURVE",
"403 72 CURVE",
"369 68 LINE",
"427 68 LINE",
"405 84 LINE",
"425 0 LINE",
"596 0 LINE",
"596 339 LINE SMOOTH",
"596 485 OFFCURVE",
"508 549 OFFCURVE",
"342 549 CURVE SMOOTH",
"177 549 OFFCURVE",
"98 494 OFFCURVE",
"75 371 CURVE SMOOTH",
"72 350 LINE",
"266 350 LINE",
"268 362 LINE SMOOTH",
"273 392 OFFCURVE",
"293 407 OFFCURVE",
"337 407 CURVE SMOOTH",
"382 407 OFFCURVE",
"400 387 OFFCURVE",
"400 340 CURVE SMOOTH",
"400 190 LINE SMOOTH",
"400 145 OFFCURVE",
"370 114 OFFCURVE",
"313 114 CURVE SMOOTH",
"271 114 OFFCURVE",
"251 129 OFFCURVE",
"251 161 CURVE SMOOTH",
"251 190 OFFCURVE",
"267 206 OFFCURVE",
"310 211 CURVE SMOOTH",
"428 225 LINE SMOOTH",
"468 230 OFFCURVE",
"505 258 OFFCURVE",
"508 295 CURVE",
"508 370 LINE",
"482 370 LINE",
"480 349 OFFCURVE",
"466 333 OFFCURVE",
"430 329 CURVE SMOOTH",
"224 306 LINE SMOOTH",
"98 291 OFFCURVE",
"49 232 OFFCURVE",
"49 145 CURVE SMOOTH",
"49 42 OFFCURVE",
"118 -13 OFFCURVE",
"243 -13 CURVE SMOOTH"
);
}
);
width = 653;
}
);
rightMetricsKey = n;
unicode = 0061;
userData = {
RMXScaler = {
source = a;
};
};
},
{
color = 9;
glyphname = b;
lastChange = "2017-07-12 10:49:39 +0000";
layers = (
{
background = {
paths = (
{
closed = 1;
nodes = (
"220 122 LINE",
"220 730 LINE",
"80 730 LINE",
"80 0 LINE",
"203 0 LINE"
);
},
{
closed = 1;
nodes = (
"191 442 LINE",
"191 81 LINE",
"220 81 LINE",
"250 28 OFFCURVE",
"294 -15 OFFCURVE",
"375 -15 CURVE SMOOTH",
"529 -15 OFFCURVE",
"609 101 OFFCURVE",
"609 264 CURVE SMOOTH",
"609 426 OFFCURVE",
"539 540 OFFCURVE",
"385 540 CURVE SMOOTH",
"287 540 OFFCURVE",
"240 476 OFFCURVE",
"226 442 CURVE"
);
},
{
closed = 1;
nodes = (
"261 107 OFFCURVE",
"220 164 OFFCURVE",
"220 264 CURVE SMOOTH",
"220 364 OFFCURVE",
"261 418 OFFCURVE",
"345 418 CURVE SMOOTH",
"431 418 OFFCURVE",
"464 364 OFFCURVE",
"464 264 CURVE SMOOTH",
"464 164 OFFCURVE",
"431 107 OFFCURVE",
"345 107 CURVE SMOOTH"
);
}
);
};
layerId = "C76CAC8E-7AD6-478C-8F7E-02FEF6F1EA84";
paths = (
{
closed = 1;
nodes = (
"80 730 LINE",
"80 0 LINE",
"203 0 LINE",
"218 85 LINE",
"225 85 LINE",
"256 19 OFFCURVE",
"312 -14 OFFCURVE",
"386 -14 CURVE SMOOTH",
"529 -14 OFFCURVE",
"615 90 OFFCURVE",
"615 263 CURVE SMOOTH",
"615 436 OFFCURVE",
"529 540 OFFCURVE",
"386 540 CURVE SMOOTH",
"312 540 OFFCURVE",
"256 508 OFFCURVE",
"225 446 CURVE",
"220 446 LINE",
"220 730 LINE"
);
},
{
closed = 1;
nodes = (
"263 106 OFFCURVE",
"220 161 OFFCURVE",
"220 263 CURVE SMOOTH",
"220 365 OFFCURVE",
"263 420 OFFCURVE",
"344 420 CURVE SMOOTH",
"429 420 OFFCURVE",
"470 370 OFFCURVE",
"470 263 CURVE SMOOTH",
"470 156 OFFCURVE",
"429 106 OFFCURVE",
"344 106 CURVE SMOOTH"
);
}
);
width = 662;
},
{
layerId = "0A1AFE58-107D-4787-BDA0-D82FB635C3A6";
paths = (
{
closed = 1;
nodes = (
"100 730 LINE",
"100 0 LINE",
"141 0 LINE",
"155 101 LINE",
"159 101 LINE",
"185 48 OFFCURVE",
"233 -14 OFFCURVE",
"335 -14 CURVE SMOOTH",
"490 -14 OFFCURVE",
"567 87 OFFCURVE",
"567 257 CURVE SMOOTH",
"567 428 OFFCURVE",
"482 529 OFFCURVE",
"335 529 CURVE SMOOTH",
"222 529 OFFCURVE",
"181 464 OFFCURVE",
"159 425 CURVE",
"155 425 LINE",
"155 730 LINE"
);
},
{
closed = 1;
nodes = (
"216 33 OFFCURVE",
"150 149 OFFCURVE",
"150 257 CURVE SMOOTH",
"150 381 OFFCURVE",
"216 482 OFFCURVE",
"336 482 CURVE SMOOTH",
"450 482 OFFCURVE",
"511 402 OFFCURVE",
"511 257 CURVE SMOOTH",
"511 113 OFFCURVE",
"456 33 OFFCURVE",
"336 33 CURVE SMOOTH"
);
}
);
width = 627;
},
{
layerId = "84435905-EDCB-4949-A8A3-0E53308A2F50";
paths = (
{
closed = 1;
nodes = (
"64 730 LINE",
"64 0 LINE",
"245 0 LINE",
"262 81 LINE",
"275 81 LINE",
"296 33 OFFCURVE",
"350 -14 OFFCURVE",
"436 -14 CURVE SMOOTH",
"573 -14 OFFCURVE",
"653 93 OFFCURVE",
"653 267 CURVE SMOOTH",
"653 442 OFFCURVE",
"573 549 OFFCURVE",
"436 549 CURVE SMOOTH",
"350 549 OFFCURVE",
"296 502 OFFCURVE",
"275 455 CURVE",
"269 455 LINE",
"269 730 LINE"
);
},
{
closed = 1;
nodes = (
"299 151 OFFCURVE",
"269 190 OFFCURVE",
"269 267 CURVE SMOOTH",
"269 345 OFFCURVE",
"299 384 OFFCURVE",
"356 384 CURVE SMOOTH",
"417 384 OFFCURVE",
"443 346 OFFCURVE",
"443 267 CURVE SMOOTH",
"443 189 OFFCURVE",
"417 151 OFFCURVE",
"356 151 CURVE SMOOTH"
);
}
);
width = 689;
}
);
leftMetricsKey = h;
rightMetricsKey = "=o";
unicode = 0062;
userData = {
RMXScaler = {
source = b;
};
};
},
{
color = 9;
glyphname = c;
lastChange = "2017-07-12 10:49:39 +0000";
layers = (
{
background = {
paths = (
{
closed = 1;
nodes = (
"444 -15 OFFCURVE",
"530 41 OFFCURVE",
"541 168 CURVE SMOOTH",
"542 180 LINE",
"401 180 LINE",
"400 173 LINE SMOOTH",
"393 125 OFFCURVE",
"370 100 OFFCURVE",
"309 100 CURVE SMOOTH",
"227 100 OFFCURVE",
"193 160 OFFCURVE",
"193 264 CURVE SMOOTH",
"193 368 OFFCURVE",
"227 425 OFFCURVE",
"310 425 CURVE SMOOTH",
"368 425 OFFCURVE",
"393 402 OFFCURVE",
"399 354 CURVE SMOOTH",
"400 347 LINE",
"541 347 LINE",
"540 359 LINE SMOOTH",
"529 486 OFFCURVE",
"443 540 OFFCURVE",
"306 540 CURVE SMOOTH",
"139 540 OFFCURVE",
"47 439 OFFCURVE",
"47 264 CURVE SMOOTH",
"47 88 OFFCURVE",
"139 -15 OFFCURVE",
"305 -15 CURVE SMOOTH"
);
}
);
};
layerId = "C76CAC8E-7AD6-478C-8F7E-02FEF6F1EA84";
paths = (
{
closed = 1;
nodes = (
"445 -15 OFFCURVE",
"542 41 OFFCURVE",
"553 178 CURVE SMOOTH",
"554 190 LINE",
"411 190 LINE",
"410 183 LINE SMOOTH",
"402 125 OFFCURVE",
"367 100 OFFCURVE",
"306 100 CURVE SMOOTH",
"224 100 OFFCURVE",
"193 160 OFFCURVE",
"193 264 CURVE SMOOTH",
"193 368 OFFCURVE",
"223 425 OFFCURVE",
"306 425 CURVE SMOOTH",
"364 425 OFFCURVE",
"402 400 OFFCURVE",
"410 342 CURVE SMOOTH",
"411 335 LINE",
"554 335 LINE",
"553 347 LINE SMOOTH",
"542 484 OFFCURVE",
"443 540 OFFCURVE",
"306 540 CURVE SMOOTH",
"139 540 OFFCURVE",
"47 439 OFFCURVE",
"47 264 CURVE SMOOTH",
"47 88 OFFCURVE",
"139 -15 OFFCURVE",
"306 -15 CURVE SMOOTH"
);
}
);
width = 601;
},
{
layerId = "0A1AFE58-107D-4787-BDA0-D82FB635C3A6";
paths = (
{
closed = 1;
nodes = (
"422 -15 OFFCURVE",
"498 49 OFFCURVE",
"513 155 CURVE SMOOTH",
"514 162 LINE",
"457 162 LINE",
"455 151 LINE SMOOTH",
"441 74 OFFCURVE",
"388 32 OFFCURVE",
"296 32 CURVE SMOOTH",
"183 32 OFFCURVE",
"117 112 OFFCURVE",
"117 264 CURVE SMOOTH",
"117 402 OFFCURVE",
"183 482 OFFCURVE",
"294 482 CURVE SMOOTH",
"381 482 OFFCURVE",
"432 442 OFFCURVE",
"454 363 CURVE SMOOTH",
"457 352 LINE",
"514 352 LINE",
"512 363 LINE SMOOTH",
"496 455 OFFCURVE",
"427 529 OFFCURVE",
"296 529 CURVE SMOOTH",
"160 529 OFFCURVE",
"60 436 OFFCURVE",
"60 264 CURVE SMOOTH",
"60 78 OFFCURVE",
"160 -15 OFFCURVE",
"296 -15 CURVE SMOOTH"
);
}
);
width = 574;
},
{
layerId = "84435905-EDCB-4949-A8A3-0E53308A2F50";
paths = (
{
closed = 1;
nodes = (
"488 -15 OFFCURVE",
"578 57 OFFCURVE",
"586 195 CURVE SMOOTH",
"587 212 LINE",
"396 212 LINE",
"395 205 LINE SMOOTH",
"392 173 OFFCURVE",
"373 148 OFFCURVE",
"322 148 CURVE SMOOTH",
"257 148 OFFCURVE",
"246 208 OFFCURVE",
"246 264 CURVE SMOOTH",
"246 329 OFFCURVE",
"257 386 OFFCURVE",
"323 386 CURVE SMOOTH",
"371 386 OFFCURVE",
"392 361 OFFCURVE",
"395 329 CURVE SMOOTH",
"396 322 LINE",
"587 322 LINE",
"586 338 LINE SMOOTH",
"578 467 OFFCURVE",
"488 549 OFFCURVE",
"315 549 CURVE SMOOTH",
"143 549 OFFCURVE",
"36 448 OFFCURVE",
"36 264 CURVE SMOOTH",
"36 88 OFFCURVE",
"143 -15 OFFCURVE",
"315 -15 CURVE SMOOTH"
);
}
);
width = 623;
}
);
leftMetricsKey = "=o";
rightMetricsKey = o;
unicode = 0063;
userData = {
RMXScaler = {
source = c;
};
};
},
{
glyphname = d;
lastChange = "2017-07-17 11:43:04 +0000";
layers = (
{
background = {
paths = (
{
closed = 1;
nodes = (
"435 446 LINE",
"430 446 LINE",
"399 508 OFFCURVE",
"343 540 OFFCURVE",
"269 540 CURVE SMOOTH",
"126 540 OFFCURVE",
"40 436 OFFCURVE",
"40 263 CURVE SMOOTH",
"40 90 OFFCURVE",
"126 -14 OFFCURVE",
"269 -14 CURVE SMOOTH",
"343 -14 OFFCURVE",
"399 19 OFFCURVE",
"430 85 CURVE",
"437 85 LINE",
"452 0 LINE",
"575 0 LINE",
"575 730 LINE",
"435 730 LINE"
);
},
{
closed = 1;
nodes = (
"226 106 OFFCURVE",
"185 156 OFFCURVE",
"185 263 CURVE SMOOTH",
"185 370 OFFCURVE",
"226 420 OFFCURVE",
"311 420 CURVE SMOOTH",
"392 420 OFFCURVE",
"435 365 OFFCURVE",
"435 263 CURVE SMOOTH",
"435 161 OFFCURVE",
"392 106 OFFCURVE",
"311 106 CURVE SMOOTH"
);
}
);
};
components = (
{
name = b;
transform = "{-1, 0, 0, 1, 662, 0}";
}
);
guideLines = (
{
position = "{946, 418}";
}
);
layerId = "C76CAC8E-7AD6-478C-8F7E-02FEF6F1EA84";
width = 662;
},
{
components = (
{
name = b;
transform = "{-1, 0, 0, 1, 627, 0}";
}
);
layerId = "0A1AFE58-107D-4787-BDA0-D82FB635C3A6";
width = 627;
},
{
components = (
{
name = b;
transform = "{-1, 0, 0, 1, 689, 0}";
}
);
layerId = "84435905-EDCB-4949-A8A3-0E53308A2F50";
width = 689;
}
);
leftMetricsKey = "=o";
rightMetricsKey = "=|n";
unicode = 0064;
userData = {
RMXScaler = {
source = d;
};
};
},
{
color = 9;
glyphname = e;
lastChange = "2017-07-17 19:48:05 +0000";
layers = (
{
anchors = (
{
name = top;
position = "{309, 525}";
}
);
background = {
paths = (
{
closed = 1;
nodes = (
"448 -15 OFFCURVE",
"533 39 OFFCURVE",
"550 136 CURVE SMOOTH",
"552 147 LINE",
"411 147 LINE",
"409 141 LINE SMOOTH",
"400 113 OFFCURVE",
"367 100 OFFCURVE",
"312 100 CURVE SMOOTH",
"231 100 OFFCURVE",
"189 141 OFFCURVE",
"189 225 CURVE SMOOTH",
"189 306 LINE SMOOTH",
"189 387 OFFCURVE",
"240 429 OFFCURVE",
"307 429 CURVE SMOOTH",
"388 429 OFFCURVE",
"417 391 OFFCURVE",
"417 306 CURVE SMOOTH",
"417 287 LINE",
"434 311 LINE",
"155 311 LINE",
"155 221 LINE",
"556 221 LINE",
"556 284 LINE SMOOTH",
"556 442 OFFCURVE",
"479 540 OFFCURVE",
"309 540 CURVE SMOOTH",
"152 540 OFFCURVE",
"47 444 OFFCURVE",
"47 259 CURVE SMOOTH",
"47 93 OFFCURVE",
"132 -15 OFFCURVE",
"313 -15 CURVE SMOOTH"
);
}
);
};
guideLines = (
{
angle = 91.7357;
position = "{536, 225}";
}
);
layerId = "C76CAC8E-7AD6-478C-8F7E-02FEF6F1EA84";
paths = (
{
closed = 1;
nodes = (
"448 -15 OFFCURVE",
"532 39 OFFCURVE",
"550 136 CURVE SMOOTH",
"552 147 LINE",
"411 147 LINE",
"409 141 LINE SMOOTH",
"400 113 OFFCURVE",
"367 100 OFFCURVE",
"312 100 CURVE SMOOTH",
"216 100 OFFCURVE",
"189 143 OFFCURVE",
"189 262 CURVE SMOOTH",
"189 376 OFFCURVE",
"216 429 OFFCURVE",
"307 429 CURVE SMOOTH",
"388 429 OFFCURVE",
"417 391 OFFCURVE",
"417 306 CURVE SMOOTH",
"417 287 LINE",
"434 311 LINE",
"155 311 LINE",
"155 221 LINE",
"556 221 LINE",
"556 284 LINE SMOOTH",
"556 442 OFFCURVE",
"479 540 OFFCURVE",
"309 540 CURVE SMOOTH",
"152 540 OFFCURVE",
"47 444 OFFCURVE",
"47 259 CURVE SMOOTH",
"47 93 OFFCURVE",
"132 -15 OFFCURVE",
"313 -15 CURVE SMOOTH"
);
}
);
width = 603;
},
{
anchors = (
{
name = top;
position = "{299, 514}";
}
);
layerId = "0A1AFE58-107D-4787-BDA0-D82FB635C3A6";
paths = (
{
closed = 1;
nodes = (
"426 -15 OFFCURVE",
"487 45 OFFCURVE",
"508 114 CURVE SMOOTH",
"511 124 LINE",
"454 124 LINE",
"451 116 LINE SMOOTH",
"432 66 OFFCURVE",
"392 32 OFFCURVE",
"299 32 CURVE SMOOTH",
"183 32 OFFCURVE",
"114 112 OFFCURVE",
"114 249 CURVE SMOOTH",
"114 402 OFFCURVE",
"183 482 OFFCURVE",
"299 482 CURVE SMOOTH",
"416 482 OFFCURVE",
"467 395 OFFCURVE",
"467 278 CURVE SMOOTH",
"467 248 LINE",
"477 280 LINE",
"93 280 LINE",
"93 235 LINE",
"517 235 LINE",
"517 280 LINE SMOOTH",
"517 433 OFFCURVE",
"439 529 OFFCURVE",
"299 529 CURVE SMOOTH",
"159 529 OFFCURVE",
"60 436 OFFCURVE",
"60 250 CURVE SMOOTH",
"60 78 OFFCURVE",
"160 -15 OFFCURVE",
"298 -15 CURVE SMOOTH"
);
}
);
width = 577;
},
{
anchors = (
{
name = top;
position = "{322, 534}";
}
);
layerId = "84435905-EDCB-4949-A8A3-0E53308A2F50";
paths = (
{
closed = 1;
nodes = (
"507 -16 OFFCURVE",
"580 63 OFFCURVE",
"596 167 CURVE SMOOTH",
"598 180 LINE",
"407 180 LINE",
"403 171 LINE SMOOTH",
"392 146 OFFCURVE",
"367 136 OFFCURVE",
"326 136 CURVE SMOOTH",
"249 136 OFFCURVE",
"233 168 OFFCURVE",
"233 273 CURVE SMOOTH",
"233 360 OFFCURVE",
"252 398 OFFCURVE",
"324 398 CURVE SMOOTH",
"385 398 OFFCURVE",
"407 365 OFFCURVE",
"407 312 CURVE SMOOTH",
"407 286 LINE",
"446 315 LINE",
"209 315 LINE",
"209 225 LINE",
"599 225 LINE",
"598 289 LINE SMOOTH",
"597 452 OFFCURVE",
"495 549 OFFCURVE",
"321 549 CURVE SMOOTH",
"144 549 OFFCURVE",
"36 444 OFFCURVE",
"36 266 CURVE SMOOTH",
"36 94 OFFCURVE",
"135 -16 OFFCURVE",
"322 -16 CURVE SMOOTH"
);
}
);
width = 635;
}
);
leftMetricsKey = "=o";
rightMetricsKey = o;
unicode = 0065;
userData = {
RMXScaler = {
source = e;
};
};
},
{
color = 9;
glyphname = f;
lastChange = "2017-07-12 10:49:39 +0000";
layers = (
{
background = {
paths = (
{
closed = 1;
nodes = (
"419 410 LINE",
"419 525 LINE",
"34 525 LINE",
"34 410 LINE"
);
},
{
closed = 1;
nodes = (
"415 739 OFFCURVE",
"361 745 OFFCURVE",
"330 745 CURVE SMOOTH",
"195 745 OFFCURVE",
"124 699 OFFCURVE",
"124 539 CURVE SMOOTH",
"124 0 LINE",
"264 0 LINE",
"264 536 LINE SMOOTH",
"264 613 OFFCURVE",
"277 630 OFFCURVE",
"357 630 CURVE SMOOTH",
"377 630 OFFCURVE",
"420 627 OFFCURVE",
"434 625 CURVE",
"434 735 LINE"
);
}
);
};
layerId = "C76CAC8E-7AD6-478C-8F7E-02FEF6F1EA84";
paths = (
{
closed = 1;
nodes = (
"392 410 LINE",
"392 525 LINE",
"35 525 LINE",
"35 410 LINE"
);
},
{
closed = 1;
nodes = (
"378 742 OFFCURVE",
"341 746 OFFCURVE",
"308 746 CURVE SMOOTH",
"183 746 OFFCURVE",
"124 680 OFFCURVE",
"124 562 CURVE SMOOTH",
"124 0 LINE",
"264 0 LINE",
"264 553 LINE SMOOTH",
"264 612 OFFCURVE",
"289 629 OFFCURVE",
"339 629 CURVE SMOOTH",
"361 629 OFFCURVE",
"387 626 OFFCURVE",
"398 624 CURVE",
"398 738 LINE"
);
}
);
width = 408;
},
{
layerId = "0A1AFE58-107D-4787-BDA0-D82FB635C3A6";
paths = (
{
closed = 1;
nodes = (
"339 464 LINE",
"339 514 LINE",
"31 514 LINE",
"31 464 LINE"
);
},
{
closed = 1;
nodes = (
"346 742 OFFCURVE",
"324 745 OFFCURVE",
"304 745 CURVE SMOOTH",
"198 745 OFFCURVE",
"136 692 OFFCURVE",
"136 562 CURVE SMOOTH",
"136 0 LINE",
"191 0 LINE",
"191 559 LINE SMOOTH",
"191 656 OFFCURVE",
"221 696 OFFCURVE",
"306 696 CURVE SMOOTH",
"327 696 OFFCURVE",
"352 692 OFFCURVE",
"360 690 CURVE",
"360 738 LINE"
);
}
);
width = 360;
},
{
layerId = "84435905-EDCB-4949-A8A3-0E53308A2F50";
paths = (
{
closed = 1;
nodes = (
"441 380 LINE",
"441 534 LINE",
"30 534 LINE",
"30 380 LINE"
);
},
{
closed = 1;
nodes = (
"435 738 OFFCURVE",
"393 745 OFFCURVE",
"335 745 CURVE SMOOTH",
"186 745 OFFCURVE",
"113 705 OFFCURVE",
"113 551 CURVE SMOOTH",
"113 0 LINE",
"318 0 LINE",
"318 530 LINE SMOOTH",
"318 578 OFFCURVE",
"322 595 OFFCURVE",
"371 595 CURVE SMOOTH",
"418 595 OFFCURVE",
"441 590 OFFCURVE",
"453 588 CURVE",
"453 734 LINE"
);
}
);
width = 454;
}
);
unicode = 0066;
userData = {
RMXScaler = {
source = f;
};
};
},
{
color = 9;
glyphname = g;
lastChange = "2017-07-12 10:49:39 +0000";
layers = (
{
background = {
paths = (
{
closed = 1;
nodes = (
"446 434 LINE",
"440 434 LINE",
"420 497 OFFCURVE",
"363 540 OFFCURVE",
"277 540 CURVE SMOOTH",
"123 540 OFFCURVE",
"53 424 OFFCURVE",
"53 276 CURVE SMOOTH",
"53 129 OFFCURVE",
"123 15 OFFCURVE",
"277 15 CURVE SMOOTH",
"375 15 OFFCURVE",
"417 69 OFFCURVE",
"436 103 CURVE",
"442 103 LINE",
"442 35 LINE SMOOTH",
"442 -42 OFFCURVE",
"407 -95 OFFCURVE",
"319 -95 CURVE SMOOTH",
"252 -95 OFFCURVE",
"227 -74 OFFCURVE",
"222 -42 CURVE SMOOTH",
"221 -35 LINE",
"73 -35 LINE",
"74 -52 LINE SMOOTH",
"80 -152 OFFCURVE",
"158 -210 OFFCURVE",
"319 -210 CURVE SMOOTH",
"503 -210 OFFCURVE",
"582 -112 OFFCURVE",
"582 49 CURVE SMOOTH",
"582 525 LINE",
"459 525 LINE"
);
},
{
closed = 1;
nodes = (
"231 137 OFFCURVE",
"198 191 OFFCURVE",
"198 276 CURVE SMOOTH",
"198 361 OFFCURVE",
"231 418 OFFCURVE",
"317 418 CURVE SMOOTH",
"401 418 OFFCURVE",
"442 361 OFFCURVE",
"442 276 CURVE SMOOTH",
"442 191 OFFCURVE",
"401 137 OFFCURVE",
"317 137 CURVE SMOOTH"
);
}
);
};
guideLines = (
{
angle = 270;
position = "{53, 54}";
}
);
layerId = "C76CAC8E-7AD6-478C-8F7E-02FEF6F1EA84";
paths = (
{
closed = 1;
nodes = (
"446 434 LINE",
"440 434 LINE",
"420 497 OFFCURVE",
"360 540 OFFCURVE",
"274 540 CURVE SMOOTH",
"120 540 OFFCURVE",
"47 424 OFFCURVE",
"47 276 CURVE SMOOTH",
"47 129 OFFCURVE",
"120 15 OFFCURVE",
"274 15 CURVE SMOOTH",
"372 15 OFFCURVE",
"417 69 OFFCURVE",
"436 103 CURVE",
"442 103 LINE",
"442 35 LINE SMOOTH",
"442 -42 OFFCURVE",
"407 -95 OFFCURVE",
"319 -95 CURVE SMOOTH",
"252 -95 OFFCURVE",
"227 -74 OFFCURVE",
"222 -42 CURVE SMOOTH",
"221 -35 LINE",
"73 -35 LINE",
"74 -52 LINE SMOOTH",
"80 -152 OFFCURVE",
"158 -210 OFFCURVE",
"319 -210 CURVE SMOOTH",
"503 -210 OFFCURVE",
"582 -112 OFFCURVE",
"582 49 CURVE SMOOTH",
"582 525 LINE",
"459 525 LINE"
);
},
{
closed = 1;
nodes = (
"228 137 OFFCURVE",
"192 191 OFFCURVE",
"192 276 CURVE SMOOTH",
"192 361 OFFCURVE",
"228 418 OFFCURVE",
"314 418 CURVE SMOOTH",
"398 418 OFFCURVE",
"442 361 OFFCURVE",
"442 276 CURVE SMOOTH",
"442 191 OFFCURVE",
"398 137 OFFCURVE",
"314 137 CURVE SMOOTH"
);
}
);
width = 659;
},
{
layerId = "0A1AFE58-107D-4787-BDA0-D82FB635C3A6";
paths = (
{
closed = 1;
nodes = (
"477 420 LINE",
"474 420 LINE",
"445 464 OFFCURVE",
"404 529 OFFCURVE",
"292 529 CURVE SMOOTH",
"145 529 OFFCURVE",
"60 428 OFFCURVE",
"60 269 CURVE SMOOTH",
"60 97 OFFCURVE",
"137 -5 OFFCURVE",
"292 -5 CURVE SMOOTH",
"393 -5 OFFCURVE",
"441 58 OFFCURVE",
"468 111 CURVE",
"474 111 LINE",
"474 39 LINE SMOOTH",
"474 -114 OFFCURVE",
"408 -162 OFFCURVE",
"300 -162 CURVE SMOOTH",
"221 -162 OFFCURVE",
"168 -133 OFFCURVE",
"148 -75 CURVE SMOOTH",
"146 -69 LINE",
"86 -69 LINE",
"88 -77 LINE SMOOTH",
"112 -170 OFFCURVE",
"197 -210 OFFCURVE",
"300 -210 CURVE SMOOTH",
"441 -210 OFFCURVE",
"529 -140 OFFCURVE",
"529 37 CURVE SMOOTH",
"529 514 LINE",
"487 514 LINE"
);
},
{
closed = 1;
nodes = (
"177 42 OFFCURVE",
"116 123 OFFCURVE",
"116 269 CURVE SMOOTH",
"116 402 OFFCURVE",
"177 482 OFFCURVE",
"291 482 CURVE SMOOTH",
"410 482 OFFCURVE",
"477 381 OFFCURVE",
"477 269 CURVE SMOOTH",
"477 159 OFFCURVE",
"410 42 OFFCURVE",
"291 42 CURVE SMOOTH"
);
}
);
width = 624;
},
{
layerId = "84435905-EDCB-4949-A8A3-0E53308A2F50";
paths = (
{
closed = 1;
nodes = (
"428 448 LINE",
"417 448 LINE",
"393 498 OFFCURVE",
"353 549 OFFCURVE",
"262 549 CURVE SMOOTH",
"114 549 OFFCURVE",
"36 440 OFFCURVE",
"36 286 CURVE SMOOTH",
"36 132 OFFCURVE",
"113 32 OFFCURVE",
"252 32 CURVE SMOOTH",
"332 32 OFFCURVE",
"387 67 OFFCURVE",
"415 113 CURVE",
"421 113 LINE",
"421 44 LINE SMOOTH",
"421 -33 OFFCURVE",
"401 -60 OFFCURVE",
"342 -60 CURVE SMOOTH",
"295 -60 OFFCURVE",
"278 -44 OFFCURVE",
"271 -17 CURVE SMOOTH",
"270 -9 LINE",
"62 -9 LINE",
"63 -26 LINE SMOOTH",
"70 -143 OFFCURVE",
"154 -210 OFFCURVE",
"338 -210 CURVE SMOOTH",
"545 -210 OFFCURVE",
"626 -109 OFFCURVE",
"626 78 CURVE SMOOTH",
"626 534 LINE",
"445 534 LINE"
);
},
{
closed = 1;
nodes = (
"273 182 OFFCURVE",
"246 220 OFFCURVE",
"246 284 CURVE SMOOTH",
"246 345 OFFCURVE",
"273 385 OFFCURVE",
"334 385 CURVE SMOOTH",
"395 385 OFFCURVE",
"421 345 OFFCURVE",
"421 284 CURVE SMOOTH",
"421 220 OFFCURVE",
"395 182 OFFCURVE",
"334 182 CURVE SMOOTH"
);
}
);
width = 686;
}
);
leftMetricsKey = "=o";
rightMetricsKey = "=|n";
unicode = 0067;
userData = {
RMXScaler = {
source = g;
};
};
},
{
color = 9;
glyphname = h;
lastChange = "2017-07-18 09:52:19 +0000";
layers = (
{
background = {
paths = (
{
closed = 1;
nodes = (
"220 0 LINE",
"220 288 LINE SMOOTH",
"220 368 OFFCURVE",
"266 415 OFFCURVE",
"339 415 CURVE SMOOTH",
"405 415 OFFCURVE",
"433 381 OFFCURVE",
"433 302 CURVE SMOOTH",
"433 0 LINE",
"573 0 LINE",
"573 350 LINE SMOOTH",
"573 471 OFFCURVE",
"516 540 OFFCURVE",
"399 540 CURVE SMOOTH",
"300 540 OFFCURVE",
"254 494 OFFCURVE",
"217 424 CURVE",
"237 437 LINE",
"202 437 LINE",
"220 433 LINE",
"220 730 LINE",
"80 730 LINE",
"80 0 LINE"
);
}
);
};
layerId = "C76CAC8E-7AD6-478C-8F7E-02FEF6F1EA84";
paths = (
{
closed = 1;
nodes = (
"220 0 LINE",
"220 288 LINE SMOOTH",
"220 368 OFFCURVE",
"266 415 OFFCURVE",
"339 415 CURVE SMOOTH",
"405 415 OFFCURVE",
"433 381 OFFCURVE",
"433 302 CURVE SMOOTH",
"433 0 LINE",
"573 0 LINE",
"573 350 LINE SMOOTH",
"573 471 OFFCURVE",
"516 540 OFFCURVE",
"399 540 CURVE SMOOTH",
"300 540 OFFCURVE",
"254 494 OFFCURVE",
"217 424 CURVE",
"237 437 LINE",
"202 437 LINE",
"220 433 LINE",
"220 770 LINE",
"80 770 LINE",
"80 0 LINE"
);
}
);
width = 648;
},
{
layerId = "0A1AFE58-107D-4787-BDA0-D82FB635C3A6";
paths = (
{
closed = 1;
nodes = (
"155 0 LINE",
"155 278 LINE SMOOTH",
"155 391 OFFCURVE",
"237 477 OFFCURVE",
"336 477 CURVE SMOOTH",
"421 477 OFFCURVE",
"467 432 OFFCURVE",
"467 316 CURVE SMOOTH",
"467 0 LINE",
"522 0 LINE",
"522 345 LINE SMOOTH",
"522 473 OFFCURVE",
"449 529 OFFCURVE",
"342 529 CURVE SMOOTH",
"241 529 OFFCURVE",
"177 470 OFFCURVE",
"144 395 CURVE",
"179 420 LINE",
"140 420 LINE",
"155 400 LINE",
"155 730 LINE",
"100 730 LINE",
"100 0 LINE"
);
}
);
width = 612;
},
{
background = {
paths = (
{
closed = 1;
nodes = (
"269 0 LINE",
"269 279 LINE SMOOTH",
"269 333 OFFCURVE",
"303 367 OFFCURVE",
"356 367 CURVE SMOOTH",
"404 367 OFFCURVE",
"419 342 OFFCURVE",
"419 292 CURVE SMOOTH",
"419 0 LINE",
"624 0 LINE",
"624 347 LINE SMOOTH",
"624 469 OFFCURVE",
"578 549 OFFCURVE",
"451 549 CURVE SMOOTH",
"347 549 OFFCURVE",
"298 491 OFFCURVE",
"262 404 CURVE",
"284 434 LINE",
"250 434 LINE",
"269 413 LINE",
"269 730 LINE",
"64 730 LINE",
"64 0 LINE"
);
}
);
};
layerId = "84435905-EDCB-4949-A8A3-0E53308A2F50";
paths = (
{
closed = 1;
nodes = (
"269 0 LINE",
"269 279 LINE SMOOTH",
"269 333 OFFCURVE",
"303 367 OFFCURVE",
"356 367 CURVE SMOOTH",
"404 367 OFFCURVE",
"419 342 OFFCURVE",
"419 292 CURVE SMOOTH",
"419 0 LINE",
"624 0 LINE",
"624 347 LINE SMOOTH",
"624 469 OFFCURVE",
"578 549 OFFCURVE",
"451 549 CURVE SMOOTH",
"347 549 OFFCURVE",
"298 491 OFFCURVE",
"262 404 CURVE",
"284 434 LINE",
"250 434 LINE",
"269 413 LINE",
"269 770 LINE",
"64 770 LINE",
"64 0 LINE"
);
}
);
width = 681;
}
);
rightMetricsKey = "=n";
unicode = 0068;
userData = {
RMXScaler = {
source = h;
};
};
},
{
color = 9;
glyphname = i;
lastChange = "2017-07-18 13:19:20 +0000";
layers = (
{
anchors = (
{
name = top;
position = "{150, 525}";
}
);
background = {
paths = (
{
closed = 1;
nodes = (
"220 0 LINE",
"220 525 LINE",
"80 525 LINE",
"80 0 LINE"
);
},
{
closed = 1;
nodes = (
"201 588 OFFCURVE",
"235 610 OFFCURVE",
"235 664 CURVE SMOOTH",
"235 718 OFFCURVE",
"201 740 OFFCURVE",
"150 740 CURVE SMOOTH",
"99 740 OFFCURVE",
"65 718 OFFCURVE",
"65 664 CURVE SMOOTH",
"65 610 OFFCURVE",
"99 588 OFFCURVE",
"150 588 CURVE SMOOTH"
);
}
);
};
components = (
{
name = dotaccentcomb;
transform = "{1, 0, 0, 1, 150, 0}";
}
);
layerId = "C76CAC8E-7AD6-478C-8F7E-02FEF6F1EA84";
paths = (
{
closed = 1;
nodes = (
"220 0 LINE",
"220 525 LINE",
"80 525 LINE",
"80 0 LINE"
);
}
);
width = 300;
},
{
anchors = (
{
name = top;
position = "{123, 514}";
}
);
background = {
paths = (
{
closed = 1;
nodes = (
"150 0 LINE",
"150 514 LINE",
"95 514 LINE",
"95 0 LINE"
);
},
{
closed = 1;
nodes = (
"146 584 OFFCURVE",
"164 598 OFFCURVE",
"164 627 CURVE SMOOTH",
"164 656 OFFCURVE",
"146 670 OFFCURVE",
"122 670 CURVE SMOOTH",
"97 670 OFFCURVE",
"80 656 OFFCURVE",
"80 627 CURVE SMOOTH",
"80 598 OFFCURVE",
"97 584 OFFCURVE",
"122 584 CURVE SMOOTH"
);
}
);
};
components = (
{
name = dotaccentcomb;
transform = "{1, 0, 0, 1, 122, 0}";
}
);
layerId = "0A1AFE58-107D-4787-BDA0-D82FB635C3A6";
paths = (
{
closed = 1;
nodes = (
"150 0 LINE",
"150 514 LINE",
"95 514 LINE",
"95 0 LINE"
);
}
);
width = 244;
},
{
anchors = (
{
name = top;
position = "{165, 534}";
}
);
background = {
paths = (
{
closed = 1;
nodes = (
"266 0 LINE",
"266 534 LINE",
"61 534 LINE",
"61 0 LINE"
);
},
{
closed = 1;
nodes = (
"239 599 OFFCURVE",
"280 633 OFFCURVE",
"280 696 CURVE SMOOTH",
"280 759 OFFCURVE",
"239 793 OFFCURVE",
"165 793 CURVE SMOOTH",
"89 793 OFFCURVE",
"48 759 OFFCURVE",
"48 696 CURVE SMOOTH",
"48 633 OFFCURVE",
"89 599 OFFCURVE",
"165 599 CURVE SMOOTH"
);
}
);
};
components = (
{
name = dotaccentcomb;
transform = "{1, 0, 0, 1, 164, 0}";
}
);
layerId = "84435905-EDCB-4949-A8A3-0E53308A2F50";
paths = (
{
closed = 1;
nodes = (
"266 0 LINE",
"266 534 LINE",
"61 534 LINE",
"61 0 LINE"
);
}
);
width = 328;
}
);
unicode = 0069;
userData = {
RMXScaler = {
source = i;
};
};
},
{
color = 9;
glyphname = j;
lastChange = "2017-07-12 10:49:39 +0000";
layers = (
{
background = {
paths = (
{
closed = 1;
nodes = (
"-20 -200 LINE",
"-4 -205 OFFCURVE",
"31 -210 OFFCURVE",
"57 -210 CURVE SMOOTH",
"173 -210 OFFCURVE",
"222 -154 OFFCURVE",
"222 -34 CURVE SMOOTH",
"222 525 LINE",
"82 525 LINE",
"82 -26 LINE SMOOTH",
"82 -81 OFFCURVE",
"61 -95 OFFCURVE",
"25 -95 CURVE SMOOTH",
"12 -95 OFFCURVE",
"-7 -94 OFFCURVE",
"-20 -93 CURVE"
);
},
{
closed = 1;
nodes = (
"203 588 OFFCURVE",
"237 610 OFFCURVE",
"237 664 CURVE SMOOTH",
"237 718 OFFCURVE",
"203 740 OFFCURVE",
"152 740 CURVE SMOOTH",
"101 740 OFFCURVE",
"67 718 OFFCURVE",
"67 664 CURVE SMOOTH",
"67 610 OFFCURVE",
"101 588 OFFCURVE",
"152 588 CURVE SMOOTH"
);
}
);
};
layerId = "C76CAC8E-7AD6-478C-8F7E-02FEF6F1EA84";
paths = (
{
closed = 1;
nodes = (
"-40 -200 LINE",
"-24 -205 OFFCURVE",
"21 -210 OFFCURVE",
"47 -210 CURVE SMOOTH",
"173 -210 OFFCURVE",
"222 -134 OFFCURVE",
"222 -4 CURVE SMOOTH",
"222 525 LINE",
"82 525 LINE",
"82 4 LINE SMOOTH",
"82 -71 OFFCURVE",
"61 -95 OFFCURVE",
"5 -95 CURVE SMOOTH",
"-8 -95 OFFCURVE",
"-27 -94 OFFCURVE",
"-40 -93 CURVE"
);
},
{
closed = 1;
nodes = (
"203 588 OFFCURVE",
"237 610 OFFCURVE",
"237 664 CURVE SMOOTH",
"237 718 OFFCURVE",
"203 740 OFFCURVE",
"152 740 CURVE SMOOTH",
"101 740 OFFCURVE",
"67 718 OFFCURVE",
"67 664 CURVE SMOOTH",
"67 610 OFFCURVE",
"101 588 OFFCURVE",
"152 588 CURVE SMOOTH"
);
}
);
width = 302;
},
{
layerId = "0A1AFE58-107D-4787-BDA0-D82FB635C3A6";
paths = (
{
closed = 1;
nodes = (
"-15 -204 LINE",
"-4 -207 OFFCURVE",
"15 -210 OFFCURVE",
"30 -210 CURVE SMOOTH",
"119 -210 OFFCURVE",
"156 -165 OFFCURVE",
"156 -50 CURVE SMOOTH",
"156 514 LINE",
"101 514 LINE",
"101 -50 LINE SMOOTH",
"101 -136 OFFCURVE",
"82 -161 OFFCURVE",
"24 -161 CURVE SMOOTH",
"12 -161 OFFCURVE",
"-5 -159 OFFCURVE",
"-15 -157 CURVE"
);
},
{
closed = 1;
nodes = (
"152 584 OFFCURVE",
"171 598 OFFCURVE",
"171 627 CURVE SMOOTH",
"171 656 OFFCURVE",
"152 670 OFFCURVE",
"128 670 CURVE SMOOTH",
"104 670 OFFCURVE",
"87 656 OFFCURVE",
"87 627 CURVE SMOOTH",
"87 598 OFFCURVE",
"104 584 OFFCURVE",
"128 584 CURVE SMOOTH"
);
}
);
width = 251;
},
{
layerId = "84435905-EDCB-4949-A8A3-0E53308A2F50";
paths = (
{
closed = 1;
nodes = (
"-56 -196 LINE",
"-29 -202 OFFCURVE",
"12 -210 OFFCURVE",
"65 -210 CURVE SMOOTH",
"220 -210 OFFCURVE",
"277 -134 OFFCURVE",
"277 31 CURVE SMOOTH",
"277 534 LINE",
"72 534 LINE",
"72 34 LINE SMOOTH",
"72 -32 OFFCURVE",
"51 -56 OFFCURVE",
"-4 -56 CURVE SMOOTH",
"-19 -56 OFFCURVE",
"-40 -53 OFFCURVE",
"-56 -51 CURVE"
);
},
{
closed = 1;
nodes = (
"249 599 OFFCURVE",
"290 633 OFFCURVE",
"290 696 CURVE SMOOTH",
"290 759 OFFCURVE",
"249 793 OFFCURVE",
"175 793 CURVE SMOOTH",
"99 793 OFFCURVE",
"57 759 OFFCURVE",
"57 696 CURVE SMOOTH",
"57 633 OFFCURVE",
"99 599 OFFCURVE",
"175 599 CURVE SMOOTH"
);
}
);
width = 338;
}
);
rightMetricsKey = "=i";
unicode = 006A;
userData = {
RMXScaler = {
source = j;
};
};
},
{
color = 9;
glyphname = k;
lastChange = "2017-07-12 10:49:39 +0000";
layers = (
{
guideLines = (
{
angle = 46.5765;
position = "{336, 273}";
},
{
angle = 124.957;
position = "{399, 0}";
}
);
layerId = "C76CAC8E-7AD6-478C-8F7E-02FEF6F1EA84";
paths = (
{
closed = 1;
nodes = (
"293 221 LINE",
"570 525 LINE",
"410 525 LINE",
"226 323 LINE",
"193 323 LINE",
"193 221 LINE"
);
},
{
closed = 1;
nodes = (
"220 0 LINE",
"220 730 LINE",
"80 730 LINE",
"80 0 LINE"
);
},
{
closed = 1;
nodes = (
"580 0 LINE",
"366 319 LINE",
"247 253 LINE",
"420 0 LINE"
);
}
);
width = 600;
},
{
layerId = "0A1AFE58-107D-4787-BDA0-D82FB635C3A6";
paths = (
{
closed = 1;
nodes = (
"176 244 LINE",
"487 514 LINE",
"408 514 LINE",
"158 295 LINE",
"136 295 LINE",
"136 244 LINE"
);
},
{
closed = 1;
nodes = (
"155 0 LINE",
"155 730 LINE",
"100 730 LINE",
"100 0 LINE"
);
},
{
closed = 1;
nodes = (
"497 0 LINE",
"201 297 LINE",
"162 259 LINE",
"423 0 LINE"
);
}
);
width = 517;
},
{
layerId = "84435905-EDCB-4949-A8A3-0E53308A2F50";
paths = (
{
closed = 1;
nodes = (
"397 204 LINE",
"629 534 LINE",
"404 534 LINE",
"275 343 LINE",
"235 343 LINE",
"235 204 LINE"
);
},
{
closed = 1;
nodes = (
"269 0 LINE",
"269 730 LINE",
"64 730 LINE",
"64 0 LINE"
);
},
{
closed = 1;
nodes = (
"638 0 LINE",
"457 336 LINE",
"277 253 LINE",
"414 0 LINE"
);
}
);
width = 644;
}
);
leftMetricsKey = h;
unicode = 006B;
userData = {
RMXScaler = {
source = k;
};
};
},
{
color = 9;
glyphname = l;
lastChange = "2017-07-18 14:37:00 +0000";
layers = (
{
background = {
paths = (
{
closed = 1;
nodes = (
"119 0 LINE",
"119 730 LINE",
"101 730 LINE",
"101 0 LINE"
);
}
);
};
layerId = "C76CAC8E-7AD6-478C-8F7E-02FEF6F1EA84";
paths = (
{
closed = 1;
nodes = (
"220 0 LINE",
"220 770 LINE",
"80 770 LINE",
"80 0 LINE"
);
}
);
width = 300;
},
{
background = {
paths = (
{
closed = 1;
nodes = (
"155 0 LINE",
"155 730 LINE",
"100 730 LINE",
"100 0 LINE"
);
}
);
};
layerId = "0A1AFE58-107D-4787-BDA0-D82FB635C3A6";
paths = (
{
closed = 1;
nodes = (
"155 0 LINE",
"155 770 LINE",
"100 770 LINE",
"100 0 LINE"
);
}
);
width = 255;
},
{
background = {
paths = (
{
closed = 1;
nodes = (
"269 0 LINE",
"269 730 LINE",
"64 730 LINE",
"64 0 LINE"
);
}
);
};
layerId = "84435905-EDCB-4949-A8A3-0E53308A2F50";
paths = (
{
closed = 1;
nodes = (
"269 0 LINE",
"269 770 LINE",
"64 770 LINE",
"64 0 LINE"
);
}
);
width = 329;
}
);
leftMetricsKey = h;
unicode = 006C;
userData = {
RMXScaler = {
source = l;
};
};
},
{
color = 9;
glyphname = m;
lastChange = "2017-07-12 10:55:20 +0000";
layers = (
{
background = {
paths = (
{
closed = 1;
nodes = (
"201 436 LINE",
"201 408 LINE",
"237 408 LINE",
"237 436 LINE"
);
},
{
closed = 1;
nodes = (
"537 429 LINE",
"537 401 LINE",
"573 401 LINE",
"573 429 LINE"
);
},
{
closed = 1;
nodes = (
"649 540 OFFCURVE",
"588 502 OFFCURVE",
"555 414 CURVE",
"541 491 OFFCURVE",
"485 540 OFFCURVE",
"394 540 CURVE SMOOTH",
"303 540 OFFCURVE",
"247 499 OFFCURVE",
"219 418 CURVE",
"200 525 LINE",
"77 525 LINE",
"77 0 LINE",
"217 0 LINE",
"217 308 LINE SMOOTH",
"217 373 OFFCURVE",
"256 413 OFFCURVE",
"329 413 CURVE SMOOTH",
"396 413 OFFCURVE",
"420 379 OFFCURVE",
"420 322 CURVE SMOOTH",
"420 0 LINE",
"560 0 LINE",
"560 308 LINE SMOOTH",
"560 373 OFFCURVE",
"599 413 OFFCURVE",
"672 413 CURVE SMOOTH",
"739 413 OFFCURVE",
"763 379 OFFCURVE",
"763 322 CURVE SMOOTH",
"763 0 LINE",
"903 0 LINE",
"903 370 LINE SMOOTH",
"903 471 OFFCURVE",
"845 540 OFFCURVE",
"737 540 CURVE SMOOTH"
);
}
);
};
layerId = "C76CAC8E-7AD6-478C-8F7E-02FEF6F1EA84";
paths = (
{
closed = 1;
nodes = (
"625 540 OFFCURVE",
"575 494 OFFCURVE",
"537 387 CURVE",
"595 421 LINE",
"501 421 LINE",
"552 388 LINE",
"541 486 OFFCURVE",
"490 540 OFFCURVE",
"391 540 CURVE SMOOTH",
"284 540 OFFCURVE",
"246 487 OFFCURVE",
"207 406 CURVE",
"266 434 LINE",
"170 434 LINE",
"222 390 LINE",
"200 525 LINE",
"77 525 LINE",
"77 0 LINE",
"217 0 LINE",
"217 288 LINE SMOOTH",
"217 363 OFFCURVE",
"263 415 OFFCURVE",
"326 415 CURVE SMOOTH",
"393 415 OFFCURVE",
"419 379 OFFCURVE",
"419 302 CURVE SMOOTH",
"419 0 LINE",
"559 0 LINE",
"559 288 LINE SMOOTH",
"559 363 OFFCURVE",
"605 415 OFFCURVE",
"668 415 CURVE SMOOTH",
"735 415 OFFCURVE",
"761 379 OFFCURVE",
"761 302 CURVE SMOOTH",
"761 0 LINE",
"901 0 LINE",
"901 350 LINE SMOOTH",
"901 471 OFFCURVE",
"845 540 OFFCURVE",
"733 540 CURVE SMOOTH"
);
}
);
width = 976;
},
{
background = {
paths = (
{
closed = 1;
nodes = (
"573 529 OFFCURVE",
"513 470 OFFCURVE",
"481 395 CURVE",
"514 420 LINE",
"477 420 LINE",
"495 394 LINE",
"480 485 OFFCURVE",
"412 529 OFFCURVE",
"322 529 CURVE SMOOTH",
"227 529 OFFCURVE",
"172 470 OFFCURVE",
"140 395 CURVE",
"173 420 LINE",
"136 420 LINE",
"151 400 LINE",
"138 514 LINE",
"95 514 LINE",
"95 0 LINE",
"150 0 LINE",
"150 278 LINE SMOOTH",
"150 391 OFFCURVE",
"222 477 OFFCURVE",
"316 477 CURVE SMOOTH",
"395 477 OFFCURVE",
"441 432 OFFCURVE",
"441 316 CURVE SMOOTH",
"441 0 LINE",
"496 0 LINE",
"496 278 LINE SMOOTH",
"496 391 OFFCURVE",
"568 477 OFFCURVE",
"663 477 CURVE SMOOTH",
"742 477 OFFCURVE",
"787 432 OFFCURVE",
"787 316 CURVE SMOOTH",
"787 0 LINE",
"842 0 LINE",
"842 345 LINE SMOOTH",
"842 473 OFFCURVE",
"769 529 OFFCURVE",
"668 529 CURVE SMOOTH"
);
}
);
};
layerId = "0A1AFE58-107D-4787-BDA0-D82FB635C3A6";
paths = (
{
closed = 1;
nodes = (
"593 529 OFFCURVE",
"523 470 OFFCURVE",
"491 395 CURVE",
"524 420 LINE",
"487 420 LINE",
"505 394 LINE",
"490 485 OFFCURVE",
"422 529 OFFCURVE",
"332 529 CURVE SMOOTH",
"237 529 OFFCURVE",
"172 470 OFFCURVE",
"140 395 CURVE",
"173 420 LINE",
"136 420 LINE",
"151 400 LINE",
"138 514 LINE",
"95 514 LINE",
"95 0 LINE",
"150 0 LINE",
"150 278 LINE SMOOTH",
"150 391 OFFCURVE",
"232 477 OFFCURVE",
"326 477 CURVE SMOOTH",
"405 477 OFFCURVE",
"451 432 OFFCURVE",
"451 316 CURVE SMOOTH",
"451 0 LINE",
"506 0 LINE",
"506 278 LINE SMOOTH",
"506 391 OFFCURVE",
"588 477 OFFCURVE",
"683 477 CURVE SMOOTH",
"762 477 OFFCURVE",
"807 432 OFFCURVE",
"807 316 CURVE SMOOTH",
"807 0 LINE",
"862 0 LINE",
"862 345 LINE SMOOTH",
"862 473 OFFCURVE",
"789 529 OFFCURVE",
"688 529 CURVE SMOOTH"
);
}
);
width = 952;
},
{
layerId = "84435905-EDCB-4949-A8A3-0E53308A2F50";
paths = (
{
closed = 1;
nodes = (
"671 549 OFFCURVE",
"626 493 OFFCURVE",
"592 390 CURVE",
"642 420 LINE",
"554 420 LINE",
"603 388 LINE",
"593 486 OFFCURVE",
"545 549 OFFCURVE",
"438 549 CURVE SMOOTH",
"331 549 OFFCURVE",
"290 488 OFFCURVE",
"253 398 CURVE",
"305 427 LINE",
"216 427 LINE",
"268 383 LINE",
"241 534 LINE",
"60 534 LINE",
"60 0 LINE",
"265 0 LINE",
"265 281 LINE SMOOTH",
"265 334 OFFCURVE",
"304 367 OFFCURVE",
"344 367 CURVE SMOOTH",
"380 367 OFFCURVE",
"400 345 OFFCURVE",
"400 292 CURVE SMOOTH",
"400 0 LINE",
"605 0 LINE",
"605 281 LINE SMOOTH",
"605 334 OFFCURVE",
"644 367 OFFCURVE",
"684 367 CURVE SMOOTH",
"720 367 OFFCURVE",
"740 345 OFFCURVE",
"740 292 CURVE SMOOTH",
"740 0 LINE",
"945 0 LINE",
"945 347 LINE SMOOTH",
"945 469 OFFCURVE",
"900 549 OFFCURVE",
"778 549 CURVE SMOOTH"
);
}
);
width = 1002;
}
);
leftMetricsKey = "=n";
rightMetricsKey = "=n";
unicode = 006D;
userData = {
RMXScaler = {
source = m;
};
};
},
{
color = 9;
glyphname = n;
lastChange = "2017-07-12 10:55:05 +0000";
layers = (
{
background = {
paths = (
{
closed = 1;
nodes = (
"217 0 LINE",
"217 278 LINE SMOOTH",
"217 359 OFFCURVE",
"274 415 OFFCURVE",
"345 415 CURVE SMOOTH",
"409 415 OFFCURVE",
"437 381 OFFCURVE",
"437 302 CURVE SMOOTH",
"437 0 LINE",
"577 0 LINE",
"577 346 LINE SMOOTH",
"577 471 OFFCURVE",
"519 540 OFFCURVE",
"402 540 CURVE SMOOTH",
"296 540 OFFCURVE",
"239 479 OFFCURVE",
"205 394 CURVE",
"233 423 LINE",
"199 423 LINE",
"217 401 LINE",
"198 525 LINE",
"77 525 LINE",
"77 0 LINE"
);
}
);
};
guideLines = (
{
angle = 90;
position = "{217, 288}";
}
);
layerId = "C76CAC8E-7AD6-478C-8F7E-02FEF6F1EA84";
paths = (
{
closed = 1;
nodes = (
"217 0 LINE",
"217 288 LINE SMOOTH",
"217 368 OFFCURVE",
"263 415 OFFCURVE",
"339 415 CURVE SMOOTH",
"402 415 OFFCURVE",
"430 381 OFFCURVE",
"430 302 CURVE SMOOTH",
"430 0 LINE",
"570 0 LINE",
"570 350 LINE SMOOTH",
"570 471 OFFCURVE",
"513 540 OFFCURVE",
"396 540 CURVE SMOOTH",
"297 540 OFFCURVE",
"251 494 OFFCURVE",
"214 424 CURVE",
"234 437 LINE",
"199 437 LINE",
"217 427 LINE",
"200 525 LINE",
"77 525 LINE",
"77 0 LINE"
);
}
);
width = 645;
},
{
background = {
paths = (
{
closed = 1;
nodes = (
"150 0 LINE",
"150 278 LINE SMOOTH",
"150 391 OFFCURVE",
"222 477 OFFCURVE",
"321 477 CURVE SMOOTH",
"406 477 OFFCURVE",
"452 432 OFFCURVE",
"452 316 CURVE SMOOTH",
"452 0 LINE",
"507 0 LINE",
"507 345 LINE SMOOTH",
"507 473 OFFCURVE",
"434 529 OFFCURVE",
"327 529 CURVE SMOOTH",
"226 529 OFFCURVE",
"172 470 OFFCURVE",
"139 395 CURVE",
"174 420 LINE",
"135 420 LINE",
"151 400 LINE",
"138 514 LINE",
"95 514 LINE",
"95 0 LINE"
);
}
);
};
layerId = "0A1AFE58-107D-4787-BDA0-D82FB635C3A6";
paths = (
{
closed = 1;
nodes = (
"150 0 LINE",
"150 278 LINE SMOOTH",
"150 391 OFFCURVE",
"232 477 OFFCURVE",
"331 477 CURVE SMOOTH",
"416 477 OFFCURVE",
"462 432 OFFCURVE",
"462 316 CURVE SMOOTH",
"462 0 LINE",
"517 0 LINE",
"517 345 LINE SMOOTH",
"517 473 OFFCURVE",
"444 529 OFFCURVE",
"337 529 CURVE SMOOTH",
"236 529 OFFCURVE",
"172 470 OFFCURVE",
"139 395 CURVE",
"174 420 LINE",
"135 420 LINE",
"151 400 LINE",
"138 514 LINE",
"95 514 LINE",
"95 0 LINE"
);
}
);
width = 607;
},
{
layerId = "84435905-EDCB-4949-A8A3-0E53308A2F50";
paths = (
{
closed = 1;
nodes = (
"265 0 LINE",
"265 279 LINE SMOOTH",
"265 335 OFFCURVE",
"301 367 OFFCURVE",
"351 367 CURVE SMOOTH",
"399 367 OFFCURVE",
"414 342 OFFCURVE",
"414 292 CURVE SMOOTH",
"414 0 LINE",
"619 0 LINE",
"619 347 LINE SMOOTH",
"619 469 OFFCURVE",
"573 549 OFFCURVE",
"447 549 CURVE SMOOTH",
"339 549 OFFCURVE",
"288 488 OFFCURVE",
"253 397 CURVE",
"275 427 LINE",
"245 427 LINE",
"265 405 LINE",
"241 534 LINE",
"60 534 LINE",
"60 0 LINE"
);
}
);
width = 676;
}
);
unicode = 006E;
userData = {
RMXScaler = {
source = n;
};
};
},
{
color = 9;
glyphname = o;
lastChange = "2017-07-12 10:49:39 +0000";
layers = (
{
background = {
paths = (
{
closed = 1;
nodes = (
"481 -15 OFFCURVE",
"584 83 OFFCURVE",
"584 263 CURVE SMOOTH",
"584 442 OFFCURVE",
"481 540 OFFCURVE",
"313 540 CURVE SMOOTH",
"147 540 OFFCURVE",
"44 442 OFFCURVE",
"44 263 CURVE SMOOTH",
"44 83 OFFCURVE",
"147 -15 OFFCURVE",
"313 -15 CURVE SMOOTH"
);
},
{
closed = 1;
nodes = (
"229 95 OFFCURVE",
"187 152 OFFCURVE",
"187 263 CURVE SMOOTH",
"187 373 OFFCURVE",
"229 430 OFFCURVE",
"313 430 CURVE SMOOTH",
"398 430 OFFCURVE",
"440 373 OFFCURVE",
"440 263 CURVE SMOOTH",
"440 152 OFFCURVE",
"398 95 OFFCURVE",
"313 95 CURVE SMOOTH"
);
}
);
};
layerId = "C76CAC8E-7AD6-478C-8F7E-02FEF6F1EA84";
paths = (
{
closed = 1;
nodes = (
"490 -15 OFFCURVE",
"581 86 OFFCURVE",
"581 263 CURVE SMOOTH",
"581 439 OFFCURVE",
"490 540 OFFCURVE",
"314 540 CURVE SMOOTH",
"138 540 OFFCURVE",
"47 439 OFFCURVE",
"47 263 CURVE SMOOTH",
"47 86 OFFCURVE",
"138 -15 OFFCURVE",
"314 -15 CURVE SMOOTH"
);
},
{
closed = 1;
nodes = (
"227 100 OFFCURVE",
"192 157 OFFCURVE",
"192 263 CURVE SMOOTH",
"192 368 OFFCURVE",
"227 425 OFFCURVE",
"314 425 CURVE SMOOTH",
"401 425 OFFCURVE",
"436 368 OFFCURVE",
"436 263 CURVE SMOOTH",
"436 157 OFFCURVE",
"401 100 OFFCURVE",
"314 100 CURVE SMOOTH"
);
}
);
width = 628;
},
{
layerId = "0A1AFE58-107D-4787-BDA0-D82FB635C3A6";
paths = (
{
closed = 1;
nodes = (
"439 -15 OFFCURVE",
"540 78 OFFCURVE",
"540 257 CURVE SMOOTH",
"540 436 OFFCURVE",
"439 529 OFFCURVE",
"299 529 CURVE SMOOTH",
"160 529 OFFCURVE",
"60 436 OFFCURVE",
"60 257 CURVE SMOOTH",
"60 78 OFFCURVE",
"160 -15 OFFCURVE",
"299 -15 CURVE SMOOTH"
);
},
{
closed = 1;
nodes = (
"183 32 OFFCURVE",
"116 108 OFFCURVE",
"116 257 CURVE SMOOTH",
"116 406 OFFCURVE",
"183 482 OFFCURVE",
"299 482 CURVE SMOOTH",
"415 482 OFFCURVE",
"483 406 OFFCURVE",
"483 257 CURVE SMOOTH",
"483 108 OFFCURVE",
"415 32 OFFCURVE",
"299 32 CURVE SMOOTH"
);
}
);
width = 600;
},
{
layerId = "84435905-EDCB-4949-A8A3-0E53308A2F50";
paths = (
{
closed = 1;
nodes = (
"517 -15 OFFCURVE",
"620 88 OFFCURVE",
"620 267 CURVE SMOOTH",
"620 446 OFFCURVE",
"517 549 OFFCURVE",
"328 549 CURVE SMOOTH",
"139 549 OFFCURVE",
"36 446 OFFCURVE",
"36 267 CURVE SMOOTH",
"36 88 OFFCURVE",
"139 -15 OFFCURVE",
"328 -15 CURVE SMOOTH"
);
},
{
closed = 1;
nodes = (
"267 143 OFFCURVE",
"246 183 OFFCURVE",
"246 267 CURVE SMOOTH",
"246 351 OFFCURVE",
"267 390 OFFCURVE",
"328 390 CURVE SMOOTH",
"389 390 OFFCURVE",
"410 351 OFFCURVE",
"410 267 CURVE SMOOTH",
"410 183 OFFCURVE",
"389 143 OFFCURVE",
"328 143 CURVE SMOOTH"
);
}
);
width = 656;
}
);
unicode = 006F;
userData = {
RMXScaler = {
source = o;
};
};
},
{
glyphname = p;
lastChange = "2017-07-18 13:24:35 +0000";
layers = (
{
background = {
paths = (
{
closed = 1;
nodes = (
"213 79 LINE",
"218 79 LINE",
"249 17 OFFCURVE",
"305 -15 OFFCURVE",
"379 -15 CURVE SMOOTH",
"522 -15 OFFCURVE",
"608 89 OFFCURVE",
"608 262 CURVE SMOOTH",
"608 435 OFFCURVE",
"522 539 OFFCURVE",
"379 539 CURVE SMOOTH",
"305 539 OFFCURVE",
"249 506 OFFCURVE",
"218 440 CURVE",
"211 440 LINE",
"196 525 LINE",
"73 525 LINE",
"73 -205 LINE",
"213 -205 LINE"
);
},
{
closed = 1;
nodes = (
"422 419 OFFCURVE",
"463 369 OFFCURVE",
"463 262 CURVE SMOOTH",
"463 155 OFFCURVE",
"422 105 OFFCURVE",
"337 105 CURVE SMOOTH",
"256 105 OFFCURVE",
"213 160 OFFCURVE",
"213 262 CURVE SMOOTH",
"213 364 OFFCURVE",
"256 419 OFFCURVE",
"337 419 CURVE SMOOTH"
);
}
);
};
components = (
{
name = b;
transform = "{1, 0, 0, -1, 0, 525}";
}
);
layerId = "C76CAC8E-7AD6-478C-8F7E-02FEF6F1EA84";
width = 662;
},
{
components = (
{
name = b;
transform = "{1, 0, 0, -1, 0, 514}";
}
);
layerId = "0A1AFE58-107D-4787-BDA0-D82FB635C3A6";
width = 627;
},
{
components = (
{
name = b;
transform = "{1, 0, 0, -1, 0, 534}";
}
);
layerId = "84435905-EDCB-4949-A8A3-0E53308A2F50";
width = 689;
}
);
leftMetricsKey = "=n";
rightMetricsKey = "=o";
unicode = 0070;
userData = {
RMXScaler = {
source = p;
};
};
},
{
glyphname = q;
lastChange = "2017-07-17 11:43:02 +0000";
layers = (
{
background = {
paths = (
{
closed = 1;
nodes = (
"575 -205 LINE",
"575 525 LINE",
"452 525 LINE",
"437 440 LINE",
"430 440 LINE",
"399 506 OFFCURVE",
"343 539 OFFCURVE",
"269 539 CURVE SMOOTH",
"126 539 OFFCURVE",
"40 435 OFFCURVE",
"40 262 CURVE SMOOTH",
"40 89 OFFCURVE",
"126 -15 OFFCURVE",
"269 -15 CURVE SMOOTH",
"343 -15 OFFCURVE",
"399 17 OFFCURVE",
"430 79 CURVE",
"435 79 LINE",
"435 -205 LINE"
);
},
{
closed = 1;
nodes = (
"392 419 OFFCURVE",
"435 364 OFFCURVE",
"435 262 CURVE SMOOTH",
"435 160 OFFCURVE",
"392 105 OFFCURVE",
"311 105 CURVE SMOOTH",
"226 105 OFFCURVE",
"185 155 OFFCURVE",
"185 262 CURVE SMOOTH",
"185 369 OFFCURVE",
"226 419 OFFCURVE",
"311 419 CURVE SMOOTH"
);
}
);
};
components = (
{
name = b;
transform = "{-1, 0, 0, -1, 662, 525}";
}
);
layerId = "C76CAC8E-7AD6-478C-8F7E-02FEF6F1EA84";
width = 662;
},
{
components = (
{
name = b;
transform = "{-1, 0, 0, -1, 627, 514}";
}
);
layerId = "0A1AFE58-107D-4787-BDA0-D82FB635C3A6";
width = 627;
},
{
components = (
{
name = b;
transform = "{-1, 0, 0, -1, 689, 534}";
}
);
layerId = "84435905-EDCB-4949-A8A3-0E53308A2F50";
width = 689;
}
);
leftMetricsKey = "=o";
rightMetricsKey = "=|n";
unicode = 0071;
userData = {
RMXScaler = {
source = q;
};
};
},
{
color = 9;
glyphname = r;
lastChange = "2017-07-12 10:49:39 +0000";
layers = (
{
background = {
paths = (
{
closed = 1;
nodes = (
"237 431 LINE",
"202 431 LINE",
"217 426 LINE",
"200 525 LINE",
"77 525 LINE",
"77 0 LINE",
"217 0 LINE",
"217 291 LINE SMOOTH",
"217 366 OFFCURVE",
"277 405 OFFCURVE",
"353 405 CURVE SMOOTH",
"375 405 OFFCURVE",
"394 403 OFFCURVE",
"410 400 CURVE",
"410 534 LINE",
"398 537 OFFCURVE",
"373 538 OFFCURVE",
"361 538 CURVE SMOOTH",
"277 538 OFFCURVE",
"226 486 OFFCURVE",
"203 354 CURVE"
);
}
);
};
layerId = "C76CAC8E-7AD6-478C-8F7E-02FEF6F1EA84";
paths = (
{
closed = 1;
nodes = (
"237 431 LINE",
"202 431 LINE",
"217 426 LINE",
"200 525 LINE",
"77 525 LINE",
"77 0 LINE",
"217 0 LINE",
"217 291 LINE SMOOTH",
"217 366 OFFCURVE",
"277 405 OFFCURVE",
"353 405 CURVE SMOOTH",
"375 405 OFFCURVE",
"394 403 OFFCURVE",
"410 400 CURVE",
"410 533 LINE",
"397 536 OFFCURVE",
"380 538 OFFCURVE",
"361 538 CURVE SMOOTH",
"277 538 OFFCURVE",
"226 486 OFFCURVE",
"203 354 CURVE"
);
}
);
width = 420;
},
{
layerId = "0A1AFE58-107D-4787-BDA0-D82FB635C3A6";
paths = (
{
closed = 1;
nodes = (
"174 420 LINE",
"135 420 LINE",
"151 400 LINE",
"138 514 LINE",
"95 514 LINE",
"95 0 LINE",
"150 0 LINE",
"150 278 LINE SMOOTH",
"150 396 OFFCURVE",
"219 474 OFFCURVE",
"321 474 CURVE SMOOTH",
"333 474 OFFCURVE",
"354 471 OFFCURVE",
"365 468 CURVE",
"365 521 LINE",
"350 526 OFFCURVE",
"334 529 OFFCURVE",
"313 529 CURVE SMOOTH",
"228 529 OFFCURVE",
"174 475 OFFCURVE",
"141 395 CURVE"
);
}
);
width = 370;
},
{
layerId = "84435905-EDCB-4949-A8A3-0E53308A2F50";
paths = (
{
closed = 1;
nodes = (
"282 422 LINE",
"248 422 LINE",
"262 417 LINE",
"241 534 LINE",
"60 534 LINE",
"60 0 LINE",
"265 0 LINE",
"265 249 LINE SMOOTH",
"265 316 OFFCURVE",
"314 357 OFFCURVE",
"388 357 CURVE SMOOTH",
"410 357 OFFCURVE",
"428 355 OFFCURVE",
"444 352 CURVE",
"444 542 LINE",
"432 546 OFFCURVE",
"408 548 OFFCURVE",
"396 548 CURVE SMOOTH",
"296 548 OFFCURVE",
"268 479 OFFCURVE",
"256 345 CURVE"
);
}
);
width = 462;
}
);
leftMetricsKey = "=n";
unicode = 0072;
userData = {
RMXScaler = {
source = r;
};
};
},
{
color = 9;
glyphname = s;
lastChange = "2017-07-12 10:49:39 +0000";
layers = (
{
background = {
paths = (
{
closed = 1;
nodes = (
"445 -14 OFFCURVE",
"541 31 OFFCURVE",
"541 145 CURVE SMOOTH",
"541 234 OFFCURVE",
"494 291 OFFCURVE",
"386 310 CURVE SMOOTH",
"290 327 LINE SMOOTH",
"230 338 OFFCURVE",
"212 352 OFFCURVE",
"212 384 CURVE SMOOTH",
"212 421 OFFCURVE",
"240 435 OFFCURVE",
"302 435 CURVE SMOOTH",
"362 435 OFFCURVE",
"384 419 OFFCURVE",
"390 384 CURVE SMOOTH",
"392 373 LINE",
"532 373 LINE",
"529 395 LINE SMOOTH",
"516 493 OFFCURVE",
"446 540 OFFCURVE",
"300 540 CURVE SMOOTH",
"156 540 OFFCURVE",
"72 491 OFFCURVE",
"72 383 CURVE SMOOTH",
"72 292 OFFCURVE",
"130 234 OFFCURVE",
"234 215 CURVE SMOOTH",
"329 198 LINE SMOOTH",
"383 188 OFFCURVE",
"401 173 OFFCURVE",
"401 144 CURVE SMOOTH",
"401 107 OFFCURVE",
"375 91 OFFCURVE",
"310 91 CURVE SMOOTH",
"245 91 OFFCURVE",
"215 106 OFFCURVE",
"207 147 CURVE SMOOTH",
"205 157 LINE",
"65 157 LINE",
"66 140 LINE SMOOTH",
"72 30 OFFCURVE",
"156 -14 OFFCURVE",
"307 -14 CURVE SMOOTH"
);
}
);
};
layerId = "C76CAC8E-7AD6-478C-8F7E-02FEF6F1EA84";
paths = (
{
closed = 1;
nodes = (
"429 -13 OFFCURVE",
"527 41 OFFCURVE",
"527 155 CURVE SMOOTH",
"527 245 OFFCURVE",
"481 289 OFFCURVE",
"378 306 CURVE SMOOTH",
"273 323 LINE SMOOTH",
"222 331 OFFCURVE",
"204 348 OFFCURVE",
"204 379 CURVE SMOOTH",
"204 416 OFFCURVE",
"234 435 OFFCURVE",
"291 435 CURVE SMOOTH",
"346 435 OFFCURVE",
"371 419 OFFCURVE",
"377 384 CURVE SMOOTH",
"379 373 LINE",
"520 373 LINE",
"517 395 LINE SMOOTH",
"504 493 OFFCURVE",
"430 540 OFFCURVE",
"289 540 CURVE SMOOTH",
"151 540 OFFCURVE",
"66 482 OFFCURVE",
"66 374 CURVE SMOOTH",
"66 283 OFFCURVE",
"122 238 OFFCURVE",
"217 221 CURVE SMOOTH",
"321 203 LINE SMOOTH",
"370 194 OFFCURVE",
"388 178 OFFCURVE",
"388 149 CURVE SMOOTH",
"388 112 OFFCURVE",
"359 92 OFFCURVE",
"299 92 CURVE SMOOTH",
"240 92 OFFCURVE",
"207 106 OFFCURVE",
"199 147 CURVE SMOOTH",
"197 157 LINE",
"55 157 LINE",
"57 140 LINE SMOOTH",
"70 31 OFFCURVE",
"161 -13 OFFCURVE",
"296 -13 CURVE SMOOTH"
);
}
);
width = 582;
},
{
background = {
paths = (
{
closed = 1;
nodes = (
"402 -15 OFFCURVE",
"484 32 OFFCURVE",
"486 138 CURVE SMOOTH",
"488 223 OFFCURVE",
"438 265 OFFCURVE",
"326 280 CURVE SMOOTH",
"236 292 LINE SMOOTH",
"150 303 OFFCURVE",
"120 335 OFFCURVE",
"120 388 CURVE SMOOTH",
"120 446 OFFCURVE",
"170 482 OFFCURVE",
"266 482 CURVE SMOOTH",
"363 482 OFFCURVE",
"410 442 OFFCURVE",
"417 387 CURVE SMOOTH",
"418 379 LINE",
"473 379 LINE",
"472 389 LINE SMOOTH",
"464 467 OFFCURVE",
"403 529 OFFCURVE",
"266 529 CURVE SMOOTH",
"145 529 OFFCURVE",
"67 475 OFFCURVE",
"67 388 CURVE SMOOTH",
"67 295 OFFCURVE",
"130 256 OFFCURVE",
"221 244 CURVE SMOOTH",
"324 230 LINE SMOOTH",
"404 219 OFFCURVE",
"434 193 OFFCURVE",
"434 136 CURVE SMOOTH",
"434 67 OFFCURVE",
"376 31 OFFCURVE",
"277 31 CURVE SMOOTH",
"168 31 OFFCURVE",
"119 85 OFFCURVE",
"114 131 CURVE SMOOTH",
"113 140 LINE",
"58 140 LINE",
"58 137 LINE SMOOTH",
"58 60 OFFCURVE",
"131 -15 OFFCURVE",
"277 -15 CURVE SMOOTH"
);
},
{
closed = 1;
nodes = (
"386 -15 OFFCURVE",
"467 17 OFFCURVE",
"469 123 CURVE SMOOTH",
"471 208 OFFCURVE",
"420 249 OFFCURVE",
"325 273 CURVE SMOOTH",
"236 296 LINE SMOOTH",
"165 314 OFFCURVE",
"133 339 OFFCURVE",
"133 392 CURVE SMOOTH",
"133 450 OFFCURVE",
"179 482 OFFCURVE",
"265 482 CURVE SMOOTH",
"347 482 OFFCURVE",
"393 452 OFFCURVE",
"401 387 CURVE SMOOTH",
"402 379 LINE",
"457 379 LINE",
"456 389 LINE SMOOTH",
"447 477 OFFCURVE",
"387 529 OFFCURVE",
"265 529 CURVE SMOOTH",
"155 529 OFFCURVE",
"82 479 OFFCURVE",
"82 392 CURVE SMOOTH",
"82 299 OFFCURVE",
"145 267 OFFCURVE",
"220 248 CURVE SMOOTH",
"324 222 LINE SMOOTH",
"387 206 OFFCURVE",
"418 178 OFFCURVE",
"418 121 CURVE SMOOTH",
"418 52 OFFCURVE",
"361 31 OFFCURVE",
"275 31 CURVE SMOOTH",
"182 31 OFFCURVE",
"135 65 OFFCURVE",
"128 131 CURVE SMOOTH",
"127 140 LINE",
"72 140 LINE",
"72 137 LINE SMOOTH",
"72 40 OFFCURVE",
"145 -15 OFFCURVE",
"277 -15 CURVE SMOOTH"
);
}
);
};
layerId = "0A1AFE58-107D-4787-BDA0-D82FB635C3A6";
paths = (
{
closed = 1;
nodes = (
"392 -15 OFFCURVE",
"473 17 OFFCURVE",
"475 123 CURVE SMOOTH",
"477 208 OFFCURVE",
"426 247 OFFCURVE",
"326 273 CURVE SMOOTH",
"237 296 LINE SMOOTH",
"161 316 OFFCURVE",
"129 339 OFFCURVE",
"129 392 CURVE SMOOTH",
"129 450 OFFCURVE",
"175 482 OFFCURVE",
"268 482 CURVE SMOOTH",
"356 482 OFFCURVE",
"402 452 OFFCURVE",
"410 387 CURVE SMOOTH",
"411 379 LINE",
"466 379 LINE",
"465 389 LINE SMOOTH",
"456 477 OFFCURVE",
"396 529 OFFCURVE",
"268 529 CURVE SMOOTH",
"151 529 OFFCURVE",
"78 479 OFFCURVE",
"78 392 CURVE SMOOTH",
"78 299 OFFCURVE",
"141 268 OFFCURVE",
"221 248 CURVE SMOOTH",
"325 222 LINE SMOOTH",
"393 205 OFFCURVE",
"424 178 OFFCURVE",
"424 121 CURVE SMOOTH",
"424 52 OFFCURVE",
"367 31 OFFCURVE",
"275 31 CURVE SMOOTH",
"175 31 OFFCURVE",
"128 65 OFFCURVE",
"121 131 CURVE SMOOTH",
"120 140 LINE",
"65 140 LINE",
"65 137 LINE SMOOTH",
"65 40 OFFCURVE",
"138 -15 OFFCURVE",
"277 -15 CURVE SMOOTH"
);
}
);
width = 535;
},
{
layerId = "84435905-EDCB-4949-A8A3-0E53308A2F50";
paths = (
{
closed = 1;
nodes = (
"461 -16 OFFCURVE",
"556 37 OFFCURVE",
"556 157 CURVE SMOOTH",
"556 250 OFFCURVE",
"503 303 OFFCURVE",
"389 323 CURVE SMOOTH",
"304 339 LINE SMOOTH",
"263 346 OFFCURVE",
"252 360 OFFCURVE",
"252 382 CURVE SMOOTH",
"252 406 OFFCURVE",
"269 419 OFFCURVE",
"301 419 CURVE SMOOTH",
"333 419 OFFCURVE",
"349 405 OFFCURVE",
"354 376 CURVE SMOOTH",
"355 369 LINE",
"553 369 LINE",
"551 385 LINE SMOOTH",
"536 502 OFFCURVE",
"447 549 OFFCURVE",
"293 549 CURVE SMOOTH",
"129 549 OFFCURVE",
"43 492 OFFCURVE",
"43 375 CURVE SMOOTH",
"43 278 OFFCURVE",
"94 230 OFFCURVE",
"217 208 CURVE SMOOTH",
"293 194 LINE SMOOTH",
"336 186 OFFCURVE",
"348 175 OFFCURVE",
"348 152 CURVE SMOOTH",
"348 128 OFFCURVE",
"333 114 OFFCURVE",
"296 114 CURVE SMOOTH",
"259 114 OFFCURVE",
"244 129 OFFCURVE",
"241 159 CURVE SMOOTH",
"239 170 LINE",
"35 170 LINE",
"36 154 LINE SMOOTH",
"45 27 OFFCURVE",
"147 -16 OFFCURVE",
"298 -16 CURVE SMOOTH"
);
}
);
width = 591;
}
);
unicode = 0073;
userData = {
RMXScaler = {
source = s;
};
};
},
{
color = 9;
glyphname = t;
lastChange = "2017-07-12 10:49:39 +0000";
layers = (
{
background = {
paths = (
{
closed = 1;
nodes = (
"15 410 LINE",
"398 410 LINE",
"398 525 LINE",
"15 525 LINE"
);
},
{
closed = 1;
nodes = (
"393 111 LINE",
"383 109 OFFCURVE",
"345 106 OFFCURVE",
"325 106 CURVE SMOOTH",
"275 106 OFFCURVE",
"250 128 OFFCURVE",
"250 190 CURVE SMOOTH",
"250 665 LINE",
"134 665 LINE",
"110 525 LINE",
"110 167 LINE SMOOTH",
"110 47 OFFCURVE",
"169 -9 OFFCURVE",
"294 -9 CURVE SMOOTH",
"335 -9 OFFCURVE",
"374 -3 OFFCURVE",
"393 1 CURVE"
);
}
);
};
layerId = "C76CAC8E-7AD6-478C-8F7E-02FEF6F1EA84";
paths = (
{
closed = 1;
nodes = (
"15 410 LINE",
"398 410 LINE",
"398 525 LINE",
"15 525 LINE"
);
},
{
closed = 1;
nodes = (
"393 111 LINE",
"383 109 OFFCURVE",
"345 106 OFFCURVE",
"325 106 CURVE SMOOTH",
"275 106 OFFCURVE",
"250 128 OFFCURVE",
"250 190 CURVE SMOOTH",
"250 665 LINE",
"134 665 LINE",
"110 525 LINE",
"110 167 LINE SMOOTH",
"110 47 OFFCURVE",
"169 -9 OFFCURVE",
"294 -9 CURVE SMOOTH",
"335 -9 OFFCURVE",
"374 -3 OFFCURVE",
"393 1 CURVE"
);
}
);
width = 433;
},
{
layerId = "0A1AFE58-107D-4787-BDA0-D82FB635C3A6";
paths = (
{
closed = 1;
nodes = (
"13 464 LINE",
"362 464 LINE",
"362 514 LINE",
"13 514 LINE"
);
},
{
closed = 1;
nodes = (
"362 47 LINE",
"342 44 OFFCURVE",
"315 39 OFFCURVE",
"287 39 CURVE SMOOTH",
"220 39 OFFCURVE",
"184 66 OFFCURVE",
"184 147 CURVE SMOOTH",
"184 665 LINE",
"144 665 LINE",
"129 514 LINE",
"129 146 LINE SMOOTH",
"129 36 OFFCURVE",
"180 -10 OFFCURVE",
"285 -10 CURVE SMOOTH",
"318 -10 OFFCURVE",
"349 -3 OFFCURVE",
"362 0 CURVE"
);
}
);
width = 383;
},
{
layerId = "84435905-EDCB-4949-A8A3-0E53308A2F50";
paths = (
{
closed = 1;
nodes = (
"11 380 LINE",
"413 380 LINE",
"413 534 LINE",
"11 534 LINE"
);
},
{
closed = 1;
nodes = (
"413 158 LINE",
"396 155 OFFCURVE",
"372 154 OFFCURVE",
"357 154 CURVE SMOOTH",
"309 154 OFFCURVE",
"294 171 OFFCURVE",
"294 222 CURVE SMOOTH",
"294 665 LINE",
"118 665 LINE",
"89 534 LINE",
"89 167 LINE SMOOTH",
"89 47 OFFCURVE",
"147 -9 OFFCURVE",
"288 -9 CURVE SMOOTH",
"336 -9 OFFCURVE",
"390 -1 OFFCURVE",
"413 4 CURVE"
);
}
);
width = 462;
}
);
unicode = 0074;
userData = {
RMXScaler = {
source = t;
};
};
},
{
color = 9;
glyphname = u;
lastChange = "2017-07-12 10:55:27 +0000";
layers = (
{
background = {
components = (
{
name = n;
transform = "{-1, 0, 0, -1, 636, 525}";
}
);
};
layerId = "C76CAC8E-7AD6-478C-8F7E-02FEF6F1EA84";
paths = (
{
closed = 1;
nodes = (
"413 525 LINE",
"413 237 LINE SMOOTH",
"413 157 OFFCURVE",
"367 110 OFFCURVE",
"301 110 CURVE SMOOTH",
"243 110 OFFCURVE",
"215 144 OFFCURVE",
"215 223 CURVE SMOOTH",
"215 525 LINE",
"75 525 LINE",
"75 175 LINE SMOOTH",
"75 54 OFFCURVE",
"132 -15 OFFCURVE",
"244 -15 CURVE SMOOTH",
"333 -15 OFFCURVE",
"379 31 OFFCURVE",
"416 101 CURVE",
"396 88 LINE",
"431 88 LINE",
"413 98 LINE",
"430 0 LINE",
"553 0 LINE",
"553 525 LINE"
);
}
);
width = 630;
},
{
background = {
paths = (
{
closed = 1;
nodes = (
"444 514 LINE",
"444 236 LINE SMOOTH",
"444 123 OFFCURVE",
"374 37 OFFCURVE",
"280 37 CURVE SMOOTH",
"201 37 OFFCURVE",
"155 82 OFFCURVE",
"155 198 CURVE SMOOTH",
"155 514 LINE",
"100 514 LINE",
"100 169 LINE SMOOTH",
"100 41 OFFCURVE",
"173 -15 OFFCURVE",
"274 -15 CURVE SMOOTH",
"370 -15 OFFCURVE",
"422 44 OFFCURVE",
"455 119 CURVE",
"420 94 LINE",
"459 94 LINE",
"443 114 LINE",
"457 0 LINE",
"499 0 LINE",
"499 514 LINE"
);
}
);
};
layerId = "0A1AFE58-107D-4787-BDA0-D82FB635C3A6";
paths = (
{
closed = 1;
nodes = (
"444 514 LINE",
"444 236 LINE SMOOTH",
"444 123 OFFCURVE",
"364 37 OFFCURVE",
"270 37 CURVE SMOOTH",
"191 37 OFFCURVE",
"145 82 OFFCURVE",
"145 198 CURVE SMOOTH",
"145 514 LINE",
"90 514 LINE",
"90 169 LINE SMOOTH",
"90 41 OFFCURVE",
"163 -15 OFFCURVE",
"264 -15 CURVE SMOOTH",
"360 -15 OFFCURVE",
"422 44 OFFCURVE",
"455 119 CURVE",
"420 94 LINE",
"459 94 LINE",
"443 114 LINE",
"457 0 LINE",
"499 0 LINE",
"499 514 LINE"
);
}
);
width = 594;
},
{
layerId = "84435905-EDCB-4949-A8A3-0E53308A2F50";
paths = (
{
closed = 1;
nodes = (
"402 534 LINE",
"402 254 LINE SMOOTH",
"402 199 OFFCURVE",
"365 166 OFFCURVE",
"320 166 CURVE SMOOTH",
"277 166 OFFCURVE",
"262 192 OFFCURVE",
"262 242 CURVE SMOOTH",
"262 534 LINE",
"57 534 LINE",
"57 187 LINE SMOOTH",
"57 64 OFFCURVE",
"103 -15 OFFCURVE",
"228 -15 CURVE SMOOTH",
"332 -15 OFFCURVE",
"377 46 OFFCURVE",
"413 137 CURVE",
"392 106 LINE",
"420 106 LINE",
"402 128 LINE",
"426 0 LINE",
"607 0 LINE",
"607 534 LINE"
);
}
);
width = 667;
}
);
leftMetricsKey = "=|n";
rightMetricsKey = "=|n";
unicode = 0075;
userData = {
RMXScaler = {
source = u;
};
};
},
{
color = 9;
glyphname = v;
lastChange = "2017-07-12 10:49:39 +0000";
layers = (
{
background = {
paths = (
{
closed = 0;
nodes = (
"376 0 LINE",
"564 525 LINE",
"414 525 LINE",
"273 79 LINE"
);
}
);
};
layerId = "C76CAC8E-7AD6-478C-8F7E-02FEF6F1EA84";
paths = (
{
closed = 1;
nodes = (
"273 79 LINE",
"331 120 LINE",
"234 120 LINE",
"293 79 LINE",
"155 525 LINE",
"5 525 LINE",
"190 0 LINE",
"376 0 LINE",
"561 525 LINE",
"411 525 LINE"
);
}
);
width = 566;
},
{
layerId = "0A1AFE58-107D-4787-BDA0-D82FB635C3A6";
paths = (
{
closed = 1;
nodes = (
"244 38 LINE",
"271 63 LINE",
"234 63 LINE",
"259 38 LINE",
"71 514 LINE",
"11 514 LINE",
"222 0 LINE",
"280 0 LINE",
"492 514 LINE",
"432 514 LINE"
);
}
);
width = 503;
},
{
layerId = "84435905-EDCB-4949-A8A3-0E53308A2F50";
paths = (
{
closed = 1;
nodes = (
"303 128 LINE",
"354 163 LINE",
"259 163 LINE",
"313 128 LINE",
"215 534 LINE",
"0 534 LINE",
"172 0 LINE",
"445 0 LINE",
"616 534 LINE",
"402 534 LINE"
);
}
);
width = 616;
}
);
unicode = 0076;
userData = {
RMXScaler = {
source = v;
};
};
},
{
color = 9;
glyphname = w;
lastChange = "2017-07-12 10:49:39 +0000";
layers = (
{
background = {
paths = (
{
closed = 1;
nodes = (
"329 0 LINE",
"438 371 LINE",
"410 371 LINE",
"519 0 LINE",
"679 0 LINE",
"838 525 LINE",
"687 525 LINE",
"543 12 LINE",
"629 12 LINE",
"490 525 LINE",
"358 525 LINE",
"246 112 LINE",
"277 112 LINE",
"161 525 LINE",
"10 525 LINE",
"169 0 LINE"
);
}
);
};
layerId = "C76CAC8E-7AD6-478C-8F7E-02FEF6F1EA84";
paths = (
{
closed = 1;
nodes = (
"620 113 LINE",
"657 130 LINE",
"562 130 LINE",
"619 113 LINE",
"526 525 LINE",
"344 525 LINE",
"254 113 LINE",
"311 130 LINE",
"216 130 LINE",
"253 113 LINE",
"155 525 LINE",
"5 525 LINE",
"157 0 LINE",
"340 0 LINE",
"441 432 LINE",
"383 395 LINE",
"477 395 LINE",
"429 431 LINE",
"530 0 LINE",
"713 0 LINE",
"865 525 LINE",
"715 525 LINE"
);
}
);
width = 870;
},
{
layerId = "0A1AFE58-107D-4787-BDA0-D82FB635C3A6";
paths = (
{
closed = 1;
nodes = (
"563 44 LINE",
"573 60 LINE",
"557 60 LINE",
"569 44 LINE",
"427 514 LINE",
"357 514 LINE",
"211 27 LINE",
"238 60 LINE",
"197 60 LINE",
"229 26 LINE",
"71 514 LINE",
"11 514 LINE",
"184 0 LINE",
"253 0 LINE",
"398 484 LINE",
"377 457 LINE",
"407 457 LINE",
"386 484 LINE",
"531 0 LINE",
"601 0 LINE",
"773 514 LINE",
"713 514 LINE"
);
}
);
width = 784;
},
{
layerId = "84435905-EDCB-4949-A8A3-0E53308A2F50";
paths = (
{
closed = 1;
nodes = (
"610 113 LINE",
"660 165 LINE",
"567 165 LINE",
"622 113 LINE",
"544 534 LINE",
"348 534 LINE",
"272 113 LINE",
"328 165 LINE",
"236 165 LINE",
"285 113 LINE",
"219 534 LINE",
"0 534 LINE",
"129 0 LINE",
"383 0 LINE",
"461 441 LINE",
"395 343 LINE",
"487 343 LINE",
"431 440 LINE",
"508 0 LINE",
"762 0 LINE",
"893 534 LINE",
"673 534 LINE"
);
}
);
width = 893;
}
);
leftMetricsKey = v;
rightMetricsKey = v;
unicode = 0077;
userData = {
RMXScaler = {
source = w;
};
};
},
{
color = 9;
glyphname = x;
lastChange = "2017-07-12 10:49:39 +0000";
layers = (
{
background = {
paths = (
{
closed = 1;
nodes = (
"170 0 LINE",
"291 224 LINE",
"364 224 LINE",
"538 525 LINE",
"383 525 LINE",
"267 306 LINE",
"192 306 LINE",
"15 0 LINE"
);
},
{
closed = 1;
nodes = (
"538 0 LINE",
"364 306 LINE",
"284 306 LINE",
"170 525 LINE",
"15 525 LINE",
"184 224 LINE",
"262 224 LINE",
"383 0 LINE"
);
}
);
};
layerId = "C76CAC8E-7AD6-478C-8F7E-02FEF6F1EA84";
paths = (
{
closed = 1;
nodes = (
"170 0 LINE",
"291 224 LINE",
"364 224 LINE",
"538 525 LINE",
"383 525 LINE",
"267 306 LINE",
"192 306 LINE",
"15 0 LINE"
);
},
{
closed = 1;
nodes = (
"538 0 LINE",
"352 327 LINE",
"273 327 LINE",
"170 525 LINE",
"15 525 LINE",
"202 192 LINE",
"279 192 LINE",
"383 0 LINE"
);
}
);
width = 553;
},
{
layerId = "0A1AFE58-107D-4787-BDA0-D82FB635C3A6";
paths = (
{
closed = 1;
nodes = (
"103 0 LINE",
"254 221 LINE",
"273 221 LINE",
"477 514 LINE",
"411 514 LINE",
"245 265 LINE",
"226 265 LINE",
"38 0 LINE"
);
},
{
closed = 1;
nodes = (
"477 0 LINE",
"276 285 LINE",
"257 285 LINE",
"103 514 LINE",
"38 514 LINE",
"233 229 LINE",
"252 229 LINE",
"411 0 LINE"
);
}
);
width = 515;
},
{
layerId = "84435905-EDCB-4949-A8A3-0E53308A2F50";
paths = (
{
closed = 1;
nodes = (
"222 0 LINE",
"346 247 LINE",
"446 247 LINE",
"613 534 LINE",
"397 534 LINE",
"282 304 LINE",
"183 304 LINE",
"6 0 LINE"
);
},
{
closed = 1;
nodes = (
"614 0 LINE",
"401 364 LINE",
"308 364 LINE",
"224 534 LINE",
"8 534 LINE",
"220 171 LINE",
"314 171 LINE",
"399 0 LINE"
);
}
);
width = 621;
}
);
unicode = 0078;
userData = {
RMXScaler = {
source = x;
};
};
},
{
color = 9;
glyphname = y;
lastChange = "2017-07-12 10:55:35 +0000";
layers = (
{
guideLines = (
{
angle = 90;
position = "{285, 393}";
}
);
layerId = "C76CAC8E-7AD6-478C-8F7E-02FEF6F1EA84";
paths = (
{
closed = 1;
nodes = (
"285 81 LINE",
"343 124 LINE",
"246 124 LINE",
"304 81 LINE",
"157 525 LINE",
"7 525 LINE",
"202 0 LINE",
"307 0 LINE",
"278 43 LINE",
"242 -59 OFFCURVE",
"211 -95 OFFCURVE",
"139 -95 CURVE SMOOTH",
"115 -95 OFFCURVE",
"81 -92 OFFCURVE",
"52 -87 CURVE",
"52 -199 LINE",
"85 -206 OFFCURVE",
"109 -210 OFFCURVE",
"152 -210 CURVE SMOOTH",
"294 -210 OFFCURVE",
"345 -124 OFFCURVE",
"387 0 CURVE SMOOTH",
"563 525 LINE",
"413 525 LINE"
);
}
);
width = 568;
},
{
layerId = "0A1AFE58-107D-4787-BDA0-D82FB635C3A6";
paths = (
{
closed = 1;
nodes = (
"273 38 LINE",
"292 53 LINE",
"255 53 LINE",
"280 38 LINE",
"92 514 LINE",
"32 514 LINE",
"240 0 LINE",
"268 0 LINE",
"270 30 LINE",
"217 -117 OFFCURVE",
"170 -161 OFFCURVE",
"106 -161 CURVE SMOOTH",
"92 -161 OFFCURVE",
"65 -159 OFFCURVE",
"44 -155 CURVE",
"44 -204 LINE",
"55 -206 OFFCURVE",
"86 -210 OFFCURVE",
"105 -210 CURVE SMOOTH",
"210 -210 OFFCURVE",
"256 -142 OFFCURVE",
"312 0 CURVE SMOOTH",
"513 514 LINE",
"453 514 LINE"
);
}
);
width = 524;
},
{
layerId = "84435905-EDCB-4949-A8A3-0E53308A2F50";
paths = (
{
closed = 1;
nodes = (
"310 129 LINE",
"360 164 LINE",
"266 164 LINE",
"320 129 LINE",
"215 534 LINE",
"0 534 LINE",
"178 0 LINE",
"311 0 LINE",
"284 18 LINE",
"260 -43 OFFCURVE",
"229 -56 OFFCURVE",
"159 -56 CURVE SMOOTH",
"135 -56 OFFCURVE",
"102 -53 OFFCURVE",
"76 -50 CURVE",
"76 -196 LINE",
"111 -204 OFFCURVE",
"153 -210 OFFCURVE",
"198 -210 CURVE SMOOTH",
"344 -210 OFFCURVE",
"410 -140 OFFCURVE",
"452 0 CURVE SMOOTH",
"611 534 LINE",
"396 534 LINE"
);
}
);
width = 611;
}
);
rightMetricsKey = "=v";
unicode = 0079;
userData = {
RMXScaler = {
source = y;
};
};
},
{
color = 9;
glyphname = z;
lastChange = "2017-07-12 10:49:39 +0000";
layers = (
{
background = {
paths = (
{
closed = 1;
nodes = (
"476 415 LINE",
"476 525 LINE",
"60 525 LINE",
"60 410 LINE",
"304 410 LINE",
"50 110 LINE",
"50 0 LINE",
"476 0 LINE",
"476 115 LINE",
"222 115 LINE"
);
}
);
};
layerId = "C76CAC8E-7AD6-478C-8F7E-02FEF6F1EA84";
paths = (
{
closed = 1;
nodes = (
"226 120 LINE",
"476 415 LINE",
"476 525 LINE",
"60 525 LINE",
"60 410 LINE",
"309 410 LINE",
"298 424 LINE",
"298 403 LINE",
"50 110 LINE",
"50 0 LINE",
"476 0 LINE",
"476 115 LINE",
"207 115 LINE",
"226 101 LINE"
);
}
);
width = 521;
},
{
background = {
paths = (
{
closed = 1;
nodes = (
"115 53 LINE",
"415 469 LINE",
"415 514 LINE",
"63 514 LINE",
"63 464 LINE",
"364 464 LINE",
"352 481 LINE",
"352 460 LINE",
"53 45 LINE",
"53 0 LINE",
"409 0 LINE",
"409 50 LINE",
"87 50 LINE",
"115 34 LINE"
);
}
);
};
layerId = "0A1AFE58-107D-4787-BDA0-D82FB635C3A6";
paths = (
{
closed = 1;
nodes = (
"115 53 LINE",
"420 469 LINE",
"420 514 LINE",
"63 514 LINE",
"63 464 LINE",
"369 464 LINE",
"357 481 LINE",
"357 460 LINE",
"53 45 LINE",
"53 0 LINE",
"414 0 LINE",
"414 50 LINE",
"87 50 LINE",
"115 34 LINE"
);
}
);
width = 473;
},
{
layerId = "84435905-EDCB-4949-A8A3-0E53308A2F50";
paths = (
{
closed = 1;
nodes = (
"313 161 LINE",
"528 385 LINE",
"528 534 LINE",
"59 534 LINE",
"59 380 LINE",
"276 380 LINE",
"265 391 LINE",
"265 374 LINE",
"49 149 LINE",
"49 0 LINE",
"528 0 LINE",
"528 154 LINE",
"301 154 LINE",
"313 142 LINE"
);
}
);
width = 576;
}
);
unicode = 007A;
userData = {
RMXScaler = {
source = z;
};
};
},
{
color = 9;
glyphname = y.001;
lastChange = "2017-07-12 10:55:39 +0000";
layers = (
{
background = {
paths = (
{
closed = 1;
nodes = (
"277 79 LINE",
"335 120 LINE",
"238 120 LINE",
"297 79 LINE",
"155 525 LINE",
"5 525 LINE",
"194 0 LINE",
"380 0 LINE",
"569 525 LINE",
"419 525 LINE"
);
}
);
};
guideLines = (
{
angle = 90;
position = "{283, 393}";
}
);
layerId = "C76CAC8E-7AD6-478C-8F7E-02FEF6F1EA84";
paths = (
{
closed = 1;
nodes = (
"290 120 LINE",
"284 120 LINE",
"155 525 LINE",
"5 525 LINE",
"194 0 LINE",
"295 0 LINE",
"266 43 LINE",
"169 -195 LINE",
"309 -195 LINE",
"569 525 LINE",
"419 525 LINE"
);
}
);
width = 574;
},
{
background = {
paths = (
{
closed = 1;
nodes = (
"252 38 LINE",
"271 53 LINE",
"234 53 LINE",
"259 38 LINE",
"71 514 LINE",
"11 514 LINE",
"219 0 LINE",
"247 0 LINE",
"249 30 LINE",
"196 -117 OFFCURVE",
"149 -161 OFFCURVE",
"85 -161 CURVE SMOOTH",
"71 -161 OFFCURVE",
"44 -159 OFFCURVE",
"23 -155 CURVE",
"23 -204 LINE",
"34 -206 OFFCURVE",
"65 -210 OFFCURVE",
"84 -210 CURVE SMOOTH",
"189 -210 OFFCURVE",
"235 -142 OFFCURVE",
"291 0 CURVE SMOOTH",
"492 514 LINE",
"432 514 LINE"
);
}
);
};
layerId = "0A1AFE58-107D-4787-BDA0-D82FB635C3A6";
paths = (
{
closed = 1;
nodes = (
"257 53 LINE",
"254 53 LINE",
"71 514 LINE",
"11 514 LINE",
"219 0 LINE",
"250 0 LINE",
"245 17 LINE",
"154 -195 LINE",
"214 -195 LINE",
"492 514 LINE",
"432 514 LINE"
);
}
);
width = 503;
},
{
layerId = "84435905-EDCB-4949-A8A3-0E53308A2F50";
paths = (
{
closed = 1;
nodes = (
"313 163 LINE",
"305 163 LINE",
"215 534 LINE",
"0 534 LINE",
"172 0 LINE",
"309 0 LINE",
"270 27 LINE",
"185 -195 LINE",
"384 -195 LINE",
"618 534 LINE",
"403 534 LINE"
);
}
);
width = 618;
}
);
leftMetricsKey = "=v";
rightMetricsKey = "=v";
},
{
glyphname = zero;
lastChange = "2017-07-17 12:37:23 +0000";
layers = (
{
layerId = "0A1AFE58-107D-4787-BDA0-D82FB635C3A6";
width = 600;
},
{
background = {
paths = (
{
closed = 1;
nodes = (
"513 -15 OFFCURVE",
"637 89 OFFCURVE",
"637 335 CURVE SMOOTH",
"637 581 OFFCURVE",
"513 685 OFFCURVE",
"337 685 CURVE SMOOTH",
"161 685 OFFCURVE",
"37 581 OFFCURVE",
"37 335 CURVE SMOOTH",
"37 89 OFFCURVE",
"161 -15 OFFCURVE",
"337 -15 CURVE SMOOTH"
);
},
{
closed = 1;
nodes = (
"247 110 OFFCURVE",
"190 164 OFFCURVE",
"190 335 CURVE SMOOTH",
"190 506 OFFCURVE",
"247 560 OFFCURVE",
"337 560 CURVE SMOOTH",
"427 560 OFFCURVE",
"484 506 OFFCURVE",
"484 335 CURVE SMOOTH",
"484 164 OFFCURVE",
"427 110 OFFCURVE",
"337 110 CURVE SMOOTH"
);
}
);
};
layerId = "C76CAC8E-7AD6-478C-8F7E-02FEF6F1EA84";
paths = (
{
closed = 1;
nodes = (
"513 -15 OFFCURVE",
"624 89 OFFCURVE",
"624 335 CURVE SMOOTH",
"624 581 OFFCURVE",
"513 685 OFFCURVE",
"337 685 CURVE SMOOTH",
"161 685 OFFCURVE",
"50 581 OFFCURVE",
"50 335 CURVE SMOOTH",
"50 89 OFFCURVE",
"161 -15 OFFCURVE",
"337 -15 CURVE SMOOTH"
);
},
{
closed = 1;
nodes = (
"252 110 OFFCURVE",
"200 164 OFFCURVE",
"200 335 CURVE SMOOTH",
"200 506 OFFCURVE",
"252 560 OFFCURVE",
"337 560 CURVE SMOOTH",
"422 560 OFFCURVE",
"474 506 OFFCURVE",
"474 335 CURVE SMOOTH",
"474 164 OFFCURVE",
"422 110 OFFCURVE",
"337 110 CURVE SMOOTH"
);
}
);
width = 674;
},
{
layerId = "84435905-EDCB-4949-A8A3-0E53308A2F50";
width = 600;
}
);
leftMetricsKey = O;
rightMetricsKey = O;
unicode = 0030;
},
{
glyphname = one;
lastChange = "2017-07-17 12:38:57 +0000";
layers = (
{
layerId = "0A1AFE58-107D-4787-BDA0-D82FB635C3A6";
width = 600;
},
{
layerId = "C76CAC8E-7AD6-478C-8F7E-02FEF6F1EA84";
paths = (
{
closed = 1;
nodes = (
"386 0 LINE",
"386 670 LINE",
"238 670 LINE",
"70 578 LINE",
"70 445 LINE",
"231 522 LINE",
"238 522 LINE",
"238 0 LINE"
);
},
{
closed = 1;
nodes = (
"516 0 LINE",
"516 125 LINE",
"50 125 LINE",
"50 0 LINE"
);
}
);
width = 536;
},
{
layerId = "84435905-EDCB-4949-A8A3-0E53308A2F50";
width = 600;
}
);
unicode = 0031;
},
{
glyphname = two;
lastChange = "2017-07-17 13:32:42 +0000";
layers = (
{
layerId = "0A1AFE58-107D-4787-BDA0-D82FB635C3A6";
width = 600;
},
{
background = {
paths = (
{
closed = 1;
nodes = (
"218 447 LINE",
"228 513 OFFCURVE",
"252 563 OFFCURVE",
"331 563 CURVE SMOOTH",
"397 563 OFFCURVE",
"428 535 OFFCURVE",
"428 483 CURVE SMOOTH",
"428 396 OFFCURVE",
"321 326 OFFCURVE",
"246 265 CURVE SMOOTH",
"70 120 LINE",
"70 0 LINE",
"570 0 LINE",
"570 125 LINE",
"274 125 LINE",
"274 131 LINE",
"375 208 LINE SMOOTH",
"466 277 OFFCURVE",
"575 348 OFFCURVE",
"575 488 CURVE SMOOTH",
"575 615 OFFCURVE",
"489 685 OFFCURVE",
"329 685 CURVE SMOOTH",
"154 685 OFFCURVE",
"85 583 OFFCURVE",
"75 447 CURVE"
);
}
);
};
layerId = "C76CAC8E-7AD6-478C-8F7E-02FEF6F1EA84";
paths = (
{
closed = 1;
nodes = (
"218 447 LINE",
"228 513 OFFCURVE",
"252 563 OFFCURVE",
"331 563 CURVE SMOOTH",
"397 563 OFFCURVE",
"428 535 OFFCURVE",
"428 483 CURVE SMOOTH",
"428 411 OFFCURVE",
"366 357 OFFCURVE",
"291 297 CURVE SMOOTH",
"70 120 LINE",
"70 0 LINE",
"570 0 LINE",
"570 125 LINE",
"264 125 LINE",
"264 131 LINE",
"375 208 LINE SMOOTH",
"468 273 OFFCURVE",
"575 343 OFFCURVE",
"575 488 CURVE SMOOTH",
"575 615 OFFCURVE",
"489 685 OFFCURVE",
"329 685 CURVE SMOOTH",
"154 685 OFFCURVE",
"85 583 OFFCURVE",
"75 447 CURVE"
);
}
);
width = 630;
},
{
layerId = "84435905-EDCB-4949-A8A3-0E53308A2F50";
width = 600;
}
);
unicode = 0032;
},
{
glyphname = four;
lastChange = "2017-07-17 12:24:10 +0000";
layers = (
{
layerId = "0A1AFE58-107D-4787-BDA0-D82FB635C3A6";
width = 600;
},
{
layerId = "C76CAC8E-7AD6-478C-8F7E-02FEF6F1EA84";
paths = (
{
closed = 1;
nodes = (
"294 670 LINE",
"20 232 LINE",
"20 122 LINE",
"377 122 LINE",
"377 0 LINE",
"518 0 LINE",
"518 122 LINE",
"588 122 LINE",
"588 237 LINE",
"518 237 LINE",
"518 670 LINE"
);
},
{
closed = 1;
nodes = (
"176 237 LINE",
"176 244 LINE",
"368 559 LINE",
"377 559 LINE",
"377 237 LINE"
);
}
);
width = 628;
},
{
layerId = "84435905-EDCB-4949-A8A3-0E53308A2F50";
width = 600;
}
);
unicode = 0034;
},
{
glyphname = five;
lastChange = "2017-07-17 19:34:15 +0000";
layers = (
{
layerId = "0A1AFE58-107D-4787-BDA0-D82FB635C3A6";
width = 600;
},
{
background = {
paths = (
{
closed = 1;
nodes = (
"60 172 LINE",
"63 57 OFFCURVE",
"151 -15 OFFCURVE",
"307 -15 CURVE SMOOTH",
"465 -15 OFFCURVE",
"562 77 OFFCURVE",
"562 220 CURVE SMOOTH",
"562 373 OFFCURVE",
"474 449 OFFCURVE",
"352 449 CURVE SMOOTH",
"274 449 OFFCURVE",
"231 415 OFFCURVE",
"206 383 CURVE",
"199 383 LINE",
"213 545 LINE",
"524 545 LINE",
"524 670 LINE",
"102 670 LINE",
"70 284 LINE",
"192 284 LINE",
"213 308 OFFCURVE",
"259 341 OFFCURVE",
"309 341 CURVE SMOOTH",
"382 341 OFFCURVE",
"419 297 OFFCURVE",
"419 216 CURVE SMOOTH",
"419 142 OFFCURVE",
"379 102 OFFCURVE",
"309 102 CURVE SMOOTH",
"246 102 OFFCURVE",
"211 125 OFFCURVE",
"202 172 CURVE"
);
}
);
};
layerId = "C76CAC8E-7AD6-478C-8F7E-02FEF6F1EA84";
paths = (
{
closed = 1;
nodes = (
"60 172 LINE",
"63 57 OFFCURVE",
"151 -15 OFFCURVE",
"307 -15 CURVE SMOOTH",
"465 -15 OFFCURVE",
"562 67 OFFCURVE",
"562 220 CURVE SMOOTH",
"562 373 OFFCURVE",
"484 451 OFFCURVE",
"352 451 CURVE SMOOTH",
"274 451 OFFCURVE",
"243 422 OFFCURVE",
"206 373 CURVE",
"199 373 LINE",
"218 545 LINE",
"524 545 LINE",
"524 670 LINE",
"107 670 LINE",
"70 284 LINE",
"192 284 LINE",
"213 308 OFFCURVE",
"259 341 OFFCURVE",
"309 341 CURVE SMOOTH",
"382 341 OFFCURVE",
"419 307 OFFCURVE",
"419 216 CURVE SMOOTH",
"419 142 OFFCURVE",
"379 102 OFFCURVE",
"309 102 CURVE SMOOTH",
"246 102 OFFCURVE",
"216 125 OFFCURVE",
"202 172 CURVE"
);
}
);
width = 607;
},
{
layerId = "84435905-EDCB-4949-A8A3-0E53308A2F50";
width = 600;
}
);
unicode = 0035;
},
{
glyphname = colon;
lastChange = "2017-07-12 10:49:39 +0000";
layers = (
{
background = {
paths = (
{
closed = 1;
nodes = (
"160 -10 OFFCURVE",
"192 14 OFFCURVE",
"192 66 CURVE SMOOTH",
"192 117 OFFCURVE",
"160 141 OFFCURVE",
"111 141 CURVE SMOOTH",
"62 141 OFFCURVE",
"30 117 OFFCURVE",
"30 66 CURVE SMOOTH",
"30 14 OFFCURVE",
"62 -10 OFFCURVE",
"111 -10 CURVE SMOOTH"
);
},
{
closed = 1;
nodes = (
"160 384 OFFCURVE",
"192 408 OFFCURVE",
"192 459 CURVE SMOOTH",
"192 511 OFFCURVE",
"160 535 OFFCURVE",
"111 535 CURVE SMOOTH",
"62 535 OFFCURVE",
"30 511 OFFCURVE",
"30 459 CURVE SMOOTH",
"30 408 OFFCURVE",
"62 384 OFFCURVE",
"111 384 CURVE SMOOTH"
);
}
);
};
components = (
{
name = period;
},
{
name = period;
transform = "{1, 0, 0, 1, 0, 399}";
}
);
layerId = "C76CAC8E-7AD6-478C-8F7E-02FEF6F1EA84";
width = 222;
},
{
components = (
{
name = period;
},
{
name = period;
transform = "{1, 0, 0, 1, 0, 438}";
}
);
layerId = "0A1AFE58-107D-4787-BDA0-D82FB635C3A6";
width = 143;
},
{
components = (
{
name = period;
},
{
name = period;
transform = "{1, 0, 0, 1, 0, 359}";
}
);
layerId = "84435905-EDCB-4949-A8A3-0E53308A2F50";
width = 298;
}
);
unicode = 003A;
},
{
color = 7;
glyphname = comma;
lastChange = "2017-07-12 10:49:39 +0000";
layers = (
{
background = {
paths = (
{
closed = 1;
nodes = (
"62 141 OFFCURVE",
"30 117 OFFCURVE",
"30 66 CURVE SMOOTH",
"30 14 OFFCURVE",
"62 -10 OFFCURVE",
"111 -10 CURVE",
"92 19 LINE",
"91 -34 OFFCURVE",
"58 -110 OFFCURVE",
"26 -164 CURVE",
"108 -164 LINE",
"138 -123 OFFCURVE",
"192 -45 OFFCURVE",
"192 46 CURVE SMOOTH",
"192 97 OFFCURVE",
"170 141 OFFCURVE",
"111 141 CURVE SMOOTH"
);
}
);
};
layerId = "C76CAC8E-7AD6-478C-8F7E-02FEF6F1EA84";
paths = (
{
closed = 1;
nodes = (
"62 141 OFFCURVE",
"30 117 OFFCURVE",
"30 66 CURVE SMOOTH",
"30 14 OFFCURVE",
"62 -10 OFFCURVE",
"111 -10 CURVE",
"99 19 LINE",
"98 -34 OFFCURVE",
"58 -111 OFFCURVE",
"26 -165 CURVE",
"118 -165 LINE",
"148 -124 OFFCURVE",
"192 -45 OFFCURVE",
"192 46 CURVE SMOOTH",
"192 97 OFFCURVE",
"170 141 OFFCURVE",
"111 141 CURVE SMOOTH"
);
}
);
width = 222;
},
{
layerId = "0A1AFE58-107D-4787-BDA0-D82FB635C3A6";
paths = (
{
closed = 1;
nodes = (
"47 81 OFFCURVE",
"30 67 OFFCURVE",
"30 38 CURVE SMOOTH",
"30 2 OFFCURVE",
"53 -6 OFFCURVE",
"84 -5 CURVE",
"74 19 LINE",
"74 -34 OFFCURVE",
"49 -110 OFFCURVE",
"26 -154 CURVE",
"67 -154 LINE",
"87 -116 OFFCURVE",
"113 -45 OFFCURVE",
"113 26 CURVE SMOOTH",
"113 64 OFFCURVE",
"96 81 OFFCURVE",
"70 81 CURVE SMOOTH"
);
}
);
width = 143;
},
{
layerId = "84435905-EDCB-4949-A8A3-0E53308A2F50";
paths = (
{
closed = 1;
nodes = (
"82 190 OFFCURVE",
"39 152 OFFCURVE",
"39 88 CURVE SMOOTH",
"39 24 OFFCURVE",
"81 -13 OFFCURVE",
"147 -14 CURVE",
"123 19 LINE",
"114 -34 OFFCURVE",
"80 -120 OFFCURVE",
"50 -174 CURVE",
"180 -174 LINE",
"218 -115 OFFCURVE",
"260 -23 OFFCURVE",
"260 68 CURVE SMOOTH",
"260 149 OFFCURVE",
"218 190 OFFCURVE",
"149 190 CURVE SMOOTH"
);
}
);
width = 298;
}
);
unicode = 002C;
},
{
color = 7;
glyphname = period;
lastChange = "2017-07-12 10:49:39 +0000";
layers = (
{
layerId = "C76CAC8E-7AD6-478C-8F7E-02FEF6F1EA84";
paths = (
{
closed = 1;
nodes = (
"160 -10 OFFCURVE",
"192 14 OFFCURVE",
"192 66 CURVE SMOOTH",
"192 117 OFFCURVE",
"160 141 OFFCURVE",
"111 141 CURVE SMOOTH",
"62 141 OFFCURVE",
"30 117 OFFCURVE",
"30 66 CURVE SMOOTH",
"30 14 OFFCURVE",
"62 -10 OFFCURVE",
"111 -10 CURVE SMOOTH"
);
}
);
width = 222;
},
{
layerId = "0A1AFE58-107D-4787-BDA0-D82FB635C3A6";
paths = (
{
closed = 1;
nodes = (
"95 -5 OFFCURVE",
"113 9 OFFCURVE",
"113 38 CURVE SMOOTH",
"113 67 OFFCURVE",
"95 81 OFFCURVE",
"71 81 CURVE SMOOTH",
"47 81 OFFCURVE",
"30 67 OFFCURVE",
"30 38 CURVE SMOOTH",
"30 9 OFFCURVE",
"47 -5 OFFCURVE",
"71 -5 CURVE SMOOTH"
);
}
);
width = 143;
},
{
layerId = "84435905-EDCB-4949-A8A3-0E53308A2F50";
paths = (
{
closed = 1;
nodes = (
"216 -14 OFFCURVE",
"260 24 OFFCURVE",
"260 88 CURVE SMOOTH",
"260 152 OFFCURVE",
"216 190 OFFCURVE",
"149 190 CURVE SMOOTH",
"82 190 OFFCURVE",
"39 152 OFFCURVE",
"39 88 CURVE SMOOTH",
"39 24 OFFCURVE",
"82 -14 OFFCURVE",
"149 -14 CURVE SMOOTH"
);
}
);
width = 298;
}
);
unicode = 002E;
},
{
glyphname = semicolon;
lastChange = "2017-07-12 10:49:39 +0000";
layers = (
{
background = {
paths = (
{
closed = 1;
nodes = (
"160 384 OFFCURVE",
"192 408 OFFCURVE",
"192 459 CURVE SMOOTH",
"192 511 OFFCURVE",
"160 535 OFFCURVE",
"111 535 CURVE SMOOTH",
"62 535 OFFCURVE",
"30 511 OFFCURVE",
"30 459 CURVE SMOOTH",
"30 408 OFFCURVE",
"62 384 OFFCURVE",
"111 384 CURVE SMOOTH"
);
},
{
closed = 1;
nodes = (
"62 141 OFFCURVE",
"30 117 OFFCURVE",
"30 66 CURVE SMOOTH",
"30 14 OFFCURVE",
"62 -10 OFFCURVE",
"111 -10 CURVE",
"92 19 LINE",
"91 -34 OFFCURVE",
"58 -110 OFFCURVE",
"26 -164 CURVE",
"108 -164 LINE",
"138 -123 OFFCURVE",
"192 -45 OFFCURVE",
"192 46 CURVE SMOOTH",
"192 97 OFFCURVE",
"170 141 OFFCURVE",
"111 141 CURVE SMOOTH"
);
}
);
};
components = (
{
name = comma;
},
{
name = period;
transform = "{1, 0, 0, 1, 0, 399}";
}
);
layerId = "C76CAC8E-7AD6-478C-8F7E-02FEF6F1EA84";
width = 222;
},
{
components = (
{
name = comma;
},
{
name = period;
transform = "{1, 0, 0, 1, 0, 451}";
}
);
layerId = "0A1AFE58-107D-4787-BDA0-D82FB635C3A6";
width = 143;
},
{
components = (
{
name = comma;
},
{
name = period;
transform = "{1, 0, 0, 1, 0, 359}";
}
);
layerId = "84435905-EDCB-4949-A8A3-0E53308A2F50";
width = 298;
}
);
unicode = 003B;
},
{
color = 7;
glyphname = braceleft;
lastChange = "2017-07-12 10:49:39 +0000";
layers = (
{
background = {
paths = (
{
closed = 1;
nodes = (
"20 292 LINE",
"93 275 OFFCURVE",
"121 227 OFFCURVE",
"121 156 CURVE SMOOTH",
"121 93 OFFCURVE",
"95 5 OFFCURVE",
"95 -45 CURVE SMOOTH",
"95 -191 OFFCURVE",
"163 -210 OFFCURVE",
"311 -210 CURVE",
"318 -135 LINE",
"253 -135 OFFCURVE",
"229 -123 OFFCURVE",
"229 -46 CURVE SMOOTH",
"229 13 OFFCURVE",
"245 101 OFFCURVE",
"245 156 CURVE SMOOTH",
"245 242 OFFCURVE",
"204 306 OFFCURVE",
"116 324 CURVE",
"116 317 LINE",
"204 335 OFFCURVE",
"245 399 OFFCURVE",
"245 485 CURVE SMOOTH",
"245 541 OFFCURVE",
"230 622 OFFCURVE",
"229 681 CURVE SMOOTH",
"228 758 OFFCURVE",
"253 770 OFFCURVE",
"318 770 CURVE",
"311 845 LINE",
"163 845 OFFCURVE",
"95 836 OFFCURVE",
"95 690 CURVE SMOOTH",
"95 639 OFFCURVE",
"121 549 OFFCURVE",
"121 485 CURVE SMOOTH",
"121 414 OFFCURVE",
"93 367 OFFCURVE",
"20 350 CURVE"
);
}
);
};
layerId = "C76CAC8E-7AD6-478C-8F7E-02FEF6F1EA84";
paths = (
{
closed = 1;
nodes = (
"20 289 LINE",
"93 272 OFFCURVE",
"121 244 OFFCURVE",
"121 173 CURVE SMOOTH",
"121 110 OFFCURVE",
"95 5 OFFCURVE",
"95 -65 CURVE SMOOTH",
"95 -191 OFFCURVE",
"170 -210 OFFCURVE",
"318 -210 CURVE",
"318 -135 LINE",
"259 -135 OFFCURVE",
"235 -123 OFFCURVE",
"235 -46 CURVE SMOOTH",
"235 13 OFFCURVE",
"256 108 OFFCURVE",
"256 173 CURVE SMOOTH",
"256 259 OFFCURVE",
"210 303 OFFCURVE",
"116 321 CURVE",
"116 314 LINE",
"210 332 OFFCURVE",
"256 376 OFFCURVE",
"256 462 CURVE SMOOTH",
"256 518 OFFCURVE",
"236 622 OFFCURVE",
"235 681 CURVE SMOOTH",
"234 758 OFFCURVE",
"259 770 OFFCURVE",
"318 770 CURVE",
"318 845 LINE",
"170 845 OFFCURVE",
"95 836 OFFCURVE",
"95 710 CURVE SMOOTH",
"95 639 OFFCURVE",
"121 526 OFFCURVE",
"121 462 CURVE SMOOTH",
"121 391 OFFCURVE",
"93 364 OFFCURVE",
"20 347 CURVE"
);
}
);
width = 348;
},
{
layerId = "0A1AFE58-107D-4787-BDA0-D82FB635C3A6";
paths = (
{
closed = 1;
nodes = (
"40 287 LINE",
"120 277 OFFCURVE",
"140 242 OFFCURVE",
"140 177 CURVE SMOOTH",
"140 107 OFFCURVE",
"113 3 OFFCURVE",
"113 -82 CURVE SMOOTH",
"113 -167 OFFCURVE",
"150 -200 OFFCURVE",
"254 -200 CURVE",
"254 -156 LINE",
"190 -156 OFFCURVE",
"169 -140 OFFCURVE",
"169 -82 CURVE SMOOTH",
"169 -9 OFFCURVE",
"196 103 OFFCURVE",
"196 185 CURVE SMOOTH",
"196 265 OFFCURVE",
"145 303 OFFCURVE",
"70 309 CURVE",
"70 299 LINE",
"145 304 OFFCURVE",
"196 345 OFFCURVE",
"196 425 CURVE SMOOTH",
"196 493 OFFCURVE",
"169 627 OFFCURVE",
"169 700 CURVE SMOOTH",
"169 758 OFFCURVE",
"190 774 OFFCURVE",
"254 774 CURVE",
"254 818 LINE",
"150 818 OFFCURVE",
"113 785 OFFCURVE",
"113 700 CURVE SMOOTH",
"113 613 OFFCURVE",
"140 511 OFFCURVE",
"140 433 CURVE SMOOTH",
"140 368 OFFCURVE",
"120 333 OFFCURVE",
"40 323 CURVE"
);
}
);
width = 284;
},
{
layerId = "84435905-EDCB-4949-A8A3-0E53308A2F50";
paths = (
{
closed = 1;
nodes = (
"20 278 LINE",
"80 267 OFFCURVE",
"123 230 OFFCURVE",
"123 155 CURVE SMOOTH",
"123 97 OFFCURVE",
"97 15 OFFCURVE",
"97 -44 CURVE SMOOTH",
"97 -201 OFFCURVE",
"212 -210 OFFCURVE",
"386 -210 CURVE",
"386 -90 LINE",
"332 -90 OFFCURVE",
"305 -74 OFFCURVE",
"305 -10 CURVE SMOOTH",
"305 37 OFFCURVE",
"322 120 OFFCURVE",
"322 172 CURVE SMOOTH",
"322 263 OFFCURVE",
"275 306 OFFCURVE",
"182 326 CURVE",
"182 330 LINE",
"275 349 OFFCURVE",
"322 392 OFFCURVE",
"322 484 CURVE SMOOTH",
"322 530 OFFCURVE",
"307 611 OFFCURVE",
"305 658 CURVE SMOOTH",
"302 722 OFFCURVE",
"332 738 OFFCURVE",
"386 738 CURVE",
"386 858 LINE",
"204 858 OFFCURVE",
"97 851 OFFCURVE",
"97 694 CURVE SMOOTH",
"97 635 OFFCURVE",
"123 555 OFFCURVE",
"123 501 CURVE SMOOTH",
"123 426 OFFCURVE",
"80 389 OFFCURVE",
"20 378 CURVE"
);
}
);
width = 416;
}
);
unicode = 007B;
},
{
glyphname = braceright;
lastChange = "2017-07-12 10:49:39 +0000";
layers = (
{
background = {
paths = (
{
closed = 1;
nodes = (
"255 364 OFFCURVE",
"227 391 OFFCURVE",
"227 462 CURVE SMOOTH",
"227 526 OFFCURVE",
"253 639 OFFCURVE",
"253 710 CURVE SMOOTH",
"253 836 OFFCURVE",
"178 845 OFFCURVE",
"30 845 CURVE",
"30 770 LINE",
"89 770 OFFCURVE",
"114 758 OFFCURVE",
"113 681 CURVE SMOOTH",
"112 622 OFFCURVE",
"92 518 OFFCURVE",
"92 462 CURVE SMOOTH",
"92 376 OFFCURVE",
"138 332 OFFCURVE",
"232 314 CURVE",
"232 321 LINE",
"138 303 OFFCURVE",
"92 259 OFFCURVE",
"92 173 CURVE SMOOTH",
"92 108 OFFCURVE",
"113 13 OFFCURVE",
"113 -46 CURVE SMOOTH",
"113 -123 OFFCURVE",
"89 -135 OFFCURVE",
"30 -135 CURVE",
"30 -210 LINE",
"178 -210 OFFCURVE",
"253 -191 OFFCURVE",
"253 -65 CURVE SMOOTH",
"253 5 OFFCURVE",
"227 110 OFFCURVE",
"227 173 CURVE SMOOTH",
"227 244 OFFCURVE",
"255 272 OFFCURVE",
"328 289 CURVE",
"328 347 LINE"
);
}
);
};
components = (
{
name = braceleft;
transform = "{-1, 0, 0, 1, 348, 0}";
}
);
layerId = "C76CAC8E-7AD6-478C-8F7E-02FEF6F1EA84";
width = 348;
},
{
components = (
{
name = braceleft;
transform = "{-1, 0, 0, 1, 284, 0}";
}
);
layerId = "0A1AFE58-107D-4787-BDA0-D82FB635C3A6";
width = 284;
},
{
components = (
{
name = braceleft;
transform = "{-1, 0, 0, 1, 416, 0}";
}
);
layerId = "84435905-EDCB-4949-A8A3-0E53308A2F50";
width = 416;
}
);
unicode = 007D;
},
{
color = 7;
glyphname = bracketleft;
lastChange = "2017-07-12 10:49:39 +0000";
layers = (
{
layerId = "C76CAC8E-7AD6-478C-8F7E-02FEF6F1EA84";
paths = (
{
closed = 1;
nodes = (
"50 830 LINE",
"50 -195 LINE",
"190 -195 LINE",
"190 830 LINE"
);
},
{
closed = 1;
nodes = (
"50 -195 LINE",
"303 -195 LINE",
"303 -105 LINE",
"50 -105 LINE"
);
},
{
closed = 1;
nodes = (
"50 830 LINE",
"50 740 LINE",
"303 740 LINE",
"303 830 LINE"
);
}
);
width = 313;
},
{
layerId = "0A1AFE58-107D-4787-BDA0-D82FB635C3A6";
paths = (
{
closed = 1;
nodes = (
"100 813 LINE",
"100 -195 LINE",
"158 -195 LINE",
"158 813 LINE"
);
},
{
closed = 1;
nodes = (
"100 -195 LINE",
"273 -195 LINE",
"273 -148 LINE",
"100 -148 LINE"
);
},
{
closed = 1;
nodes = (
"100 813 LINE",
"100 766 LINE",
"273 766 LINE",
"273 813 LINE"
);
}
);
width = 283;
},
{
layerId = "84435905-EDCB-4949-A8A3-0E53308A2F50";
paths = (
{
closed = 1;
nodes = (
"50 843 LINE",
"50 -195 LINE",
"254 -195 LINE",
"254 843 LINE"
);
},
{
closed = 1;
nodes = (
"50 -195 LINE",
"365 -195 LINE",
"365 -66 LINE",
"50 -66 LINE"
);
},
{
closed = 1;
nodes = (
"50 843 LINE",
"50 714 LINE",
"365 714 LINE",
"365 843 LINE"
);
}
);
width = 375;
}
);
unicode = 005B;
},
{
glyphname = bracketright;
lastChange = "2017-07-12 10:49:39 +0000";
layers = (
{
background = {
paths = (
{
closed = 1;
nodes = (
"123 -195 LINE",
"263 -195 LINE",
"263 830 LINE",
"123 830 LINE"
);
},
{
closed = 1;
nodes = (
"10 -105 LINE",
"10 -195 LINE",
"263 -195 LINE",
"263 -105 LINE"
);
},
{
closed = 1;
nodes = (
"10 740 LINE",
"263 740 LINE",
"263 830 LINE",
"10 830 LINE"
);
}
);
};
components = (
{
name = bracketleft;
transform = "{-1, 0, 0, 1, 313, 0}";
}
);
layerId = "C76CAC8E-7AD6-478C-8F7E-02FEF6F1EA84";
width = 313;
},
{
components = (
{
name = bracketleft;
transform = "{-1, 0, 0, 1, 283, 0}";
}
);
layerId = "0A1AFE58-107D-4787-BDA0-D82FB635C3A6";
width = 283;
},
{
components = (
{
name = bracketleft;
transform = "{-1, 0, 0, 1, 375, 0}";
}
);
layerId = "84435905-EDCB-4949-A8A3-0E53308A2F50";
width = 375;
}
);
unicode = 005D;
},
{
color = 7;
glyphname = parenleft;
lastChange = "2017-07-12 10:49:39 +0000";
layers = (
{
background = {
paths = (
{
closed = 1;
nodes = (
"50 830 LINE",
"50 -195 LINE",
"190 -195 LINE",
"190 830 LINE"
);
},
{
closed = 1;
nodes = (
"50 -195 LINE",
"303 -195 LINE",
"303 -105 LINE",
"50 -105 LINE"
);
},
{
closed = 1;
nodes = (
"50 830 LINE",
"50 740 LINE",
"303 740 LINE",
"303 830 LINE"
);
},
{
closed = 1;
nodes = (
"105 705 OFFCURVE",
"50 509 OFFCURVE",
"50 317 CURVE SMOOTH",
"50 125 OFFCURVE",
"105 -72 OFFCURVE",
"218 -222 CURVE",
"312 -169 LINE",
"245 -43 OFFCURVE",
"200 130 OFFCURVE",
"198 317 CURVE SMOOTH",
"196 504 OFFCURVE",
"245 677 OFFCURVE",
"312 802 CURVE",
"218 855 LINE"
);
}
);
};
layerId = "C76CAC8E-7AD6-478C-8F7E-02FEF6F1EA84";
paths = (
{
closed = 1;
nodes = (
"110 680 OFFCURVE",
"50 519 OFFCURVE",
"50 317 CURVE SMOOTH",
"50 115 OFFCURVE",
"110 -45 OFFCURVE",
"198 -195 CURVE",
"332 -195 LINE",
"265 -69 OFFCURVE",
"200 100 OFFCURVE",
"198 317 CURVE SMOOTH",
"196 534 OFFCURVE",
"265 705 OFFCURVE",
"332 830 CURVE",
"198 830 LINE"
);
}
);
width = 322;
},
{
layerId = "0A1AFE58-107D-4787-BDA0-D82FB635C3A6";
paths = (
{
closed = 1;
nodes = (
"134 650 OFFCURVE",
"91 496 OFFCURVE",
"90 311 CURVE SMOOTH",
"89 127 OFFCURVE",
"134 -32 OFFCURVE",
"217 -195 CURVE",
"274 -195 LINE",
"216 -77 OFFCURVE",
"153 89 OFFCURVE",
"150 311 CURVE SMOOTH",
"147 534 OFFCURVE",
"216 697 OFFCURVE",
"274 813 CURVE",
"217 813 LINE"
);
}
);
width = 284;
},
{
layerId = "84435905-EDCB-4949-A8A3-0E53308A2F50";
paths = (
{
closed = 1;
nodes = (
"125 710 OFFCURVE",
"49 552 OFFCURVE",
"50 321 CURVE SMOOTH",
"51 91 OFFCURVE",
"125 -62 OFFCURVE",
"216 -195 CURVE",
"407 -195 LINE",
"333 -63 OFFCURVE",
"266 109 OFFCURVE",
"265 321 CURVE SMOOTH",
"264 534 OFFCURVE",
"333 711 OFFCURVE",
"407 843 CURVE",
"216 843 LINE"
);
}
);
width = 397;
}
);
unicode = 0028;
},
{
glyphname = parenright;
lastChange = "2017-07-12 10:49:39 +0000";
layers = (
{
background = {
paths = (
{
closed = 1;
nodes = (
"217 705 OFFCURVE",
"104 855 CURVE",
"10 802 LINE",
"77 677 OFFCURVE",
"126 504 OFFCURVE",
"124 317 CURVE SMOOTH",
"122 130 OFFCURVE",
"77 -43 OFFCURVE",
"10 -169 CURVE",
"104 -222 LINE",
"217 -72 OFFCURVE",
"272 125 OFFCURVE",
"272 317 CURVE SMOOTH",
"272 509 OFFCURVE"
);
}
);
};
components = (
{
name = parenleft;
transform = "{-1, 0, 0, 1, 322, 0}";
}
);
layerId = "C76CAC8E-7AD6-478C-8F7E-02FEF6F1EA84";
width = 322;
},
{
components = (
{
name = parenleft;
transform = "{-1, 0, 0, 1, 284, 0}";
}
);
layerId = "0A1AFE58-107D-4787-BDA0-D82FB635C3A6";
width = 284;
},
{
components = (
{
name = parenleft;
transform = "{-1, 0, 0, 1, 397, 0}";
}
);
layerId = "84435905-EDCB-4949-A8A3-0E53308A2F50";
width = 397;
}
);
unicode = 0029;
},
{
color = 7;
glyphname = hyphen;
lastChange = "2017-07-12 10:49:39 +0000";
layers = (
{
layerId = "C76CAC8E-7AD6-478C-8F7E-02FEF6F1EA84";
paths = (
{
closed = 1;
nodes = (
"80 204 LINE",
"440 204 LINE",
"440 324 LINE",
"80 324 LINE"
);
}
);
width = 520;
},
{
layerId = "0A1AFE58-107D-4787-BDA0-D82FB635C3A6";
paths = (
{
closed = 1;
nodes = (
"80 231 LINE",
"400 231 LINE",
"400 278 LINE",
"80 278 LINE"
);
}
);
width = 480;
},
{
layerId = "84435905-EDCB-4949-A8A3-0E53308A2F50";
paths = (
{
closed = 1;
nodes = (
"80 191 LINE",
"475 191 LINE",
"475 346 LINE",
"80 346 LINE"
);
}
);
width = 555;
}
);
unicode = 002D;
},
{
glyphname = dieresiscomb;
lastChange = "2017-07-17 19:56:17 +0000";
layers = (
{
anchors = (
{
name = _top;
position = "{0, 514}";
}
);
background = {
paths = (
{
closed = 1;
nodes = (
"-62 584 OFFCURVE",
"-44 598 OFFCURVE",
"-44 627 CURVE SMOOTH",
"-44 656 OFFCURVE",
"-62 670 OFFCURVE",
"-86 670 CURVE SMOOTH",
"-111 670 OFFCURVE",
"-128 656 OFFCURVE",
"-128 627 CURVE SMOOTH",
"-128 598 OFFCURVE",
"-111 584 OFFCURVE",
"-86 584 CURVE SMOOTH"
);
},
{
closed = 1;
nodes = (
"108 584 OFFCURVE",
"126 598 OFFCURVE",
"126 627 CURVE SMOOTH",
"126 656 OFFCURVE",
"108 670 OFFCURVE",
"84 670 CURVE SMOOTH",
"59 670 OFFCURVE",
"42 656 OFFCURVE",
"42 627 CURVE SMOOTH",
"42 598 OFFCURVE",
"59 584 OFFCURVE",
"84 584 CURVE SMOOTH"
);
}
);
};
layerId = "0A1AFE58-107D-4787-BDA0-D82FB635C3A6";
paths = (
{
closed = 1;
nodes = (
"-67 584 OFFCURVE",
"-50 598 OFFCURVE",
"-50 624 CURVE SMOOTH",
"-50 650 OFFCURVE",
"-67 664 OFFCURVE",
"-91 664 CURVE SMOOTH",
"-116 664 OFFCURVE",
"-132 650 OFFCURVE",
"-132 624 CURVE SMOOTH",
"-132 598 OFFCURVE",
"-116 584 OFFCURVE",
"-91 584 CURVE SMOOTH"
);
},
{
closed = 1;
nodes = (
"113 584 OFFCURVE",
"130 598 OFFCURVE",
"130 624 CURVE SMOOTH",
"130 650 OFFCURVE",
"113 664 OFFCURVE",
"89 664 CURVE SMOOTH",
"64 664 OFFCURVE",
"48 650 OFFCURVE",
"48 624 CURVE SMOOTH",
"48 598 OFFCURVE",
"64 584 OFFCURVE",
"89 584 CURVE SMOOTH"
);
}
);
width = 600;
},
{
anchors = (
{
name = _top;
position = "{0, 534}";
}
);
background = {
paths = (
{
closed = 1;
nodes = (
"-75 599 OFFCURVE",
"-34 633 OFFCURVE",
"-34 696 CURVE SMOOTH",
"-34 759 OFFCURVE",
"-75 793 OFFCURVE",
"-149 793 CURVE SMOOTH",
"-225 793 OFFCURVE",
"-266 759 OFFCURVE",
"-266 696 CURVE SMOOTH",
"-266 633 OFFCURVE",
"-225 599 OFFCURVE",
"-149 599 CURVE SMOOTH"
);
},
{
closed = 1;
nodes = (
"225 599 OFFCURVE",
"266 633 OFFCURVE",
"266 696 CURVE SMOOTH",
"266 759 OFFCURVE",
"225 793 OFFCURVE",
"151 793 CURVE SMOOTH",
"75 793 OFFCURVE",
"34 759 OFFCURVE",
"34 696 CURVE SMOOTH",
"34 633 OFFCURVE",
"75 599 OFFCURVE",
"151 599 CURVE SMOOTH"
);
}
);
};
layerId = "84435905-EDCB-4949-A8A3-0E53308A2F50";
paths = (
{
closed = 1;
nodes = (
"-63 589 OFFCURVE",
"-24 621 OFFCURVE",
"-24 681 CURVE SMOOTH",
"-24 741 OFFCURVE",
"-63 773 OFFCURVE",
"-127 773 CURVE SMOOTH",
"-192 773 OFFCURVE",
"-231 741 OFFCURVE",
"-231 681 CURVE SMOOTH",
"-231 621 OFFCURVE",
"-192 589 OFFCURVE",
"-127 589 CURVE SMOOTH"
);
},
{
closed = 1;
nodes = (
"192 589 OFFCURVE",
"231 621 OFFCURVE",
"231 681 CURVE SMOOTH",
"231 741 OFFCURVE",
"192 773 OFFCURVE",
"129 773 CURVE SMOOTH",
"63 773 OFFCURVE",
"24 741 OFFCURVE",
"24 681 CURVE SMOOTH",
"24 621 OFFCURVE",
"63 589 OFFCURVE",
"129 589 CURVE SMOOTH"
);
}
);
width = 600;
},
{
anchors = (
{
name = _top;
position = "{0, 524}";
}
);
background = {
paths = (
{
closed = 1;
nodes = (
"-58 588 OFFCURVE",
"-24 610 OFFCURVE",
"-24 664 CURVE SMOOTH",
"-24 718 OFFCURVE",
"-58 740 OFFCURVE",
"-109 740 CURVE SMOOTH",
"-160 740 OFFCURVE",
"-194 718 OFFCURVE",
"-194 664 CURVE SMOOTH",
"-194 610 OFFCURVE",
"-160 588 OFFCURVE",
"-109 588 CURVE SMOOTH"
);
},
{
closed = 1;
nodes = (
"162 588 OFFCURVE",
"196 610 OFFCURVE",
"196 664 CURVE SMOOTH",
"196 718 OFFCURVE",
"162 740 OFFCURVE",
"111 740 CURVE SMOOTH",
"60 740 OFFCURVE",
"26 718 OFFCURVE",
"26 664 CURVE SMOOTH",
"26 610 OFFCURVE",
"60 588 OFFCURVE",
"111 588 CURVE SMOOTH"
);
}
);
};
layerId = "C76CAC8E-7AD6-478C-8F7E-02FEF6F1EA84";
paths = (
{
closed = 1;
nodes = (
"-65 588 OFFCURVE",
"-29 610 OFFCURVE",
"-29 661 CURVE SMOOTH",
"-29 712 OFFCURVE",
"-65 734 OFFCURVE",
"-109 734 CURVE SMOOTH",
"-153 734 OFFCURVE",
"-189 712 OFFCURVE",
"-189 661 CURVE SMOOTH",
"-189 610 OFFCURVE",
"-153 588 OFFCURVE",
"-109 588 CURVE SMOOTH"
);
},
{
closed = 1;
nodes = (
"155 588 OFFCURVE",
"191 610 OFFCURVE",
"191 661 CURVE SMOOTH",
"191 712 OFFCURVE",
"155 734 OFFCURVE",
"111 734 CURVE SMOOTH",
"67 734 OFFCURVE",
"31 712 OFFCURVE",
"31 661 CURVE SMOOTH",
"31 610 OFFCURVE",
"67 588 OFFCURVE",
"111 588 CURVE SMOOTH"
);
}
);
width = 600;
}
);
unicode = 0308;
},
{
color = 11;
glyphname = dotaccentcomb;
lastChange = "2017-07-17 19:54:04 +0000";
layers = (
{
anchors = (
{
name = _top;
position = "{0, 505}";
},
{
name = top;
position = "{0, 745}";
}
);
associatedMasterId = "0A1AFE58-107D-4787-BDA0-D82FB635C3A6";
layerId = "7B99921F-A039-442D-B9C0-B0BA1B017383";
paths = (
{
closed = 1;
nodes = (
"-116 661 CURVE SMOOTH",
"-116 607 OFFCURVE",
"-73 563 OFFCURVE",
"-1 563 CURVE SMOOTH",
"80 563 OFFCURVE",
"127 610 OFFCURVE",
"127 673 CURVE SMOOTH",
"127 728 OFFCURVE",
"86 771 OFFCURVE",
"14 771 CURVE SMOOTH",
"-67 771 OFFCURVE",
"-116 727 OFFCURVE"
);
}
);
width = 0;
},
{
anchors = (
{
name = _top;
position = "{0, 524}";
}
);
layerId = "C76CAC8E-7AD6-478C-8F7E-02FEF6F1EA84";
paths = (
{
closed = 1;
nodes = (
"51 588 OFFCURVE",
"85 610 OFFCURVE",
"85 664 CURVE SMOOTH",
"85 718 OFFCURVE",
"51 740 OFFCURVE",
"0 740 CURVE SMOOTH",
"-51 740 OFFCURVE",
"-85 718 OFFCURVE",
"-85 664 CURVE SMOOTH",
"-85 610 OFFCURVE",
"-51 588 OFFCURVE",
"0 588 CURVE SMOOTH"
);
}
);
width = 0;
},
{
anchors = (
{
name = _top;
position = "{0, 474}";
},
{
name = top;
position = "{0, 664}";
}
);
associatedMasterId = "0A1AFE58-107D-4787-BDA0-D82FB635C3A6";
layerId = "0784270B-128F-47CD-B9CD-1A7CF23A33A2";
paths = (
{
closed = 1;
nodes = (
"-72 625 CURVE SMOOTH",
"-72 586 OFFCURVE",
"-45 561 OFFCURVE",
"-3 561 CURVE SMOOTH",
"42 561 OFFCURVE",
"72 590 OFFCURVE",
"72 632 CURVE SMOOTH",
"72 671 OFFCURVE",
"45 698 OFFCURVE",
"4 698 CURVE SMOOTH",
"-41 698 OFFCURVE",
"-72 668 OFFCURVE"
);
}
);
width = 0;
},
{
anchors = (
{
name = _top;
position = "{0, 514}";
}
);
layerId = "0A1AFE58-107D-4787-BDA0-D82FB635C3A6";
paths = (
{
closed = 1;
nodes = (
"24 584 OFFCURVE",
"42 598 OFFCURVE",
"42 627 CURVE SMOOTH",
"42 656 OFFCURVE",
"24 670 OFFCURVE",
"0 670 CURVE SMOOTH",
"-25 670 OFFCURVE",
"-42 656 OFFCURVE",
"-42 627 CURVE SMOOTH",
"-42 598 OFFCURVE",
"-25 584 OFFCURVE",
"0 584 CURVE SMOOTH"
);
}
);
width = 0;
},
{
anchors = (
{
name = _top;
position = "{0, 534}";
}
);
layerId = "84435905-EDCB-4949-A8A3-0E53308A2F50";
paths = (
{
closed = 1;
nodes = (
"75 589 OFFCURVE",
"116 623 OFFCURVE",
"116 686 CURVE SMOOTH",
"116 749 OFFCURVE",
"75 783 OFFCURVE",
"1 783 CURVE SMOOTH",
"-75 783 OFFCURVE",
"-116 749 OFFCURVE",
"-116 686 CURVE SMOOTH",
"-116 623 OFFCURVE",
"-75 589 OFFCURVE",
"1 589 CURVE SMOOTH"
);
}
);
width = 0;
},
{
anchors = (
{
name = _top;
position = "{0, 456}";
},
{
name = top;
position = "{0, 596}";
}
);
associatedMasterId = "0A1AFE58-107D-4787-BDA0-D82FB635C3A6";
layerId = "F7700227-3129-48D1-BD84-546BE00F4B40";
paths = (
{
closed = 1;
nodes = (
"-37 593 CURVE SMOOTH",
"-37 574 OFFCURVE",
"-22 561 OFFCURVE",
"-1 561 CURVE SMOOTH",
"22 561 OFFCURVE",
"37 576 OFFCURVE",
"37 597 CURVE SMOOTH",
"37 617 OFFCURVE",
"23 630 OFFCURVE",
"2 630 CURVE SMOOTH",
"-21 630 OFFCURVE",
"-37 615 OFFCURVE"
);
}
);
width = 0;
}
);
unicode = 0307;
userData = {
public.markColor = "0.98,0.36,0.67,1";
};
},
{
color = 11;
glyphname = acutecomb;
lastChange = "2017-07-17 21:51:43 +0000";
layers = (
{
anchors = (
{
name = _top;
position = "{0, 505}";
}
);
associatedMasterId = "0A1AFE58-107D-4787-BDA0-D82FB635C3A6";
layerId = "7B99921F-A039-442D-B9C0-B0BA1B017383";
paths = (
{
closed = 1;
nodes = (
"-122 656 LINE",
"-43 555 LINE",
"203 695 LINE",
"203 713 LINE",
"106 842 LINE"
);
}
);
width = 0;
},
{
anchors = (
{
name = _top;
position = "{0, 525}";
}
);
layerId = "C76CAC8E-7AD6-478C-8F7E-02FEF6F1EA84";
paths = (
{
closed = 1;
nodes = (
"-74 594 LINE",
"31 594 LINE",
"150 763 LINE",
"3 763 LINE"
);
}
);
width = 0;
},
{
anchors = (
{
name = _top;
position = "{0, 474}";
}
);
associatedMasterId = "0A1AFE58-107D-4787-BDA0-D82FB635C3A6";
layerId = "0784270B-128F-47CD-B9CD-1A7CF23A33A2";
paths = (
{
closed = 1;
nodes = (
"-94 598 LINE",
"-48 535 LINE",
"155 658 LINE",
"155 664 LINE",
"93 747 LINE"
);
}
);
width = 0;
},
{
anchors = (
{
name = _top;
position = "{0, 514}";
}
);
layerId = "0A1AFE58-107D-4787-BDA0-D82FB635C3A6";
width = 0;
},
{
anchors = (
{
name = _top;
position = "{0, 534}";
}
);
layerId = "84435905-EDCB-4949-A8A3-0E53308A2F50";
paths = (
{
closed = 1;
nodes = (
"-78 594 LINE",
"66 594 LINE",
"214 784 LINE",
"9 784 LINE"
);
}
);
width = 0;
},
{
anchors = (
{
name = _top;
position = "{0, 456}";
}
);
associatedMasterId = "0A1AFE58-107D-4787-BDA0-D82FB635C3A6";
layerId = "F7700227-3129-48D1-BD84-546BE00F4B40";
paths = (
{
closed = 1;
nodes = (
"-55 549 LINE",
"-37 530 LINE",
"130 675 LINE",
"130 679 LINE",
"106 702 LINE"
);
}
);
width = 0;
}
);
unicode = 0301;
userData = {
public.markColor = "0.98,0.36,0.67,1";
};
},
{
color = 11;
glyphname = circumflexcomb;
lastChange = "2017-07-17 21:52:33 +0000";
layers = (
{
anchors = (
{
name = _top;
position = "{0, 505}";
}
);
associatedMasterId = "0A1AFE58-107D-4787-BDA0-D82FB635C3A6";
layerId = "7B99921F-A039-442D-B9C0-B0BA1B017383";
paths = (
{
closed = 1;
nodes = (
"-77 808 LINE",
"-227 634 LINE",
"-140 554 LINE",
"47 703 LINE",
"-49 703 LINE",
"140 554 LINE",
"230 634 LINE",
"77 812 LINE"
);
}
);
width = 0;
},
{
anchors = (
{
name = _top;
position = "{0, 525}";
}
);
layerId = "C76CAC8E-7AD6-478C-8F7E-02FEF6F1EA84";
paths = (
{
closed = 1;
nodes = (
"189 594 LINE",
"72 763 LINE",
"-73 763 LINE",
"-190 594 LINE",
"-75 594 LINE",
"-5 677 LINE",
"5 677 LINE",
"74 594 LINE"
);
}
);
width = 0;
},
{
anchors = (
{
name = _top;
position = "{0, 474}";
}
);
associatedMasterId = "0A1AFE58-107D-4787-BDA0-D82FB635C3A6";
layerId = "0784270B-128F-47CD-B9CD-1A7CF23A33A2";
paths = (
{
closed = 1;
nodes = (
"-43 741 LINE",
"-176 597 LINE",
"-124 540 LINE",
"24 672 LINE",
"-24 672 LINE",
"121 540 LINE",
"176 596 LINE",
"43 744 LINE"
);
}
);
width = 0;
},
{
anchors = (
{
name = _top;
position = "{0, 514}";
}
);
layerId = "0A1AFE58-107D-4787-BDA0-D82FB635C3A6";
width = 0;
},
{
anchors = (
{
name = _top;
position = "{0, 534}";
}
);
background = {
paths = (
{
closed = 1;
nodes = (
"226 594 LINE",
"89 784 LINE",
"-89 784 LINE",
"-226 594 LINE",
"-62 594 LINE",
"-5 673 LINE",
"5 673 LINE",
"62 594 LINE"
);
}
);
};
layerId = "84435905-EDCB-4949-A8A3-0E53308A2F50";
paths = (
{
closed = 1;
nodes = (
"226 594 LINE",
"99 784 LINE",
"-99 784 LINE",
"-226 594 LINE",
"-72 594 LINE",
"-5 673 LINE",
"5 673 LINE",
"72 594 LINE"
);
}
);
width = 0;
},
{
anchors = (
{
name = _top;
position = "{0, 456}";
}
);
associatedMasterId = "0A1AFE58-107D-4787-BDA0-D82FB635C3A6";
layerId = "F7700227-3129-48D1-BD84-546BE00F4B40";
paths = (
{
closed = 1;
nodes = (
"-15 695 LINE",
"-141 549 LINE",
"-120 531 LINE",
"7 669 LINE",
"-6 669 LINE",
"115 532 LINE",
"136 551 LINE",
"13 699 LINE"
);
}
);
width = 0;
}
);
unicode = 0302;
userData = {
public.markColor = "0.98,0.36,0.67,1";
};
},
{
color = 11;
glyphname = caroncomb;
lastChange = "2017-07-17 21:52:19 +0000";
layers = (
{
anchors = (
{
name = _top;
position = "{0, 505}";
}
);
associatedMasterId = "0A1AFE58-107D-4787-BDA0-D82FB635C3A6";
layerId = "7B99921F-A039-442D-B9C0-B0BA1B017383";
paths = (
{
closed = 1;
nodes = (
"-47 678 LINE",
"49 678 LINE",
"-140 827 LINE",
"-230 747 LINE",
"-77 569 LINE",
"77 573 LINE",
"227 747 LINE",
"140 827 LINE"
);
}
);
width = 0;
},
{
anchors = (
{
name = _top;
position = "{0, 525}";
}
);
background = {
paths = (
{
closed = 1;
nodes = (
"-1 670 LINE",
"-65 753 LINE",
"-180 753 LINE",
"-73 594 LINE",
"72 594 LINE",
"179 753 LINE",
"64 753 LINE"
);
}
);
};
layerId = "C76CAC8E-7AD6-478C-8F7E-02FEF6F1EA84";
paths = (
{
closed = 1;
nodes = (
"5 680 LINE",
"-5 680 LINE",
"-75 763 LINE",
"-190 763 LINE",
"-73 594 LINE",
"72 594 LINE",
"189 763 LINE",
"74 763 LINE"
);
}
);
width = 0;
},
{
anchors = (
{
name = _top;
position = "{0, 474}";
}
);
associatedMasterId = "0A1AFE58-107D-4787-BDA0-D82FB635C3A6";
layerId = "0784270B-128F-47CD-B9CD-1A7CF23A33A2";
paths = (
{
closed = 1;
nodes = (
"-20 619 LINE",
"28 619 LINE",
"-117 751 LINE",
"-172 695 LINE",
"-39 547 LINE",
"47 550 LINE",
"180 694 LINE",
"128 751 LINE"
);
}
);
width = 0;
},
{
anchors = (
{
name = _top;
position = "{0, 514}";
}
);
layerId = "0A1AFE58-107D-4787-BDA0-D82FB635C3A6";
width = 0;
},
{
anchors = (
{
name = _top;
position = "{0, 534}";
}
);
background = {
paths = (
{
closed = 1;
nodes = (
"0 660 LINE",
"-82 759 LINE",
"-216 759 LINE",
"-89 569 LINE",
"89 569 LINE",
"216 759 LINE",
"82 759 LINE"
);
}
);
};
layerId = "84435905-EDCB-4949-A8A3-0E53308A2F50";
paths = (
{
closed = 1;
nodes = (
"5 705 LINE",
"-5 705 LINE",
"-72 784 LINE",
"-226 784 LINE",
"-99 594 LINE",
"99 594 LINE",
"226 784 LINE",
"72 784 LINE"
);
}
);
width = 0;
},
{
anchors = (
{
name = _top;
position = "{0, 456}";
}
);
associatedMasterId = "0A1AFE58-107D-4787-BDA0-D82FB635C3A6";
layerId = "F7700227-3129-48D1-BD84-546BE00F4B40";
paths = (
{
closed = 1;
nodes = (
"-9 566 LINE",
"4 566 LINE",
"-117 703 LINE",
"-138 684 LINE",
"-15 536 LINE",
"13 540 LINE",
"139 686 LINE",
"118 704 LINE"
);
}
);
width = 0;
}
);
unicode = 030C;
userData = {
public.markColor = "0.98,0.36,0.67,1";
};
},
{
color = 11;
glyphname = brevecomb;
lastChange = "2017-07-17 19:35:55 +0000";
layers = (
{
anchors = (
{
name = _top;
position = "{0, 505}";
}
);
associatedMasterId = "0A1AFE58-107D-4787-BDA0-D82FB635C3A6";
layerId = "7B99921F-A039-442D-B9C0-B0BA1B017383";
paths = (
{
closed = 1;
nodes = (
"80 747 OFFCURVE",
"52 708 OFFCURVE",
"1 708 CURVE SMOOTH",
"-50 708 OFFCURVE",
"-75 746 OFFCURVE",
"-82 805 CURVE",
"-218 780 LINE",
"-206 643 OFFCURVE",
"-122 566 OFFCURVE",
"-2 566 CURVE SMOOTH",
"116 566 OFFCURVE",
"206 640 OFFCURVE",
"218 783 CURVE",
"85 805 LINE"
);
}
);
width = 0;
},
{
anchors = (
{
name = _top;
position = "{0, 474}";
}
);
layerId = "C76CAC8E-7AD6-478C-8F7E-02FEF6F1EA84";
paths = (
{
closed = 1;
nodes = (
"72 646 OFFCURVE",
"42 624 OFFCURVE",
"3 624 CURVE SMOOTH",
"-38 624 OFFCURVE",
"-62 646 OFFCURVE",
"-72 708 CURVE",
"-141 702 LINE",
"-136 605 OFFCURVE",
"-94 542 OFFCURVE",
"-1 542 CURVE SMOOTH",
"88 542 OFFCURVE",
"142 604 OFFCURVE",
"148 702 CURVE",
"78 708 LINE"
);
}
);
width = 0;
},
{
anchors = (
{
name = _top;
position = "{0, 474}";
}
);
associatedMasterId = "0A1AFE58-107D-4787-BDA0-D82FB635C3A6";
layerId = "0784270B-128F-47CD-B9CD-1A7CF23A33A2";
paths = (
{
closed = 1;
nodes = (
"81 672 OFFCURVE",
"47 637 OFFCURVE",
"2 637 CURVE SMOOTH",
"-45 637 OFFCURVE",
"-76 671 OFFCURVE",
"-82 731 CURVE",
"-159 721 LINE",
"-149 613 OFFCURVE",
"-107 546 OFFCURVE",
"-4 545 CURVE SMOOTH",
"101 544 OFFCURVE",
"157 613 OFFCURVE",
"162 721 CURVE",
"88 731 LINE"
);
}
);
width = 0;
},
{
anchors = (
{
name = _top;
position = "{0, 456}";
}
);
layerId = "0A1AFE58-107D-4787-BDA0-D82FB635C3A6";
paths = (
{
closed = 1;
nodes = (
"77 586 OFFCURVE",
"40 562 OFFCURVE",
"0 562 CURVE SMOOTH",
"-42 562 OFFCURVE",
"-75 588 OFFCURVE",
"-82 647 CURVE",
"-106 644 LINE",
"-95 566 OFFCURVE",
"-55 535 OFFCURVE",
"-1 535 CURVE SMOOTH",
"50 535 OFFCURVE",
"97 566 OFFCURVE",
"106 644 CURVE",
"84 647 LINE"
);
}
);
width = 0;
},
{
anchors = (
{
name = _top;
position = "{0, 505}";
}
);
layerId = "84435905-EDCB-4949-A8A3-0E53308A2F50";
paths = (
{
closed = 1;
nodes = (
"73 717 OFFCURVE",
"49 684 OFFCURVE",
"3 684 CURVE SMOOTH",
"-44 684 OFFCURVE",
"-63 717 OFFCURVE",
"-67 764 CURVE",
"-178 744 LINE",
"-167 626 OFFCURVE",
"-96 563 OFFCURVE",
"-2 563 CURVE SMOOTH",
"93 563 OFFCURVE",
"162 626 OFFCURVE",
"179 745 CURVE",
"76 764 LINE"
);
}
);
width = 0;
},
{
anchors = (
{
name = _top;
position = "{0, 456}";
}
);
associatedMasterId = "0A1AFE58-107D-4787-BDA0-D82FB635C3A6";
layerId = "F7700227-3129-48D1-BD84-546BE00F4B40";
paths = (
{
closed = 1;
nodes = (
"90 594 OFFCURVE",
"49 576 OFFCURVE",
"2 576 CURVE SMOOTH",
"-45 576 OFFCURVE",
"-85 595 OFFCURVE",
"-101 675 CURVE",
"-128 670 LINE",
"-112 574 OFFCURVE",
"-66 542 OFFCURVE",
"0 542 CURVE SMOOTH",
"67 542 OFFCURVE",
"117 574 OFFCURVE",
"132 670 CURVE",
"106 675 LINE"
);
}
);
width = 0;
}
);
unicode = 0306;
userData = {
public.markColor = "0.98,0.36,0.67,1";
};
},
